<?xml version="1.0" encoding="utf-8"?>
<!-- Generator: Adobe Illustrator 22.0.1, SVG Export Plug-In . SVG Version: 6.00 Build 0)  -->
<svg version="1.1" id="Camada_1" xmlns="http://www.w3.org/2000/svg" xmlns:xlink="http://www.w3.org/1999/xlink" x="0px" y="0px"
	 viewBox="0 0 828.1 678" style="enable-background:new 0 0 828.1 678;" xml:space="preserve">
<style type="text/css">
	.st0{display:none;}
	.st1{display:inline;}
	.st2{fill:#617D02;}
	.st3{opacity:0.5;}
	.st4{fill:#283B11;}
	.st5{fill:#37452A;}
	.st6{fill:#455E22;}
	.st7{fill:none;stroke:#000000;stroke-width:2.8346;stroke-miterlimit:10;}
	.st8{opacity:0.96;}
	.st9{fill-rule:evenodd;clip-rule:evenodd;fill:#617D02;}
	.st10{stroke:#000000;stroke-miterlimit:10;}
</style>
<g class="st0">
	<path class="st1" d="M599.6,574.1c1.2-0.2,2.9-0.4,4.5-0.4c2.5,0,4.2,0.5,5.3,1.5c0.9,0.8,1.4,2.1,1.4,3.5c0,2.4-1.5,4-3.5,4.7v0.1
		c1.4,0.5,2.3,1.8,2.7,3.7c0.6,2.6,1,4.3,1.4,5h-2.4c-0.3-0.5-0.7-2.1-1.2-4.4c-0.5-2.5-1.5-3.5-3.7-3.6H602v7.9h-2.4V574.1z
		 M602,582.5h2.4c2.5,0,4.1-1.4,4.1-3.5c0-2.4-1.7-3.4-4.2-3.4c-1.1,0-2,0.1-2.3,0.2V582.5z"/>
	<path class="st1" d="M630,582.9c0,6.3-3.8,9.7-8.5,9.7c-4.8,0-8.2-3.8-8.2-9.3c0-5.8,3.6-9.6,8.5-9.6
		C626.7,573.6,630,577.4,630,582.9z M615.8,583.2c0,3.9,2.1,7.4,5.8,7.4c3.8,0,5.9-3.5,5.9-7.6c0-3.6-1.9-7.5-5.8-7.5
		C617.7,575.5,615.8,579.1,615.8,583.2z"/>
	<path class="st1" d="M633.1,574.1c1.2-0.2,2.9-0.4,4.5-0.4c2.5,0,4.2,0.5,5.3,1.5c0.9,0.8,1.4,2.1,1.4,3.5c0,2.4-1.5,4-3.5,4.7v0.1
		c1.4,0.5,2.3,1.8,2.7,3.7c0.6,2.6,1,4.3,1.4,5h-2.4c-0.3-0.5-0.7-2.1-1.2-4.4c-0.5-2.5-1.5-3.5-3.7-3.6h-2.2v7.9h-2.4V574.1z
		 M635.4,582.5h2.4c2.5,0,4.1-1.4,4.1-3.5c0-2.4-1.7-3.4-4.2-3.4c-1.1,0-2,0.1-2.3,0.2V582.5z"/>
	<path class="st1" d="M650.8,586.5l-1.9,5.8h-2.4l6.2-18.3h2.9l6.3,18.3h-2.5l-2-5.8H650.8z M656.8,584.6l-1.8-5.3
		c-0.4-1.2-0.7-2.3-1-3.3H654c-0.3,1.1-0.6,2.2-0.9,3.3l-1.8,5.3H656.8z"/>
	<path class="st1" d="M666.8,573.9v18.3h-2.4v-18.3H666.8z"/>
	<path class="st1" d="M686.4,584.2c-0.1-2.6-0.3-5.6-0.3-7.9h-0.1c-0.6,2.1-1.4,4.4-2.3,7l-3.2,8.9h-1.8l-3-8.7
		c-0.9-2.6-1.6-4.9-2.1-7.1h-0.1c-0.1,2.3-0.2,5.4-0.4,8.1l-0.5,7.9h-2.3l1.3-18.3h3l3.1,8.9c0.8,2.3,1.4,4.3,1.8,6.2h0.1
		c0.5-1.8,1.1-3.9,1.9-6.2l3.3-8.9h3l1.1,18.3h-2.3L686.4,584.2z"/>
	<path class="st1" d="M695.5,586.5l-1.9,5.8h-2.4l6.2-18.3h2.9l6.3,18.3H704l-2-5.8H695.5z M701.5,584.6l-1.8-5.3
		c-0.4-1.2-0.7-2.3-1-3.3h-0.1c-0.3,1.1-0.6,2.2-0.9,3.3l-1.8,5.3H701.5z"/>
</g>
<g class="st0">
	<path class="st1" d="M284.1,316.9l-5.3-16.2h2.3l2.5,8c0.7,2.2,1.3,4.2,1.7,6h0c0.5-1.9,1.1-3.9,1.8-6l2.7-8h2.2l-5.8,16.2H284.1z"
		/>
	<path class="st1" d="M302.3,309.3H296v5.8h7v1.8h-9.1v-16.2h8.7v1.8H296v5.1h6.3V309.3z"/>
	<path class="st1" d="M305.7,316.9v-16.2h2.3l5.2,8.2c1.2,1.9,2.1,3.6,2.9,5.3l0,0c-0.2-2.2-0.2-4.1-0.2-6.6v-6.8h2v16.2h-2.1
		l-5.1-8.2c-1.1-1.8-2.2-3.6-3-5.4l-0.1,0c0.1,2,0.2,4,0.2,6.7v6.9H305.7z"/>
	<path class="st1" d="M329.9,309.3h-6.3v5.8h7v1.8h-9.1v-16.2h8.7v1.8h-6.6v5.1h6.3V309.3z"/>
	<path class="st1" d="M332.2,315.7l9-13.1v-0.1H333v-1.8h10.9v1.3l-8.9,13.1v0.1h9v1.8h-11.8V315.7z"/>
	<path class="st1" d="M348.7,300.7v9.6c0,3.6,1.6,5.2,3.8,5.2c2.4,0,3.9-1.6,3.9-5.2v-9.6h2.1v9.4c0,5-2.6,7-6.1,7
		c-3.3,0-5.8-1.9-5.8-6.9v-9.5H348.7z"/>
	<path class="st1" d="M370.5,309.3h-6.3v5.8h7v1.8h-9.1v-16.2h8.7v1.8h-6.6v5.1h6.3V309.3z"/>
	<path class="st1" d="M373.9,300.7h2.1v14.4h6.9v1.8h-9V300.7z"/>
	<path class="st1" d="M387.8,311.8l-1.7,5.1H384l5.5-16.2h2.5l5.5,16.2h-2.2l-1.7-5.1H387.8z M393.2,310.2l-1.6-4.7
		c-0.4-1.1-0.6-2-0.8-3h0c-0.2,1-0.5,1.9-0.8,2.9l-1.6,4.7H393.2z"/>
</g>
<g class="st0">
	<path class="st1" d="M477,229c0.5,0.3,1.2,0.5,1.9,0.5c1.1,0,1.7-0.6,1.7-1.4c0-0.8-0.4-1.2-1.6-1.7c-1.4-0.5-2.2-1.2-2.2-2.4
		c0-1.3,1.1-2.3,2.7-2.3c0.9,0,1.5,0.2,1.8,0.4l-0.3,0.9c-0.3-0.1-0.8-0.4-1.6-0.4c-1.1,0-1.6,0.7-1.6,1.2c0,0.8,0.5,1.2,1.7,1.6
		c1.4,0.5,2.1,1.2,2.1,2.4c0,1.3-1,2.4-2.9,2.4c-0.8,0-1.7-0.2-2.1-0.5L477,229z"/>
	<path class="st1" d="M484.5,227.7l-0.9,2.6h-1.1l2.8-8.3h1.3l2.8,8.3h-1.1l-0.9-2.6H484.5z M487.3,226.9l-0.8-2.4
		c-0.2-0.5-0.3-1-0.4-1.5h0c-0.1,0.5-0.3,1-0.4,1.5l-0.8,2.4H487.3z"/>
	<path class="st1" d="M490.8,230.3V222h1.2l2.7,4.2c0.6,1,1.1,1.9,1.5,2.7l0,0c-0.1-1.1-0.1-2.1-0.1-3.4V222h1v8.3h-1.1l-2.6-4.2
		c-0.6-0.9-1.1-1.9-1.6-2.8l0,0c0.1,1.1,0.1,2.1,0.1,3.4v3.6H490.8z"/>
	<path class="st1" d="M506,226.1c0,2.9-1.7,4.4-3.9,4.4c-2.2,0-3.7-1.7-3.7-4.2c0-2.6,1.6-4.4,3.9-4.4
		C504.5,221.9,506,223.6,506,226.1z M499.6,226.2c0,1.8,1,3.4,2.7,3.4c1.7,0,2.7-1.6,2.7-3.5c0-1.7-0.9-3.4-2.7-3.4
		C500.4,222.7,499.6,224.4,499.6,226.2z M500.5,220.8c0-0.3,0.3-0.6,0.6-0.6s0.6,0.3,0.6,0.6s-0.2,0.6-0.6,0.6
		C500.7,221.4,500.5,221.1,500.5,220.8z M502.8,220.8c0-0.3,0.3-0.6,0.6-0.6c0.3,0,0.6,0.3,0.6,0.6s-0.2,0.6-0.6,0.6
		C503,221.4,502.8,221.1,502.8,220.8z"/>
	<path class="st1" d="M514.4,226.7c-0.1-1.2-0.1-2.6-0.1-3.6h0c-0.3,1-0.6,2-1.1,3.2l-1.5,4h-0.8l-1.3-4c-0.4-1.2-0.7-2.2-1-3.2h0
		c0,1-0.1,2.4-0.2,3.7l-0.2,3.6h-1l0.6-8.3h1.4l1.4,4c0.3,1,0.6,1.9,0.8,2.8h0c0.2-0.8,0.5-1.8,0.9-2.8l1.5-4h1.4l0.5,8.3h-1.1
		L514.4,226.7z"/>
	<path class="st1" d="M518.6,227.7l-0.9,2.6h-1.1l2.8-8.3h1.3l2.8,8.3h-1.1l-0.9-2.6H518.6z M521.3,226.9l-0.8-2.4
		c-0.2-0.5-0.3-1-0.4-1.5h0c-0.1,0.5-0.3,1-0.4,1.5l-0.8,2.4H521.3z"/>
</g>
<g class="st0">
	<path class="st1" d="M476.3,463.2v-3.5l-2.6-4.8h1.2l1.2,2.3c0.3,0.6,0.6,1.1,0.8,1.7h0c0.2-0.5,0.5-1.1,0.8-1.7l1.2-2.3h1.2
		l-2.8,4.8v3.5H476.3z"/>
	<path class="st1" d="M481.5,460.5l-0.9,2.6h-1.1l2.8-8.3h1.3l2.8,8.3h-1.1l-0.9-2.6H481.5z M484.3,459.7l-0.8-2.4
		c-0.2-0.5-0.3-1-0.4-1.5h0c-0.1,0.5-0.3,1-0.4,1.5l-0.8,2.4H484.3z"/>
	<path class="st1" d="M487.7,463.2v-8.3h1.2l2.7,4.2c0.6,1,1.1,1.9,1.5,2.7l0,0c-0.1-1.1-0.1-2.1-0.1-3.4v-3.5h1v8.3h-1.1l-2.6-4.2
		c-0.6-0.9-1.1-1.9-1.6-2.8l0,0c0.1,1.1,0.1,2.1,0.1,3.4v3.6H487.7z"/>
	<path class="st1" d="M503,458.9c0,2.9-1.7,4.4-3.9,4.4c-2.2,0-3.7-1.7-3.7-4.2c0-2.6,1.6-4.4,3.9-4.4
		C501.5,454.7,503,456.4,503,458.9z M496.5,459.1c0,1.8,1,3.4,2.7,3.4c1.7,0,2.7-1.6,2.7-3.5c0-1.7-0.9-3.4-2.7-3.4
		C497.4,455.6,496.5,457.2,496.5,459.1z M499.6,452.9l1.3,1.4H500l-0.8-0.9h0l-0.8,0.9h-0.9l1.3-1.4H499.6z"/>
	<path class="st1" d="M511.4,459.5c-0.1-1.2-0.1-2.6-0.1-3.6h0c-0.3,1-0.6,2-1.1,3.2l-1.5,4h-0.8l-1.3-4c-0.4-1.2-0.7-2.2-1-3.2h0
		c0,1-0.1,2.4-0.2,3.7l-0.2,3.6h-1l0.6-8.3h1.4l1.4,4c0.3,1,0.6,1.9,0.8,2.8h0c0.2-0.8,0.5-1.8,0.9-2.8l1.5-4h1.4l0.5,8.3h-1.1
		L511.4,459.5z"/>
	<path class="st1" d="M515.6,460.5l-0.9,2.6h-1.1l2.8-8.3h1.3l2.8,8.3h-1.1l-0.9-2.6H515.6z M518.3,459.7l-0.8-2.4
		c-0.2-0.5-0.3-1-0.4-1.5h0c-0.1,0.5-0.3,1-0.4,1.5l-0.8,2.4H518.3z"/>
	<path class="st1" d="M528.7,459.5c-0.1-1.2-0.1-2.6-0.1-3.6h0c-0.3,1-0.6,2-1.1,3.2l-1.5,4h-0.8l-1.3-4c-0.4-1.2-0.7-2.2-1-3.2h0
		c0,1-0.1,2.4-0.2,3.7l-0.2,3.6h-1l0.6-8.3h1.4l1.4,4c0.3,1,0.6,1.9,0.8,2.8h0c0.2-0.8,0.5-1.8,0.9-2.8l1.5-4h1.4l0.5,8.3H529
		L528.7,459.5z"/>
	<path class="st1" d="M532.7,454.8v8.3h-1.1v-8.3H532.7z"/>
</g>
<g class="st0">
	<path class="st1" d="M663.7,346.3V338h1.2l2.7,4.2c0.6,1,1.1,1.9,1.5,2.7l0,0c-0.1-1.1-0.1-2.1-0.1-3.4V338h1v8.3h-1.1l-2.6-4.2
		c-0.6-0.9-1.1-1.9-1.6-2.8l0,0c0.1,1.1,0.1,2.1,0.1,3.4v3.6H663.7z"/>
	<path class="st1" d="M672.9,338v8.3h-1.1V338H672.9z"/>
	<path class="st1" d="M674.8,346.3V338h1.2l2.7,4.2c0.6,1,1.1,1.9,1.5,2.7l0,0c-0.1-1.1-0.1-2.1-0.1-3.4V338h1v8.3H680l-2.6-4.2
		c-0.6-0.9-1.1-1.9-1.6-2.8l0,0c0.1,1.1,0.1,2.1,0.1,3.4v3.6H674.8z"/>
	<path class="st1" d="M684.3,343.7l-0.9,2.6h-1.1l2.8-8.3h1.3l2.8,8.3h-1.1l-0.9-2.6H684.3z M687,342.8l-0.8-2.4
		c-0.2-0.5-0.3-1-0.4-1.5h0c-0.1,0.5-0.3,1-0.4,1.5l-0.8,2.4H687z"/>
	<path class="st1" d="M697.5,342.6c-0.1-1.2-0.1-2.6-0.1-3.6h0c-0.3,1-0.6,2-1.1,3.2l-1.5,4H694l-1.3-4c-0.4-1.2-0.7-2.2-1-3.2h0
		c0,1-0.1,2.4-0.2,3.7l-0.2,3.6h-1l0.6-8.3h1.4l1.4,4c0.3,1,0.6,1.9,0.8,2.8h0c0.2-0.8,0.5-1.8,0.9-2.8l1.5-4h1.4l0.5,8.3h-1.1
		L697.5,342.6z"/>
</g>
<g class="st0">
	<path class="st1" d="M590.6,390.8v-3.5l-2.6-4.8h1.2l1.2,2.3c0.3,0.6,0.6,1.1,0.8,1.7h0c0.2-0.5,0.5-1.1,0.8-1.7l1.2-2.3h1.2
		l-2.8,4.8v3.5H590.6z"/>
	<path class="st1" d="M595.8,388.2l-0.9,2.6h-1.1l2.8-8.3h1.3l2.8,8.3h-1.1l-0.9-2.6H595.8z M598.5,387.3l-0.8-2.4
		c-0.2-0.5-0.3-1-0.4-1.5h0c-0.1,0.5-0.3,1-0.4,1.5l-0.8,2.4H598.5z"/>
	<path class="st1" d="M602,390.8v-8.3h1.2l2.7,4.2c0.6,1,1.1,1.9,1.5,2.7l0,0c-0.1-1.1-0.1-2.1-0.1-3.4v-3.5h1v8.3h-1.1l-2.6-4.2
		c-0.6-0.9-1.1-1.9-1.6-2.8l0,0c0.1,1.1,0.1,2.1,0.1,3.4v3.6H602z"/>
	<path class="st1" d="M617.2,386.5c0,2.9-1.7,4.4-3.9,4.4c-2.2,0-3.7-1.7-3.7-4.2c0-2.6,1.6-4.4,3.9-4.4
		C615.8,382.3,617.2,384.1,617.2,386.5z M610.8,386.7c0,1.8,1,3.4,2.7,3.4c1.7,0,2.7-1.6,2.7-3.5c0-1.7-0.9-3.4-2.7-3.4
		C611.7,383.2,610.8,384.8,610.8,386.7z"/>
	<path class="st1" d="M625.7,387.1c-0.1-1.2-0.1-2.6-0.1-3.6h0c-0.3,1-0.6,2-1.1,3.2l-1.5,4h-0.8l-1.3-4c-0.4-1.2-0.7-2.2-1-3.2h0
		c0,1-0.1,2.4-0.2,3.7l-0.2,3.6h-1l0.6-8.3h1.4l1.4,4c0.3,1,0.6,1.9,0.8,2.8h0c0.2-0.8,0.5-1.8,0.9-2.8l1.5-4h1.4l0.5,8.3h-1.1
		L625.7,387.1z"/>
	<path class="st1" d="M629.8,388.2l-0.9,2.6h-1.1l2.8-8.3h1.3l2.8,8.3h-1.1l-0.9-2.6H629.8z M632.5,387.3l-0.8-2.4
		c-0.2-0.5-0.3-1-0.4-1.5h0c-0.1,0.5-0.3,1-0.4,1.5l-0.8,2.4H632.5z"/>
	<path class="st1" d="M640.3,386.9h-3.2v3h3.6v0.9H636v-8.3h4.5v0.9h-3.4v2.6h3.2V386.9z"/>
</g>
<path class="st2" d="M446.4,218.7l-6.8-0.3l-28.8-8.7L357,171.6c0,0-1.2-10.5-0.3-13.8c2.3-8.3,12.6-22.9,18.3-29.5
	c3.4-3.9,10.1-12.6,14.8-14.7c8.2-3.7,26.8-4.1,35.8-3.5c5.3,0.3,15.8,1.7,21,2.6c2.1,0.4,6.2,1.4,8.3,1.8c4,0.8,12.6,0.5,16.1,2.5
	c10,5.7,23.6,25.3,28.8,35.5c4,7.9,11.5,24.2,13.1,32.9c0.9,4.8,0.9,21.6,0.9,21.6l-2.7-4.5l-1.8-0.9l-0.9,4.5l-1.1,2.3l-8-1.4
	l-4.5-0.9l-4.5,3.6l-3.6,4.5l-6.4-11l-3.7-2.6l-4.5-6.2h-2.7l-6.4-2.7l-3.6,0.9l-4.5-1.8h-4.5l-3.2,1.2l-13.1,2.4l-4.5-4.5l-0.7-4
	l-2.6-0.9v-3.5l-4.9-1.6l-1.8,2.7l0.9,3.6l0.5,3.1l2.2,5l4.5,0.9l5.4,6.3l1.8,3.9l3.5,1.1l-1.7,0.9l7.4,3.1l1.4,3.9L446.4,218.7z"/>
<g class="st3">
	<defs>
		<path id="SVGID_9_" class="st3" d="M446.4,218.7l-6.8-0.3l-28.8-8.7L357,171.6c0,0-1.2-10.5-0.3-13.8c2.3-8.3,12.6-22.9,18.3-29.5
			c3.4-3.9,10.1-12.6,14.8-14.7c8.2-3.7,26.8-4.1,35.8-3.5c5.3,0.3,15.8,1.7,21,2.6c2.1,0.4,6.2,1.4,8.3,1.8
			c4,0.8,12.6,0.5,16.1,2.5c10,5.7,23.6,25.3,28.8,35.5c4,7.9,11.5,24.2,13.1,32.9c0.9,4.8,0.9,21.6,0.9,21.6l-2.7-4.5l-1.8-0.9
			l-0.9,4.5l-1.1,2.3l-8-1.4l-4.5-0.9l-4.5,3.6l-3.6,4.5l-6.4-11l-3.7-2.6l-4.5-6.2h-2.7l-6.4-2.7l-3.6,0.9l-4.5-1.8h-4.5l-3.2,1.2
			l-13.1,2.4l-4.5-4.5l-0.7-4l-2.6-0.9v-3.5l-4.9-1.6l-1.8,2.7l0.9,3.6l0.5,3.1l2.2,5l4.5,0.9l5.4,6.3l1.8,3.9l3.5,1.1l-1.7,0.9
			l7.4,3.1l1.4,3.9L446.4,218.7z"/>
	</defs>
	<clipPath id="SVGID_1_">
		<use xlink:href="#SVGID_9_"  style="overflow:visible;"/>
	</clipPath>
	<g transform="matrix(1 0 0 1 0 0)" style="clip-path:url(#SVGID_1_);">
		
			<image style="overflow:visible;" width="480" height="481" xlink:href="padr達o.png"  transform="matrix(0.9421 0 0 0.9347 271.409 99.8346)">
		</image>
	</g>
</g>
<path class="st4" d="M589,432.4c0,0-10.2-5.3-13.1-7.8c-2.3-2-7.9-9.5-7.9-9.5L550.6,396l-17.5-16.5l-24.4-20.8l-9.6-10.4
	c0,0-21.7-17.3-26.2-25.1c-1.8-3.1-2.5-10.3-2.6-13.9c-0.1-2.8,0.8-8.6,0-11.3c-0.7-2.2-3.9-5.8-5.2-7.8c-2-3.1-6.1-9.4-7-13
	c-0.6-2.5-0.1-7.8,0-10.4c0.2-5.6,0-22.5,0-22.5v-6.1c0,0,0.5-4,0-5.2c-1.1-2.7-7.9-8.7-7.9-8.7l-2.6-2.6l-2.6-7.8l-12.2-10.4
	l-5.2-6.9l-4.4-2.3l-4.4-5.5v-9.5h3.5l4.4,2.6l2.6,4.3l4.4,6.9l11.4-2.6l5.2-0.9l8.7,1.7l2.6-0.9l7.9,3.5l2.6-0.9l8.7,10.4l4.4,6.9
	l0.9,1.7l3.5-4.3l5.2-2.6l9.6,1.7l3.5-0.9l-0.9-5.2h4.4l2.6,6.1l5.2,5.2l2.6,1.7l0.9-3.5l3.5,0.9l1.7-4.3v-3.5h5.2l5.2,3.5l6.1,0.9
	l0.9,6.9l2.6,1.7l4.4,0.9l3.5,3.5l2.6,6.1l3.5,3.5c0,0-2.4,5.8-2.6,7.8c-0.5,4.8,2.6,19.1,2.6,19.1L575,299c0,0,11.3,23.5,16.6,30.3
	c3.7,4.7,17.5,16.5,17.5,16.5l10.5,13l11.4,14.7l12.2,12.1l3.5,3.5l0,0v3.5l-10.5,6.9l-6.1,6.9l-3.5-2.6l-5.2,0.9l0.9,5.2l3.5,7.8
	v12.1l-3.5,2.6l-10.5-3.5l-7-10.4L589,432.4z"/>
<g class="st3">
	<defs>
		<path id="SVGID_11_" class="st3" d="M589,432.4c0,0-10.2-5.3-13.1-7.8c-2.3-2-7.9-9.5-7.9-9.5L550.6,396l-17.5-16.5l-24.4-20.8
			l-9.6-10.4c0,0-21.7-17.3-26.2-25.1c-1.8-3.1-2.5-10.3-2.6-13.9c-0.1-2.8,0.8-8.6,0-11.3c-0.7-2.2-3.9-5.8-5.2-7.8
			c-2-3.1-6.1-9.4-7-13c-0.6-2.5-0.1-7.8,0-10.4c0.2-5.6,0-22.5,0-22.5v-6.1c0,0,0.5-4,0-5.2c-1.1-2.7-7.9-8.7-7.9-8.7l-2.6-2.6
			l-2.6-7.8l-12.2-10.4l-5.2-6.9l-4.4-2.3l-4.4-5.5v-9.5h3.5l4.4,2.6l2.6,4.3l4.4,6.9l11.4-2.6l5.2-0.9l8.7,1.7l2.6-0.9l7.9,3.5
			l2.6-0.9l8.7,10.4l4.4,6.9l0.9,1.7l3.5-4.3l5.2-2.6l9.6,1.7l3.5-0.9l-0.9-5.2h4.4l2.6,6.1l5.2,5.2l2.6,1.7l0.9-3.5l3.5,0.9
			l1.7-4.3v-3.5h5.2l5.2,3.5l6.1,0.9l0.9,6.9l2.6,1.7l4.4,0.9l3.5,3.5l2.6,6.1l3.5,3.5c0,0-2.4,5.8-2.6,7.8
			c-0.5,4.8,2.6,19.1,2.6,19.1L575,299c0,0,11.3,23.5,16.6,30.3c3.7,4.7,17.5,16.5,17.5,16.5l10.5,13l11.4,14.7l12.2,12.1l3.5,3.5
			l0,0v3.5l-10.5,6.9l-6.1,6.9l-3.5-2.6l-5.2,0.9l0.9,5.2l3.5,7.8v12.1l-3.5,2.6l-10.5-3.5l-7-10.4L589,432.4z"/>
	</defs>
	<clipPath id="SVGID_2_">
		<use xlink:href="#SVGID_11_"  style="overflow:visible;"/>
	</clipPath>
	<g transform="matrix(1 0 0 1 0 0)" style="clip-path:url(#SVGID_2_);">
		
			<image style="overflow:visible;" width="480" height="481" xlink:href="padr達o.png"  transform="matrix(0.9421 0 0 0.9347 271.409 99.8346)">
		</image>
	</g>
</g>
<path class="st5" d="M646.2,389.5l2.6-4.3l2.6-4.3h7.9l14-8.7v5.2h8.7l1.7-5.2h1.7l1.7-6.9l1.7-3.5l-1.7-1.7l4.4-2.2l-1-8.5
	l-0.7-4.1l-11.4-5.2l2.6,6.1l-1.7,5.6l0.9,7.4h-4.4l-7-2.6l-2.6-1.7l-2.6,1.7h-4.4h-2.2l-2.8-0.4l-3.7,3l-5.5-3.5l-3-2.2l-5.5-8.2
	l1.7-7.8l-1.7-4.3l1.7-5.2h5.2h5.5l0.7-4.3l3.5-3.5h4.4l0.9-2.4l-1-1.7l-2.5-2.8l1.7-2.6v-1.7l-4.4-8.7l-1.7-3.5v-2.6l-4.4-4.3
	l0.9-3l-0.9-2.2v-2.6l-1.4-3l-7.7-11.5l-2.3-5.4l-3.3-1.7h-2.8l-1.7-8.7v-4.3v-1.7l-6.1-4.3v-2.6V237v-3.5h1.7l2.6-1.7l1.4-3.5
	l4-5.4l3.3-3.2l1.7-3.5h0.9v-4.3l-2.3-2l-1.2-4.1l0.9-1.7l-1.8-2.4l0.1-2.8h4.4l1.7-1.7l-1.7-6.1l-2.6-1.7l-5.2,1.7
	c0,0-19.9-11.4-26.2-15.6c-1.8-1.2-5.4-3.7-7-5.2c-2.8-2.5-7.7-8.4-10.4-11.2c-1.1-1.1-3.2-3.5-4.5-4.4c-3.7-2.9-12.1-7.2-16.6-8.7
	c-3.2-1-9.8-1.6-13.1-1.9c-2.1-0.2-6.2-0.3-8.3-0.2c-1.9,0-6-0.7-7.4,0.4c-1.9,1.6-2.8,7.1-2.6,9.5c0.1,1.8,1.4,5.2,1.7,6.9
	c0.5,2.4,0.9,7.4,1.4,9.8c0.2,1.3,0.6,3.8,1.2,4.9c0.6,1.1,2.8,2.4,3.5,3.5c1.9,2.8,3.9,9.3,5.2,12.4c2,4.9,6.1,14.6,7.9,19.5
	c0.7,2,2.3,5.9,2.6,8c0.2,1.5,0,6.1,0,6.1l5.2,5.2l-2.6,7.8c0,0-0.3,9.1,0.4,12.4c1.7,8,8.2,24.3,10.5,32.2c1.2,4,3.2,12.2,4.8,16
	c2.4,5.9,11.9,22.5,11.9,22.5s2.3,6.7,3.7,8.5c3.3,4.1,12.7,10.2,16.4,14c4.2,4.3,15.6,18.5,15.6,18.5l8.3,11L646.2,389.5z"/>
<g class="st3">
	<defs>
		<path id="SVGID_13_" class="st3" d="M648.2,389.5l2.6-4.3l2.6-4.3h7.9l14-8.7v5.2h8.7l1.7-5.2h1.7l1.7-6.9l1.7-3.5l-1.7-1.7
			l4.4-2.2l-1-8.5l-0.7-4.1l-11.4-5.2l2.6,6.1l-1.7,5.6l0.9,7.4h-4.4l-7-2.6l-2.6-1.7l-2.6,1.7h-4.4h-2.2l-2.8-0.4l-3.7,3l-5.5-3.5
			l-3-2.2l-5.5-8.2l1.7-7.8l-1.7-4.3l1.7-5.2h5.2h5.5l0.7-4.3l3.5-3.5h4.4l0.9-2.4l-1-1.7l-2.5-2.8l1.7-2.6v-1.7l-4.4-8.7l-1.7-3.5
			v-2.6l-4.4-4.3l0.9-3l-0.9-2.2v-2.6l-1.4-3l-7.7-11.5l-2.3-5.4l-3.3-1.7h-2.8l-1.7-8.7v-4.3v-1.7l-6.1-4.3v-2.6V237v-3.5h1.7
			l2.6-1.7l1.4-3.5l4-5.4l3.3-3.2l1.7-3.5h0.9v-4.3l-2.3-2l-1.2-4.1l0.9-1.7l-1.8-2.4l0.1-2.8h4.4l1.7-1.7l-1.7-6.1l-2.6-1.7
			l-5.2,1.7c0,0-19.9-11.4-26.2-15.6c-1.8-1.2-5.4-3.7-7-5.2c-2.8-2.5-7.7-8.4-10.4-11.2c-1.1-1.1-3.2-3.5-4.5-4.4
			c-3.7-2.9-12.1-7.2-16.6-8.7c-3.2-1-9.8-1.6-13.1-1.9c-2.1-0.2-6.2-0.3-8.3-0.2c-1.9,0-6-0.7-7.4,0.4c-1.9,1.6-2.8,7.1-2.6,9.5
			c0.1,1.8,1.4,5.2,1.7,6.9c0.5,2.4,0.9,7.4,1.4,9.8c0.2,1.3,0.6,3.8,1.2,4.9c0.6,1.1,2.8,2.4,3.5,3.5c1.9,2.8,3.9,9.3,5.2,12.4
			c2,4.9,6.1,14.6,7.9,19.5c0.7,2,2.3,5.9,2.6,8c0.2,1.5,0,6.1,0,6.1l5.2,5.2l-2.6,7.8c0,0-0.3,9.1,0.4,12.4
			c1.7,8,8.2,24.3,10.5,32.2c1.2,4,3.2,12.2,4.8,16c2.4,5.9,11.9,22.5,11.9,22.5s2.3,6.7,3.7,8.5c3.3,4.1,12.7,10.2,16.4,14
			c4.2,4.3,15.6,18.5,15.6,18.5l8.3,11L648.2,389.5z"/>
	</defs>
	<clipPath id="SVGID_4_">
		<use xlink:href="#SVGID_13_"  style="overflow:visible;"/>
	</clipPath>
	<g transform="matrix(1 0 0 1 0 0)" style="clip-path:url(#SVGID_4_);">
		
			<image style="overflow:visible;" width="480" height="481" xlink:href="padr達o.png"  transform="matrix(0.9421 0 0 0.9347 273.409 99.8346)">
		</image>
	</g>
</g>
<path class="st6" d="M356.8,168.3c-1.7-2.7,30.9,22.5,55.4,40.5c6,4.4,34.5,9.4,34.5,9.4s10.1,10.5,11.3,14.9
	c3.2,11.5-2.7,36.3,1.7,47.6c1.9,4.8,9,12.4,10.5,17.3c1.7,5.6-0.7,18.1,1.7,23.4c4.9,10.6,31,28.8,31,28.8l48.1,44.1l20.9,21.6
	l5.4,6.3l11.5,10v3.5l2.6,5.2v4.3l1.7,2.6v1.7l-7,1.7l-5.2-7.8l-3.5,4.3l-7-10.4l2.6-2.6l-1.7-2.6l-5.2-1.7h-4.4l-4.4-4.3l-4.4-13
	l-4.8-0.7l-6.7-0.3l-3.1,1.7l-3.5,1.4l-2.9-0.4l-9.6,4.3v10.4l-2.6,0.9l-9.6-1.7l-4.4,0.9l-2.6,3.5l-1.1,5.6l-4.1,4.8l-1.5,0.4
	l-2,2.2H492l-3.5-4.3l-27.1,11.3l-1.7,1.7h-14.8l-9.6,5.2h-6.1l-7.9,4.3l-8.4,6.8l-2,3.6l-1.8,5.2l-2.2,3.5l-2.2,1.7l-0.1,11
	l-1,19.2l-2.5,19.2l3.4,2.7l1.8,3.4h-2.6l-0.9,0.9h-11.4l-0.9-5.2l-7-6.1l-0.1-7.5l-1.6-5.5l-0.9-3.5l0.9-2.6l0.9-5.2l-0.3-9.8
	l-0.6-4.9l-6.1,3l-7,1.7l-6.1-0.4l-2.6,0.9h-2.6l-3.5,1.7h-8.7l-1.7,1.7l-5.9,0.2l-2.9-1c0,0-10.5-1.7-12.2,0
	c-1.7,1.7-1.7,0.9-1.7,0.9l-1.5,3.8l-2.8,8.3l-1.7,1.7l-3.1-2.7l-3-3.4h-2.6l-7-2.6l-1.7-2.6l-0.6,0.4l-4.7-3.9v-2.6h-4.4l0.4-6.1
	l-2.2-4.3l0.9-6.9l3.9-3.9l5.2,0.9l6.1-6.1l3.1-8.2l-5.2-2.6c0,0,5.9-6,8.3-7.4c3.8-2.1,13.6-2,16.6-5.2
	c10-10.8,26.1-30.4,33.2-41.6c1.6-2.5,4.1-7.7,5.2-10.4c5-11.6,14.5-35.4,17.5-47.6c2.2-9.1,4.4-39.4,4.4-39.4s0.7-5.5,0.8-7.4
	c0.2-2.2,0.5-6.6,0-8.7c-2.1-9.4-12.8-25.8-16.6-34.7c-1.5-3.5-3.1-11.1-4.4-14.7c-2.3-6.5-10-18.4-11.4-25.1
	C351.5,205.9,356.8,168.3,356.8,168.3z"/>
<g class="st3">
	<defs>
		<path id="SVGID_15_" class="st3" d="M356.8,168.3c-1.7-2.7,30.9,22.5,55.4,40.5c6,4.4,34.5,9.4,34.5,9.4s10.1,10.5,11.3,14.9
			c3.2,11.5-2.7,36.3,1.7,47.6c1.9,4.8,9,12.4,10.5,17.3c1.7,5.6-0.7,18.1,1.7,23.4c4.9,10.6,31,28.8,31,28.8l48.1,44.1l20.9,21.6
			l5.4,6.3l11.5,10v3.5l2.6,5.2v4.3l1.7,2.6v1.7l-7,1.7l-5.2-7.8l-3.5,4.3l-7-10.4l2.6-2.6l-1.7-2.6l-5.2-1.7h-4.4l-4.4-4.3l-4.4-13
			l-4.8-0.7l-6.7-0.3l-3.1,1.7l-3.5,1.4l-2.9-0.4l-9.6,4.3v10.4l-2.6,0.9l-9.6-1.7l-4.4,0.9l-2.6,3.5l-1.1,5.6l-4.1,4.8l-1.5,0.4
			l-2,2.2H492l-3.5-4.3l-27.1,11.3l-1.7,1.7h-14.8l-9.6,5.2h-6.1l-7.9,4.3l-8.4,6.8l-2,3.6l-1.8,5.2l-2.2,3.5l-2.2,1.7l-0.1,11
			l-1,19.2l-2.5,19.2l3.4,2.7l1.8,3.4h-2.6l-0.9,0.9h-11.4l-0.9-5.2l-7-6.1l-0.1-7.5l-1.6-5.5l-0.9-3.5l0.9-2.6l0.9-5.2l-0.3-9.8
			l-0.6-4.9l-6.1,3l-7,1.7l-6.1-0.4l-2.6,0.9h-2.6l-3.5,1.7h-8.7l-1.7,1.7l-5.9,0.2l-2.9-1c0,0-10.5-1.7-12.2,0
			c-1.7,1.7-1.7,0.9-1.7,0.9l-1.5,3.8l-2.8,8.3l-1.7,1.7l-3.1-2.7l-3-3.4h-2.6l-7-2.6l-1.7-2.6l-0.6,0.4l-4.7-3.9v-2.6h-4.4l0.4-6.1
			l-2.2-4.3l0.9-6.9l3.9-3.9l5.2,0.9l6.1-6.1l3.1-8.2l-5.2-2.6c0,0,5.9-6,8.3-7.4c3.8-2.1,13.6-2,16.6-5.2
			c10-10.8,26.1-30.4,33.2-41.6c1.6-2.5,4.1-7.7,5.2-10.4c5-11.6,14.5-35.4,17.5-47.6c2.2-9.1,4.4-39.4,4.4-39.4s0.7-5.5,0.8-7.4
			c0.2-2.2,0.5-6.6,0-8.7c-2.1-9.4-12.8-25.8-16.6-34.7c-1.5-3.5-3.1-11.1-4.4-14.7c-2.3-6.5-10-18.4-11.4-25.1
			C351.5,205.9,356.8,168.3,356.8,168.3z"/>
	</defs>
	<clipPath id="SVGID_5_">
		<use xlink:href="#SVGID_15_"  style="overflow:visible;"/>
	</clipPath>
	<g transform="matrix(1 0 0 1 0 0)" style="clip-path:url(#SVGID_5_);">
		
			<image style="overflow:visible;" width="480" height="481" xlink:href="padr達o.png"  transform="matrix(0.9421 0 0 0.9347 271.409 99.8346)">
		</image>
	</g>
</g>
<path class="st7" d="M80.8,379.8C104,380,128,380,151,380c0,0,1-1,1-2c-1-4-6-5-10-7c-3-1,0-6,1-10c0-3,4-6,8-5c3,8,10,14,17,17
	c2,1,4-2,5-5c3-3,6-6,8-10c1-1,2-1,3-1c4,1,8,4,11,1s2-8,4-11c1-2,4-1,6-1c4-1,4-5,7-6c2,0,5,1,5,4c-1,6-2,14,2,19c11,1,13,12,15,22
	c1,8,8,15,6,23c-1,2-4,4-7.7,2.3c1.1,4.9,5,8.7,5.2,13.9C245,423,254,417,261,423c10,10,20,19,30,29c6,5,14,7,22,6c3-1,5-3,7-6
	c1-1,4,1,6,1c3-1,4-5,6-8c7-5,16-9,25-6c4,1,8,6,5,12c-2,2-5,4-6,6c-1,3,0,8,4,8c5,0,9-3,11-8c1-4,1-9,4-13c3-3,7,2,11,1
	c6-3,4-12,6-17c3-4,7,2,10,0c4-2,7-6,9.3-10.8c0.9,0.6,1.7,1.2,2.6,1.7c1.1-2.7,4-4.1,6-6C419,417,422,421,426,419c3-2,6-3,8-5
	c5-8,10-14,18-17c1,0,3,0,2,3c-1,1-2,2-3,4c-1,1,0,4,2,3c9-2,16-11,22-19c3-6,1-13,2-19c2-9,12-7,19-8c4-1,7-6,11-5c1,0,1,1,2.1,0.8
	c-0.3,1.6-0.1,1.1,0,0C509,356,509,355,510,354c5-4,12-3,17-6c3-2,6-5,6-9c0-5,1-14-5-13c-2,0-3,0-5,0c-3-1-6-3-9-3c-10,0-20-1-30,0
	c-3,0-7-3-6-8c14-13-1-31-11-42c-1-1-1-3-1-5c2-8,11-14,7-23c-3-4-5-8-6-13c-9-9-21-15-30.4-24.4c0.6-0.2,1.1-0.7,1.7-0.9
	C429,201,414,192,420,180c0-1,4,0,6,2c1,2,1,3,3,5c1,1,0,2,1,3c2,2,5,3,8,3c7,0,15-2,22-2c3,0,7,0,10,2c8,5,10,13,15.5,18.9
	c2-4-2.9-3.8,0,0c2-4,6.5-5.3,10.8-5.2c2.9,0.1,6.5,1.4,9.4,0.5c4.1-1.2-1.4-5.6,2.2-7.1c3.5-1.5,6.6,7.9,8.3,9.9
	c2,2.3,6.8,5.4,7.3,0.2c3.7,2.1,4.4-3.6,3.2-5.9C533,203,538,206,543,208c3,7,9,11,14,16c2,2,2,4,3,6c1,1,3,2,5,1c4-2,5-8,10-8
	c2,1,5,3,7,3.9c0-3-2.5-0.8,0,0c1-5.9-3-10.9-4-16.9c3-3,2-7,4-11c3-3,9,1,13,0c1,0,2-2,3.9-0.3c-1.3-1.4-2.4-1.3,0,0
	C598,198,597,198,597,197c-1-3,0-6,3-8c8-5,16,0,23,4c6,3,10-2,15.3-2.7c-0.1-0.3-0.2-0.6-0.3-0.8c0.1,0.3,0.2,0.5,0.3,0.8
	c-0.5-1.9,1.5-2.4,2.9-1.9c1.8,0.6,2.6,2.9,3.2,4.5c4-2.8,7.8-7.1,12.3-8.9c5.3-2,11.3-2,16.3-4c5-3,2-11,8-11c3-1,7,1,10,0
	c5-2,4-5,0.6-9.1c1.2,0.1,0.7,1.5,0,0c1.4,0.1,2.4-0.9,3.4-0.9c8,2,18,6,24.7-0.3c-0.2,0.2-0.4,0.4-0.6,0.6C720,155,721,151,724,149
	c10-6,21-12,22-23c1-7-5-14-10.9-19.5c4.2,0.2,2.2,2.8,0,0c2.9-0.5,4.9-1.5,7.9-0.5c5,2,10,3,15,3c6,1,10-5,16-5c2,0,3,2,5,3
	c6,3,11,7,15,11s1,9,0,13c-1,6-1,12-4,18c-2,2-2,3-3,5c-2,2-5,3-6,5s1,4,3,4c15,0,29,2,43.6,1.3"/>
<polyline class="st7" points="299.4,458 300.4,459.7 302.1,460.5 303.9,461.4 305.6,462.3 304.8,464.9 303.9,467.5 302.1,470.1 
	299.5,473.5 296,476.1 293.4,477 290.8,475.3 289,477.9 287.3,479.6 287.3,482.2 286.4,486.5 288.2,489.1 288.2,492.6 288.2,496.9 
	292.5,496.9 292.5,499.5 294.3,503 297.8,503 299.5,505.6 303,506.5 306.5,508.2 309.1,508.2 310.9,509.9 312.6,512.5 315.2,514.3 
	317,512.5 317.9,509.1 319.6,503 321.3,500.4 323.1,499.5 331.8,499.5 335.3,499.5 338.8,500.4 344,500.4 345.8,498.7 348.4,498.7 
	351.9,498.7 354.5,498.7 358,496.9 360.6,496.9 363.3,496.1 367.6,496.1 370.2,496.1 373.7,495.2 382.5,491.7 382.5,511.7 
	381.6,512.5 381.6,514.3 381.6,516.9 382.5,517.7 383.3,518.6 383.3,521.2 383.3,522.1 383.3,524.7 384.2,526.4 384.2,528.1 
	384.2,530.7 386,531.6 391.2,536.8 392.1,542 397.3,542 403.4,542 404.3,540.2 406.9,541.1 405.2,537.7 401.7,535.1 402.5,529 
	403.4,521.2 404.3,503.9 405.2,485.7 408.7,481.3 409.5,478.7 411.3,475.3 412.2,471.8 421.8,464.9 427,462.3 429.6,460.5 
	435.7,460.5 445.3,455.4 460.2,455.4 461.9,453.6 489,442.4 489.9,444.1 492.5,446.7 495.1,446.7 496,444.1 498.6,444.1 
	501.2,441.5 503,437.2 503.8,433.7 506.5,430.2 510.8,429.4 516.9,430.2 520.4,431.1 523,430.2 523,426.8 523,423.3 523,419.8 
	527.4,418.1 532.7,415.5 536.1,415.5 542.3,412 545.7,412 549.2,412.9 552.7,414.6 552.7,416.4 555.4,421.6 558,426.8 562.3,431.1 
	565,431.1 566.7,431.1 569.3,432.8 571.9,432.8 573.7,436.3 571.1,438 573.7,440.6 578.1,448.4 581.5,444.1 586.8,451.9 590.3,451 
	593.8,450.2 593.8,448.4 592,446.7 591.2,445.8 592,444.1 592,441.5 588.5,436.3 589.4,432.8 592,428.5 600.8,421.6 605.1,418.1 
	610.4,424.2 610.4,429.4 612.1,428.5 613.9,429.4 617.3,432 622.6,432 625.2,432 626.1,432 626.1,430.2 627,430.2 627,420.7 
	626.1,420.7 626.1,418.1 622.6,415.5 622.6,413.8 624.3,412.9 624.3,412 622.6,410.3 622.6,406.8 621.7,405.1 623.5,405.1 
	623.5,404.2 627,404.2 627.8,405.1 629.6,406 630.4,406.8 643.5,394.7 646.2,393 647,389.5 647.9,387.8 648.8,385.2 649.7,384.3 
	651.4,380.8 655.8,380.8 659.3,380.8 667.1,376.5 673.2,372.2 674.1,375.7 674.1,377.4 682,377.4 683.7,376.5 683.7,372.2 
	685.5,372.2 686.3,367 687.2,365.3 688.1,364.4 689,361.8 687.2,360.1 690.7,359.2 691.6,355.7 691.6,351.4 689.8,347.9 
	689.8,345.3 687.2,343.6 678.5,340.1 679.3,342.7 681.1,346.2 679.3,350.5 679.3,353.1 680.2,356.6 680.2,358.3 675.9,359.2 
	673.2,357.5 668,356.6 666.2,354.9 663.6,356.6 661.9,355.7 659.3,355.7 658.4,356.6 655.8,355.7 653.1,356.6 650.5,358.3 
	647.9,357.5 646.2,355.7 642.7,355.7 641.8,352.3 640.1,349.7 636.6,345.3 637.4,341 638.3,337.5 638.3,334.9 637.4,333.2 
	637.4,330.6 638.3,328 640.9,328 643.5,328.9 647.9,328 649.7,326.3 649.7,323.7 653.1,320.2 657.5,320.2 658.4,320.2 658.4,316.7 
	655.8,315 654.9,313.3 656.6,310.7 656.6,308.9 654.9,306.3 652.3,302 652.3,300.3 650.5,296.8 650.5,294.2 647,289.9 647,285.6 
	646.2,284.7 647,283 647,282.1 637.4,269.1 636.6,264.8 634.8,262.2 633.1,260.4 628.7,260.4 627,254.4 627,251.8 626.1,249.2 
	627,247.4 627.8,245.7 625.2,244 620.8,241.4 620,238.8 620.8,237 620,233.6 622.6,233.6 625.2,231.8 625.2,230.1 628.7,225.8 
	632.2,220.6 633.9,219.7 635.7,216.3 636.6,215.4 636.6,211.9 634.8,211.1 633.1,207.6 633.1,205.9 633.9,204.1 631.3,200.7 
	632.2,198.9 636.6,198.9 638.3,197.2 637.4,193.7 636.6,191.1 635.1,189.4 "/>
<g>
	<g class="st8">
		<path class="st9" d="M728.3,532.2c0.1,0.6,0.1,1,0.4,1.3c0.3,0.3,0.5,1.2,0.6,1.3c0.1,0.1,0.2,0.4,0.4,0.7c0.2,0.3,0,0.6,0.6,0.6
			c0.6,0,0.6,0.2,1.1-0.2c0.5-0.3,0.4-0.7,1-0.7c0.6-0.1,1.5-0.3,1.9-0.3s1.5-0.1,1.9-0.1c0.4,0,1.2,0,1.4,0c0.2,0,0.4,0,0.3-0.3
			c-0.1-0.3-0.7-0.3-0.3-0.8c0.3-0.5,0.4-0.7,0.8-0.5c0.5,0.2,0.9,0,1.4,0c0.5,0.1,1.1,0.4,1.3,0.5c0.2,0.1,0.6,0.6,0.7,0.7
			c0.2,0.1,0.5,0.4,0.6,0.4c0.1,0,0.4-0.1,0.5-0.3c0.2-0.1,0.1-0.4,0.5-0.4c0.4,0,0.4,0.1,0.7,0.2c0.2,0.1,0.3,0,0.4-0.2
			c0.1-0.1,0.7-0.5,0.9-0.6c0.2-0.1,0.3,0,0.4-0.3c0.2-0.3,0.2-0.6,0.2-0.7c0.1-0.2,0.1-0.6,0.3-0.8c0.2-0.2,0.5-0.6,0.6-0.7
			c0.1-0.1,0.3-0.3,0.4-0.5c0.1-0.2,0-0.7,0.1-0.8c0.1-0.1,0.2-0.3,0.2-0.4c0.1-0.1,0.2-0.3,0.3-0.3c0.2,0.1,0.4,0.2,0.5,0.3
			c0.1,0.1,0.5,0.5,0.5,0.6c0.1,0.1,0.2,0.3,0.3,0.5c0,0.2,0,0.7,0,0.9c0,0.2,0,0.7,0,0.8c0,0.1,0.4,1.2,0.5,1.3
			c0.1,0.2,0.4,0.8,0.6,0.9c0.2,0.1,0.8,0.7,0.9,0.8c0.1,0.1,0.3,0.6,0.3,0.7s-0.1,0.5-0.2,0.6c-0.1,0.1-0.5,0.3-0.6,0.6
			c0,0.2-0.3,0.6-0.2,0.7c0,0.1-0.4,0.9-0.4,0.9s-0.5,0.3-0.7,0.5c-0.1,0.2-0.8,0.6-0.9,0.8c0,0.2-0.2,0.6-0.1,0.8
			c0.1,0.3-0.2,0.7,0.1,0.7c0.4,0,0.4-0.5,0.7-0.1c0.3,0.4,0.2,0.7,0.3,0.9c0,0.2,0.2,0.6,0.4,0.9c0.2,0.2,0.3,0.5,0.5,0.4
			c0.3-0.1,0.2-0.3,0.6-0.2c0.4,0.1,0.5,0.2,0.9,0.2c0.4,0,0.7,0,1-0.2c0.3-0.2,0.3-0.6,0.7-0.6c0.3,0,0.3,0.2,0.6,0
			c0.3-0.2,0.6-0.4,0.7-0.4c0.2,0,0.2,0,0.2-0.6c0.1-0.6,0.2-1,0.7-1.1c0.5-0.1,0.8-0.2,1.1-0.1s0.4-0.2,0.5-0.2s0.4-0.1,0.6,0
			c0.2,0.1,0.6,0.3,0.8,0.4c0.2,0.1,0.6,0.2,0.8,0.3c0.2,0,0.9,0,1,0.1c0.2,0.1,0.7,0.4,0.8,0.5c0,0.1,0.4,0.4,0.5,0.5
			c0.1,0.1,0.5,0.3,0.6,0.3c0.1,0,0.4-0.2,0.6-0.1c0.2,0.1,0.5,0.3,0.5,0.4c0.1,0.1,0.4,0.5,0.5,0.6c0.1,0.1,0.2,0.5,0.2,0.6
			c0,0.1,0,0.7,0,0.8c0,0.1,0,0.3,0.1,0.3c0.1,0,0.1,0.1,0.3,0c0.1-0.1,0.3-0.3,0.5-0.2c0.2,0.1,0.4,0.2,0.5,0.2
			c0.1,0,0.4-0.1,0.4-0.2c0.1-0.1,0.4-0.2,0.5-0.2c0.1,0,0.1,0.2,0.3-0.1c0.2-0.3,0.3-0.3,0.5-0.3c0.2,0.1,0.8,0.3,1,0.3
			c0.2,0.1,0.7,0.3,0.9,0.4c0.2,0.1,0.7,0.3,0.8,0.4c0.1,0,1.1,0.2,1.3,0.2c0.1,0,0.8,0.1,1,0c0.2,0,1.1-0.3,1.3-0.3
			c0.2,0,1.1,0.2,1.3,0.4c0.3,0.2,0.8,0.5,1.1,0.6c0.3,0.1,1.2,0.7,1.2,0.7s1.6,1.5,1.7,1.6c0.2,0.1,0.8,0.7,0.9,0.7
			c0.1,0.1,1.2,0.9,1.3,1c0.1,0.1,0.4,0.3,0.5,0.4c0.1,0,0.5,0.2,0.6,0.2c0.1,0,1.2,0.2,1.2,0.2s0.4,0.2,0.5,0.2c0.1,0,0.4,0,0.6,0
			c0.2,0,0.7,0,0.8,0.1c0.1,0.1,0.5,0.2,0.7,0.5c0.1,0.3,0.3,0.6,0.4,0.7s0.1,0.7,0.1,1s-0.1,1,0,1.2c0.1,0.3,0.4,1,0.4,1.3
			c0.1,0.3,0,0.8,0,1.1c0,0.3-0.4,0.9-0.5,1.3c-0.1,0.4-0.6,1.2-0.6,1.4c0,0.2-0.2,1-0.2,1.1c0,0.1-0.4,0.7-0.6,0.9
			c-0.1,0.2-0.9,0.8-1.1,1c-0.2,0.2-1.3,1.2-1.4,1.4c-0.1,0.2-1,0.8-1.1,1c-0.1,0.1-0.5,0.7-0.6,0.8c-0.1,0.2-0.6,0.7-0.6,0.8
			c0,0.1-0.1,0.7-0.3,1c-0.2,0.3-0.8,1-0.9,1.2c-0.1,0.1-0.7,0.8-0.7,0.8s-0.2,0.3-0.5,0.1c-0.3-0.2-0.6-0.5-0.7-0.5
			c-0.1,0-0.3-0.1-0.4,0.1c-0.1,0.3-0.2,0.5-0.2,0.7c0,0.2-0.3,0.2-0.4,0.5c-0.1,0.3-0.3,0.9-0.3,1c0,0.2,0,1.4,0,1.6
			c0,0.2-0.2,1-0.2,1.3c0,0.2,0.1,1.5,0.1,1.5s0.2,1.3,0.2,1.4c0,0.2-0.3,0.5-0.4,0.7c-0.1,0.2-0.5,1-0.5,1.1c0,0.1-0.2,1.4-0.2,1.4
			l-0.4,0.7l-0.4,0.4c0,0,0,0.5-0.2,0.6c-0.1,0.1-0.5,0.1-0.4,0.4c0,0.3,0.2,0.7,0.1,1c-0.1,0.4-0.5,1.1-0.6,1.3
			c-0.1,0.2-0.8,1.2-0.8,1.4c0,0.2-0.7,1.2-0.7,1.3c0,0.1-0.6,1.1-0.6,1.1c0,0.1-0.5,0.5-0.5,0.6c0,0.1-0.3,0.9-0.3,1
			c0,0.1-0.4,0.6-0.4,0.7c0,0.1-0.6,0.3-0.7,0.3c-0.1,0-0.7,0-0.7,0.1c0,0.1-0.4,0.9-0.4,0.9s0,0.2-0.2,0.3c-0.2,0-0.7,0.2-1,0.1
			c-0.3-0.1-0.5,0-0.7-0.2c-0.2-0.2-0.3-0.4-0.5-0.5c-0.2-0.1-0.5,0.4-0.5,0.4s0,0.4-0.2,0.4s-0.4-0.2-0.6-0.2c-0.1,0-0.6,0-0.6,0
			s-0.2,0.3-0.3,0.4c-0.1,0-0.4,0-0.5-0.1c0-0.1-0.2-0.4-0.3-0.4c-0.1,0-0.4,0-0.4,0l-0.3,0.5c0,0-0.3,0-0.5,0c-0.2,0-0.4-0.1-0.5,0
			c0,0.1-0.3,0.4-0.4,0.5c0,0.1-0.2,0.2-0.4,0.3c-0.2,0.1-0.9,0.1-0.9,0.1s-0.7,0.2-0.8,0.3c-0.1,0.1-0.5,0.4-0.5,0.5
			c-0.1,0.1-0.8,0.7-0.9,0.8c-0.1,0-1.6,1.1-1.6,1.1s-0.7,0.8-0.8,0.9c-0.1,0.1-0.3,0.2-0.4,0.3c-0.1,0.1-0.8,0.7-0.8,0.8
			c0,0.1-0.2,0.8-0.2,0.8c0,0.1,0,0.3,0,0.4s-0.3,0.7-0.3,0.9c0.1,0.2-0.3,0.6,0,0.8c0.3,0.2,0.4,0.4,0.5,0.5c0.1,0.1,0,0.8,0,0.8
			c0,0-0.4,0.2-0.4,0.3c0,0.1-0.2,0.3-0.2,0.4s-0.1,1.2-0.1,1.2s-0.1,0.3-0.3,0.4c-0.2,0.1-0.7,0.4-0.7,0.4s-0.3,0.2-0.4,0.3
			c-0.2,0.1-0.6,0.4-0.7,0.6c0,0.2-0.7,1-0.7,1.1c0,0.1-0.7,1-0.7,1.1c0,0.1-0.8,1.3-0.8,1.3l-1.2,1.5l-0.5,0.5l-0.4,0.1
			c0,0-0.2-0.1-0.2-0.3c0-0.2,0.1-0.4,0.4-0.5c0.2-0.2,0.5-0.4,0.7-0.5c0.1-0.1,0.4-0.6,0.6-0.8c0.2-0.2,0.5-0.7,0.6-0.9
			c0.2-0.2,0.3-0.6,0.3-0.6s-0.2,0.1-0.3,0.1c-0.1,0-0.3,0.2-0.4,0.1c0-0.1-0.2-0.3-0.3-0.2c-0.1,0.1-0.3,0.4-0.4,0.5
			c0,0.2-0.2,0.5-0.3,0.8c-0.1,0.3,0,0.3-0.3,0.6c-0.4,0.3-0.5,0.1-0.6,0.4c-0.2,0.3-0.3,0.6-0.4,0.7c0,0.2-0.1,0.5,0,0.6
			c0.1,0,0.2,0.3,0.2,0.3c0,0-0.1,0.4-0.2,0.5c-0.1,0.1-1.1,1.5-1.1,1.5s-0.4,0.6-0.5,0.8c-0.1,0.2-0.6,0.8-0.6,0.9
			c0,0.1-0.2,0.2-0.3,0.2c-0.1,0-0.3-0.1-0.3-0.3c0.1-0.2,0.1-0.4,0.2-0.6c0.1-0.2,0.2-0.6,0.4-0.7c0.1-0.1,0.3-0.3,0.4-0.3
			c0.1,0,0.3-0.1,0.3-0.1c0.1,0,0.2-0.3,0.2-0.4c0-0.1,0-0.4,0-0.5c-0.1,0-0.4,0.2-0.5,0.2c-0.1,0.1-0.5,0.3-0.7,0.2
			c-0.2-0.1-0.7-0.4-0.7-0.5c0-0.1-0.3-0.6-0.4-0.7c-0.1-0.2-0.7-0.6-0.8-0.7c-0.1,0-0.9-0.3-1.1-0.4c-0.2-0.1-0.7-0.5-0.7-0.5
			s-0.2-0.5-0.3-0.5c0-0.1-0.2-0.2-0.2-0.2s-0.3,0-0.3,0c0,0-0.2,0.2-0.3,0.2c0,0,0,0.1-0.2,0.1c-0.1-0.1-0.2-0.1-0.3-0.2
			c0,0-0.3-0.6-0.3-0.6c0-0.1-0.3-0.6-0.4-0.6c-0.1-0.1-0.6-0.5-0.6-0.5s-0.5-0.1-0.5-0.1c0,0-0.7,0.1-0.8,0.1c-0.1,0-0.3,0-0.4,0
			c-0.1-0.1-0.1-0.1-0.1-0.2c0-0.1,0.1-0.8,0.2-0.9c0.1-0.1,0.6-0.5,0.7-0.6c0.2-0.1,0.6-0.3,0.6-0.3s0.4-0.2,0.4-0.4
			c0-0.2,0.1-0.6,0.2-0.7c0.1-0.2,0.4-0.5,0.5-0.5c0.1-0.1,0.8-0.9,0.9-1.1c0.2-0.2,0.6-0.9,1-1.1c0.4-0.2,1.2-0.9,1.5-1
			c0.2-0.1,1.1-0.7,1.3-0.9c0.1-0.2,0.4-0.9,0.4-1c0-0.1-0.1-1.2-0.1-1.2l-0.4-0.7l-0.6-0.2c0,0-0.4,0-0.5,0c-0.1,0-0.4,0-0.4-0.3
			c0-0.3,0-0.8,0-0.9c0-0.1,0-0.7,0-0.7s-0.2-0.2-0.2-0.3c0-0.1,0.1-0.2,0.2-0.4c0.1-0.1,0.3-0.4,0.3-0.5c0.1-0.1,0-0.4,0-0.4
			l-0.2-0.3l-0.5,0c0,0-0.1,0.1-0.2,0.1c-0.1,0-0.2-0.1-0.3-0.1c-0.1,0-0.3,0-0.3,0s-0.2,0.2-0.3,0.2c-0.1,0-0.2,0.1-0.3,0
			c-0.2-0.1-0.3-0.1-0.3-0.2c-0.1-0.1-0.3-0.3-0.3-0.7c0-0.4,0-1.5,0-1.6c0-0.1,0-0.8,0-0.8l-0.3-0.7l-0.6-0.2c0,0-0.4-0.1-0.4-0.1
			c0-0.1-0.4-0.3-0.4-0.3s-0.3,0.2-0.3,0.3c0,0.1-0.1,0.3-0.4,0.4c-0.3,0.1-0.8,0-0.8,0c-0.1-0.1-0.7-0.3-0.7-0.3l-0.8,0.2
			c0,0-0.3,0-0.4-0.2c-0.1-0.2-0.2-0.5-0.2-0.8c0-0.3-0.3-1.8-0.3-2.1c0-0.3-0.1-1.5-0.1-1.5s-0.1-0.5,0-0.7
			c0.1-0.2,0.3-0.3,0.4-0.4c0.1-0.1,0.1-0.3,0.1-0.4c0-0.1-0.2-0.3-0.2-0.4s-0.2-0.3-0.2-0.4c0-0.1,0.1-0.2,0.2-0.3
			c0.1-0.1,0.3-0.4,0.3-0.6s-0.1-1.1-0.1-1.1l0.3-0.7l0-0.8l-0.3-1c0,0-0.7-0.3-0.8-0.5c-0.1-0.1-0.3-0.7-0.3-0.9
			c0-0.1-0.2-0.8-0.2-0.8l-0.6-0.3c0,0-1.9,0-2,0c-0.2,0-1.3-0.5-1.3-0.6c0-0.2-0.1-0.7-0.3-1c-0.1-0.3-0.7-0.8-0.7-0.9
			c0-0.1,0-0.9,0.1-1.1c0.1-0.2,0.3-1.1,0.3-1.1s-0.9-1.1-1-1.1c-0.1-0.1-1.2-0.3-1.4-0.3c-0.1,0-1.1,0-1.2-0.1
			c-0.1-0.2-0.9-0.7-0.9-0.7s-1.1-0.1-1.2-0.2c-0.1,0-0.9-0.6-1-0.7c-0.1-0.1-0.8,0-0.9-0.2c-0.1-0.1-0.6-0.6-0.8-0.6
			c-0.1,0-0.6,0.3-0.9,0.1c-0.4-0.2-0.9-0.5-1.1-0.6c-0.1-0.2-0.5-0.6-0.6-0.7c-0.1-0.1-0.3-0.4-0.4-0.5c-0.1-0.1-0.6-0.6-0.6-0.6
			l-0.2-1.2c0,0-0.2-0.3-0.2-0.5c0-0.1-0.1-0.3,0-0.5c0.1-0.2,0.2-0.5,0.2-0.7c0-0.2-0.3-0.7-0.3-0.8c0-0.1-0.6-0.4-0.7-0.3
			s-1,0.3-1,0.3l-0.7,0l-0.6,0.3l-0.4,0.5l-0.4,0.2l-0.8,0.1c0,0-0.5,0.4-0.5,0.5c0,0.1,0,0.4-0.3,0.5c-0.2,0.1-0.8,0.3-0.9,0.4
			c-0.1,0.1-0.6,0.3-0.8,0.3c-0.2,0-1.4-0.3-1.4-0.3l-1.3,0.1l-0.9,0.4c0,0-0.9,0-1-0.3c0-0.3-0.1-1-0.1-1.2c0-0.2-0.3-0.7-0.2-1
			c0.2-0.3,0.3-0.5,0.4-0.7c0-0.1,0-0.7,0-0.7s-0.3,0-0.4,0.1c-0.1,0.1-0.4,0.5-0.6,0.7c-0.1,0.2-0.8,0.6-1,0.8
			c-0.2,0.2-0.7,0.3-1,0.2c-0.3-0.1-0.7,0.1-1-0.3c-0.2-0.4-0.6-0.9-0.6-1c-0.1,0-0.4-0.1-0.6,0c-0.2,0.1-0.5,0.4-0.6,0.3
			c-0.2,0-0.5,0-0.5-0.2c0-0.2,0-0.3,0-0.6c0.1-0.2,0.2-0.8,0.2-0.9s-0.3-0.7-0.4-0.9c-0.1-0.2-0.9-1.1-1-1.2
			c-0.1-0.1-0.5-0.5-0.5-0.6c0-0.1-0.3-0.8-0.2-0.8c0-0.1,0.2-0.2,0.3-0.3c0.1-0.1,0.3-0.5,0.3-0.5s-0.2-0.4-0.2-0.5
			c0-0.1,0.2-0.6,0.2-0.6s0.3-0.3,0.5-0.3c0.3,0,0.6-0.1,0.7-0.2c0-0.1,0.2-0.4,0.1-0.4c0-0.1-0.4-0.5-0.4-0.6
			c0-0.1,0.2-0.9,0.2-0.9l0.4-0.6l0.1-0.6c0,0,0-0.4,0.1-0.5c0.1-0.1,0.7-0.3,0.8-0.3c0.1,0,0.5-0.4,0.5-0.4
			c0.1-0.1,0.4-0.3,0.4-0.3c0.1,0,0.5-0.2,0.5-0.2s0.6-0.3,0.7-0.3c0.1,0,0.7,0.1,0.7,0.1c0.1,0,0.4-0.1,0.5-0.2
			c0.1-0.1,0.3-0.4,0.5-0.5c0.2-0.1,0.4-0.2,0.8-0.1c0.4,0.1,1.1,0.2,1.1,0.2s0.3-0.3,0.3-0.6c0-0.3,0.1-0.9,0.2-1.2
			c0.1-0.3,0.2-1.3,0.3-1.5c0.1-0.2,0.6-2.1,0.6-2.1l0-1.4l0.1-1.2c0,0-0.3-0.5-0.4-0.7c-0.2-0.2-1-1.5-1-1.5c0-0.1,0-0.6,0.1-0.8
			c0.1-0.2,0.3-0.5,0.5-0.5c0.1,0,0.7,0,0.7,0c0,0,0.2,0.1,0.3-0.1c0.1-0.2,0.3-0.3,0.2-0.6c-0.1-0.2-0.2-0.3-0.4-0.4
			c-0.1-0.1-0.5-0.1-0.6-0.2c-0.1-0.1-0.3-0.2-0.3-0.3c0-0.1-0.1-0.3-0.1-0.3c0,0,0.1-0.5,0.2-0.6c0.1-0.1,0.5-0.4,0.6-0.4
			c0.1,0,0.9,0.1,0.9,0.1c0.1,0,0.9,0.2,1,0.2c0.1,0,0.6,0,0.7-0.1c0-0.1,0.2-0.3,0.2-0.4c0.1-0.1,0.2-0.4,0.3-0.4
			c0.1,0,0.3,0.1,0.3,0.2c0.1,0.1,0.4,0.4,0.4,0.4c0.1,0,0.2-0.1,0.3-0.2c0.1-0.1,0.2-0.5,0.2-0.5l0.4,0c0,0,0.2,0.2,0.2,0.3
			c0.1,0.1,0.2,0.2,0.3,0.3c0.1,0,0.4,0.1,0.4,0.2c0,0.1,0.2,0.2,0.2,0.3c0,0.1-0.3,0.5-0.3,0.5l-0.1,0.4c0,0,0.3,0.2,0.4,0.2
			c0.1,0,0.7,0.1,0.8,0.2c0.1,0.1,0.8,0.6,0.9,0.6c0.1,0.1,0.5,0.3,0.7,0.2c0.2-0.1,1.1-0.4,1.2-0.5c0.1-0.1,0.6-0.5,0.7-0.5
			c0.1,0,0.7-0.1,0.7-0.1s0.3-0.4,0.5-0.4c0.2,0,0.8,0,1,0c0.2-0.1,0.5-0.2,0.5-0.6c0-0.3,0.3-1.1,0.3-1.1l1-0.2l0.3-0.2l-0.2-0.5
			c0,0-0.6-0.1-0.7-0.1c-0.1,0-0.7,0.1-0.8,0.1c-0.1,0-0.7-0.2-0.7-0.2l-0.3-1c0,0,0.2-0.5,0.3-0.6c0-0.1,0.3-0.4,0.2-0.5
			c0-0.1-0.6-0.7-0.6-0.7l-0.7-0.4l-0.6-0.4c0,0,0-0.2,0-0.3c0-0.1,0.2-0.3,0.4-0.3c0.2,0,0.5,0.2,0.6,0.3c0.1,0.1,0.3,0.2,0.5,0.2
			c0.2,0,0.6,0.1,0.7,0.1c0.1,0,0.7,0.3,0.8,0.4c0.1,0,0.4,0.2,0.6,0.2c0.2,0,1.1,0,1.2,0c0.1,0,1.3-0.3,1.3-0.3c0.1,0,0.8,0,0.9,0
			c0.1,0,0.9,0,1.1-0.1c0.2-0.1,1-0.5,1.1-0.5c0.2,0,0.6-0.2,0.6-0.2c0.1,0,0.4-0.4,0.5-0.5c0-0.1,0.3-0.6,0.4-0.7
			c0.1-0.1,0.5-0.5,0.5-0.5s0.5,0,0.5,0c0.1,0,0.3,0.3,0.3,0.5c0,0.1,0,0.4,0,0.5c0.1,0.1,0.2,0.3,0.3,0.4c0.1,0,0.5,0.3,0.5,0.4
			c0,0.1,0.1,0.3,0.2,0.4c0,0.1,0.2,0.5,0.2,0.5l0.2,0.3l0,0.3c0,0-0.3,0.4-0.4,0.5c-0.1,0.1-0.6,0.4-0.6,0.5c0,0.1-0.4,0.6-0.4,0.6
			L728.3,532.2z"/>
		<path class="st9" d="M751.3,539.5c0.2,0.1,0.6,0.1,0.8,0.1s0.4,0,0.6-0.1c0.2-0.1,0.3-0.3,0.5-0.2c0.2,0.1,0.3,0.2,0.4,0.2
			c0.1,0,0.4,0,0.6,0c0.2,0,0.5,0,0.6,0.1c0.1,0.1,0.2,0.2,0.2,0.3c0,0.1-0.3,0.4-0.3,0.5c0,0.1,0.1,0.3,0.2,0.4
			c0,0.1-0.1,0.5-0.2,0.6c0,0.1-0.2,0.4-0.2,0.5c0,0.1-0.8,0.5-0.9,0.6c-0.1,0-0.7,0.4-0.8,0.5c-0.1,0-0.9,0.1-1,0.1
			c-0.1,0-0.4-0.2-0.5-0.2c-0.2,0-0.5,0-0.6,0c-0.1,0-0.4,0.2-0.5,0c-0.1-0.2-0.2-0.4-0.3-0.5c0-0.2-0.1-0.6-0.1-0.8
			c0-0.2,0-0.6,0-0.7c0-0.1,0.1-0.5,0.2-0.6c0.1-0.1,0.4-0.3,0.5-0.4c0.1-0.1,0.2-0.3,0.3-0.3c0.1,0,0.3-0.1,0.3-0.1L751.3,539.5z"
			/>
	</g>
	<g>
		<path d="M725.1,540.9l-19.1,0.3l-0.4,0l0-0.4l-0.2-18.9l0-0.5l0.6,0c3.2-0.1,6.4-0.2,9.5-0.2c1.6,0,3.2,0,4.8,0l4.8,0l0.7,0l0,0.7
			l-0.1,4.8c0,1.6-0.1,3.2-0.1,4.8C725.4,534.8,725.2,537.9,725.1,540.9z M725,540.8l-0.4-9.6c-0.1-1.6-0.1-3.1-0.1-4.7l-0.1-4.6
			l0.7,0.7l-4.8,0c-1.6,0-3.2,0-4.8,0c-3.2,0-6.4-0.1-9.5-0.2l0.6-0.6l-0.2,18.9l-0.4-0.4L725,540.8z"/>
	</g>
</g>
<g>
	<path d="M204.5,568.1c-1,1-2.6,1.6-3.9,2.2c-1.6,0.7-3.3,1.4-4.9,2c-1.1,0.4-2.1,0.7-3.2,0.9c0,0,0,0,0,0.1
		c0.2,0.1,0.2,0.3,0.2,0.5c0,0,0,0,0,0.1c-0.3,0.7-1.7,0.2-2.1-0.1c-1.5,0.3-3.1,0.6-4.7,0.7c-0.3,0-2-0.4-1.4-1
		c0.5-0.5,1.1-0.8,1.8-1c0.4-0.1,0.9,0,1.3,0.3c0,0,0.1,0.1,0.1,0.1c0.8-0.1,1.5-0.3,2.3-0.4c0-0.7,0.1-1.5,0.2-2.1
		c0.1-1.3,0.1-2.6,0.3-3.9c0.2-2.8,0.6-5.5,0.9-8.2c0.1-0.6,1.8-0.2,1.7,0.5c-0.1,1-0.2,2.1-0.3,3.2c1.9-1,3.9-2.1,5.7-3.3
		c1-0.7,2.1-1.6,2.7-2.7c0.2-0.5,0.5-1.1,0.3-1.6c-0.2-0.6-1.1-0.4-1.6-0.4c-4.9,0.4-9.6,2.8-12.8,6.5c-0.3,0.4-1.8-0.1-1.4-0.6
		c1.9-2.3,4.3-4.1,7-5.3c2.5-1.1,5.7-2,8.4-1.6c1.1,0.2,2.4,0.9,2.4,2.1c0,1.4-1.1,2.7-2.1,3.5c-1.1,1-2.4,1.7-3.7,2.5
		c-1.2,0.7-2.4,1.3-3.6,2c2.3,0.1,4.5,0,6.8,0.5C202.6,563.8,207,565.6,204.5,568.1z M202.8,565.3c-0.9-0.8-2.3-1-3.4-1.2
		c-2.3-0.3-4.5-0.1-6.8-0.4c0,0.8-0.1,1.5-0.1,2.3c0,1.3,0,2.5-0.1,3.8c0,0.6,0,1.3,0,1.9c3.1-0.9,6.1-2.1,8.9-3.6
		C202.4,567.7,204.1,566.5,202.8,565.3z"/>
	<path d="M220,572.5c-1.8-3.2-5-4.9-8.6-5.4c0,0.3,0,0.6,0,1c0,1.5,0.1,3.4,1.5,4.4c0.9,0.6-0.3,0.9-0.9,0.6
		c-2.5-1.1-2.7-3.7-2.6-6.1c0,0,0,0,0,0c-0.4,0-1.1-0.1-1.2-0.5c-0.2-0.3,0.1-0.5,0.4-0.5c0.4-0.2,0.7-0.4,1.1-0.6c0,0,0,0,0,0
		c0.3-3.1,0.8-6.1,1.4-9.2c0.1-0.5,1.7-0.1,1.6,0.4c-0.5,2.5-0.8,5-1,7.5c1.3-0.8,2.4-1.8,3.5-2.8c1.5-1.5,3-3.3,3.2-5.5
		c0.2-1.5-0.5-3.1-2.2-3c-1.4,0.1-2.8,0.7-4,1.4c-1.2,0.7-2.4,1.6-3.3,2.7c-0.5,0.6-1,1.2-1.3,1.8c-0.3,0.6-0.5,1.7,0.3,2
		c0.2,0.1,0.6,0.3,0.4,0.6c-0.2,0.3-0.8,0.1-1,0c-3.6-1.3,0-5.3,1.6-6.6c2-1.7,4.8-3.1,7.4-2.9c2.7,0.2,4.6,2.3,4,5.1
		c-0.4,2.2-1.9,4-3.5,5.5c-1.6,1.5-3.4,2.9-5.3,3.9c0,0,0,0,0,0.1c4.2,0.6,8.8,2.5,10.4,6.5C222.1,573.2,220.3,572.9,220,572.5z"/>
	<path d="M235.8,562c-0.2,0.5-1.4,0.3-1.7-0.2c-0.1,0-0.1,0-0.2,0.1c-0.2,0.1-0.4,0.2-0.6,0.3c-0.2,0.1-0.5,0.2-0.7,0.3
		c-0.1,2.8-0.6,5.6-1.3,8.3c-0.1,0.5-1.6,0.1-1.5-0.4c0.5-2.4,0.8-4.8,1-7.2c-0.4,0.2-0.9,0.3-1.3,0.5c-1.6,0.5-3.2,1-4.9,1.4
		c-0.3,0.1-0.6,0.1-0.9,0.2c-0.5,3.3-0.2,6.6,0,9.9c0,0.7-1.7,0.3-1.8-0.2c-0.7-3-0.6-6.3-0.2-9.3c-0.6,0-1.1-0.1-1.7-0.3
		c-0.8-0.4-1.4-1.4-0.7-2.1c0.3-0.3,1.6,0.1,1.3,0.5c-0.3,0.3-0.2,0.9,0.3,1c0.3,0.1,0.6-0.1,0.9-0.2c0.4-2.8,1.1-5.9,2.5-8.4
		c1.2-2.2,3.7-3.4,6-1.9c2.2,1.4,2.2,4.3,2.2,6.7c0.3-0.1,0.6-0.2,0.9-0.3C234.4,560.4,236.3,560.9,235.8,562z M231,561.6
		c0-0.6,0-1.1,0-1.7c0-1.4,0-3.2-0.8-4.4c-0.5-0.8-1.2-1.3-2.1-0.9c-0.7,0.3-1.2,0.9-1.6,1.5c-0.8,1.3-1.2,2.9-1.7,4.4
		c-0.3,1.1-0.6,2.3-0.8,3.5c0.2,0,0.3-0.1,0.5-0.1c1.6-0.4,3.2-1,4.8-1.5C229.8,562.1,230.4,561.9,231,561.6z"/>
	<path d="M241,559.2c0.2-1,0.2-2,0.2-2.9c-0.1-0.8-0.1-1.9-0.5-2.5c-1-1.5-2.9,1.4-3.3,2.2c-1.4,2.7-1.7,6.6,1,8.7
		c1.1,0.9,2.6,0.7,3.6,1.7c1.2,1.1,0.1,2.4-0.7,3.4c-0.9,1.1-2,2.3-3.3,3c-0.7,0.3-2.9,0.2-2.6-0.9c0.1-0.4,0.6-0.4,1.1-0.3
		c0.1-0.1,0.2-0.1,0.2-0.2c0.1-0.1,0.2-0.2,0.4-0.3c0.3-0.2,0.6-0.5,0.8-0.7c0.5-0.5,1-1,1.5-1.6c0.3-0.4,1.2-1.3,1-1.9
		c-0.2-0.5-1.3-0.6-1.8-0.7c-2-0.8-3.5-2.6-4.1-4.6c-0.6-2.5,0.2-5.2,1.6-7.2c1.2-1.8,3.5-2.6,5.4-1.3c2,1.3,1.4,4.8,1,6.7
		C242.3,560.1,240.9,559.7,241,559.2z"/>
	<path d="M255,572.3c-1.6,0-3.3-0.1-4.9,0.2c-1.7,0.2-3.1,0.8-4.6,1.6c-0.4,0.2-2.1-0.3-1.6-0.8c1.4-1.2,3.3-1.7,5.3-1.9
		c-0.1-0.1-0.2-0.2-0.2-0.4c0-4.9,0.4-9.8,0.6-14.7c-1.4,0.2-2.8,0.5-4.1,0.9c-0.4,0.1-1.6-0.5-1-0.7c1.6-0.5,3.1-0.9,4.8-1.2
		c1.5-0.2,3.3-0.6,4.9-0.3c0.3,0.1,1.5,0.7,0.6,0.9c-0.7,0.2-1.5,0.1-2.2,0.1c-0.5,0-1,0.1-1.5,0.1c0.1,0.1,0.2,0.2,0.2,0.3
		c0,4.9,0,9.9-0.2,14.8c1.2,0,2.3,0,3.3,0.1c0.3,0,1,0.1,1.1,0.4C255.6,572.1,255.4,572.3,255,572.3z"/>
	<path d="M267.8,573.1c-0.1,0.7-1.7,0.1-1.9-0.4c-0.2-0.8-1.8-0.2-2.4-0.1c-0.8,0.2-1.6,0.4-2.3,0.6c-0.8,0.2-1.6,0.5-2.3,0.8
		c0,0.1,0,0.2-0.1,0.3c-0.1,0.3-0.6,0.3-1,0.2c-0.5,0.2-1.1,0.4-1.6,0.6c-0.4,0.1-1.9-0.3-1.2-0.7c0.6-0.4,1.4-0.8,2.1-1.1
		c-0.1-1.2,0.1-2.5,0.1-3.6c0-1.6,0.1-3.1,0.1-4.7c0.1-3.1,0.2-6.1,0.3-9.2c0-0.5,1.4-0.2,1.4,0.4c0,3,0,6,0,9.1c0,1.6,0,3.1,0,4.7
		c0,0.7,0,1.4,0,2.1c0,0.2,0,0.3,0,0.5c1.2-0.4,2.4-0.7,3.6-0.9c1.1-0.3,2.4-0.6,3.6-0.3C266.9,571.6,267.8,572.2,267.8,573.1z"/>
</g>
<g>
	<path d="M486.2,261.2c-0.2,4.5-1.2,19.3-9.2,15.9c-1.3-0.5-0.4-1.2,0.6-1c3.5,0.8,4.8-5.6,5.3-7.9c0.5-2.6,0.8-5.4,1-8.1
		c-0.9,1.9-2.3,4.4-3.3,4.8c-1.5,0.7-2.7-0.3-3.4-1.7c-0.7-1.6-0.6-3.4-0.6-5.1c0-0.6,2.1-0.3,2.1,0.4c0,1.3,0,2.7,0.4,3.9
		c0.1,0.4,0.2,0.7,0.4,1c0.2,0.2,0.6-0.2,0.8-0.4c1.8-2.2,2.7-5.2,3.6-7.8c0.3-0.7,2.3-0.3,2.3,0.5
		C486.3,257.5,486.3,259.4,486.2,261.2z"/>
	<path d="M497.1,256.9c-1.1,2.6-1.4,5.7-0.8,8.5c0.2,0.9-1.8,0.2-2.1-0.1c-0.8-1-0.6-2.8-0.5-3.9c0,0,0-0.1,0-0.1
		c-1.2,1.3-2.8,2.8-4.2,2.4c-2.1-0.7-1.2-3.4-0.1-4.8c1.2-1.6,3.2-2.3,5.1-1.4c0,0,0,0,0,0c0.2-0.4,0.3-0.7,0.5-1.1
		C495.3,255.5,497.4,256.2,497.1,256.9z M494.1,258.2c-0.1,0-0.2,0-0.3-0.1c-0.8-0.3-2,1.2-2.4,1.8c-0.3,0.4-0.7,1.4-0.7,2.2
		c0.2-0.1,0.4-0.2,0.4-0.3c0.2-0.2,0.5-0.4,0.7-0.6c0.5-0.4,0.9-0.8,1.2-1.3C493.5,259.4,493.8,258.8,494.1,258.2z"/>
	<path d="M509.5,262c-0.3,2.1-2.7,3-4.1,1.6c-0.8-0.8-1.7-2.9-2.2-5.1c-1.6,3.3-1.3,8.2-3.3,7.8c-0.3-0.1-1.2-0.8-1.2-1.2
		c-0.2-2.3-0.3-4.5-0.3-6.8c0-0.6,1.9-0.2,1.9,0.4c0,1,0.1,1.9,0.1,2.9c0.7-2.2,1.7-5.8,2.7-5.9c1.8-0.2,2.2,1.3,2.5,2.7
		c0.7,3.2,2,5,2.6,3.8C508.6,261.5,509.6,261.2,509.5,262z"/>
	<path d="M511.7,264.8c-1.5,0-2.8-1-3.1-2.5c-0.3-1.7,0.4-3.5,1.4-4.9c0.4-0.5,2.1,0.1,1.7,0.7c-0.6,1-1,2.1-1,3.2
		c0,0.6,0,1.1,0.3,1.6c0,0.1,0.1,0.2,0.1,0.3c0.1-0.1,0.4-0.3,0.4-0.4c0.7-0.8,1-2.1,1.1-3.1c0-1-0.5-1.9-0.6-2.9
		c-0.1-0.7,1.4-0.3,1.6,0C515.6,258.9,515.3,264.8,511.7,264.8z"/>
	<path d="M532.1,263.8c-0.5,0-1.1-0.2-1.5-0.6c-0.7-0.8-0.6-1.8-0.6-2.9c0-0.7,0-1.4,0.1-2.1c0-0.1,0-0.1,0-0.2
		c-1.8,1.9-3.9,5.3-4.9,5.3c-1.1,0-1.6-0.9-1.7-1.9c-0.1-1,0.2-1.9,0.3-2.8c-0.7,1.1-2.8,4.9-4.3,4.8c-3.5-0.3-2.6-5.1-2-7.3
		c0.2-0.6,2.8-0.1,2.6,0.6c-0.3,1.3-0.5,2.5-0.5,3.8c0,0.1,0.1,0.6,0.2,1c0.1-0.1,0.2-0.2,0.3-0.3c1.4-1.5,2.1-3.4,3.7-4.8
		c0.5-0.4,1.9-0.1,2.1,0.6c0.3,0.9,0.3,1.7,0.2,2.6c0,0.2-0.1,0.5-0.1,0.8c0.4-0.4,0.8-0.8,1.1-1.2c0.9-1,1.8-2.1,2.7-3.1
		c0.4-0.5,1.5-0.1,1.9,0.3c0.9,0.7,0.6,1.9,0.6,2.9c0,1.2-0.3,3,0.4,4.1C533,263.6,532.5,263.8,532.1,263.8z"/>
	<path d="M543.9,256.9c-1.1,2.6-1.4,5.7-0.8,8.5c0.2,0.9-1.8,0.2-2.1-0.1c-0.8-1-0.6-2.8-0.5-3.9c0,0,0-0.1,0-0.1
		c-1.2,1.3-2.8,2.8-4.2,2.4c-2.1-0.7-1.2-3.4-0.1-4.8c1.2-1.6,3.2-2.3,5.1-1.4c0,0,0,0,0,0c0.2-0.4,0.3-0.7,0.5-1.1
		C542.1,255.5,544.2,256.2,543.9,256.9z M540.9,258.2c-0.1,0-0.2,0-0.3-0.1c-0.8-0.3-2,1.2-2.4,1.8c-0.3,0.4-0.7,1.4-0.7,2.2
		c0.2-0.1,0.4-0.2,0.4-0.3c0.2-0.2,0.5-0.4,0.7-0.6c0.5-0.4,0.9-0.8,1.2-1.3C540.3,259.4,540.6,258.8,540.9,258.2z"/>
	<path d="M555.6,260.2c-2,2.5-4.4,3.7-6.9,3.7c-1.3,0-2.9-0.3-3.8-1.4c-0.9-1-0.6-2.4,0-3.5c1.1-1.8,4.5-4.4,6.5-2.3
		c1,1,0.3,2.3-0.6,3.1c-1.1,0.9-2.4,1.3-3.8,1.2c-0.1,0-0.2,0-0.3,0c-0.1,0.8,0.2,1.5,1.3,1.4c2.8-0.4,5.1-1.8,6.4-2.9
		C554.7,259.3,556,259.7,555.6,260.2z M548,258.8c-0.4,0.3-0.7,0.7-0.9,1.2c0.6-0.1,1.1-0.4,1.6-0.8c0.3-0.3,0.6-0.6,0.8-1
		c0.1-0.1,0.1-0.3,0.1-0.4C548.9,258,548.1,258.7,548,258.8z M550,257.4C550,257.4,550,257.4,550,257.4
		C550,257.4,550,257.4,550,257.4z"/>
</g>
<g>
	<path d="M596.8,302.7c-0.3,2.3-3,3.2-4.4,1.7c-0.8-0.8-1.8-3.1-2.4-5.6c-1.7,3.5-1.4,8.8-3.6,8.5c-0.3-0.1-1.3-0.9-1.3-1.3
		c-0.2-2.4-0.4-4.9-0.3-7.4c0-0.6,2.1-0.2,2.1,0.4c0,1,0.1,2.1,0.2,3.1c0.7-2.4,1.8-6.2,3-6.4c1.9-0.3,2.4,1.4,2.7,3
		c0.8,3.4,2.2,5.4,2.8,4.1C595.8,302.1,596.9,301.8,596.8,302.7z"/>
	<path d="M601.8,303c-0.5,2.3-2.1,3.6-4.1,2.4c-2.5-1.5-1.6-5.7-1.3-8.1c0.1-0.6,1.9-0.2,1.9,0.5c-0.2,1.9-0.5,3.9,0.1,5.7
		c0.9,2.5,2.1,0,2.4-1C601,301.8,602,302.2,601.8,303z M596.8,295c0-0.2,0-0.3,0-0.5c0-0.1,0.1-0.3,0.1-0.4c0-0.2,0.2-0.2,0.4-0.3
		c0.2-0.1,0.5,0,0.7,0c0.2,0.1,0.5,0.2,0.6,0.3c0.1,0.1,0.2,0.3,0.2,0.4c0,0.1-0.1,0.3-0.1,0.4c0,0.2-0.1,0.3-0.2,0.4
		c-0.1,0.1-0.3,0.2-0.5,0.2c-0.2,0-0.3,0-0.5-0.1C597.4,295.5,596.9,295.3,596.8,295z"/>
	<path d="M613.1,302.7c-0.3,2.3-3,3.2-4.4,1.7c-0.8-0.8-1.8-3.1-2.4-5.6c-1.7,3.5-1.4,8.8-3.6,8.5c-0.3-0.1-1.3-0.9-1.3-1.3
		c-0.2-2.4-0.4-4.9-0.3-7.4c0-0.6,2.1-0.2,2.1,0.4c0,1,0.1,2.1,0.2,3.1c0.7-2.4,1.8-6.2,3-6.4c1.9-0.3,2.4,1.4,2.7,3
		c0.8,3.4,2.2,5.4,2.8,4.1C612.1,302.1,613.2,301.8,613.1,302.7z"/>
	<path d="M621.7,297.1c-1.2,2.8-1.6,6.2-0.9,9.2c0.2,1-2,0.2-2.3-0.1c-0.9-1.1-0.7-3-0.5-4.3c0,0,0-0.1,0-0.1
		c-1.3,1.4-3,3.1-4.6,2.6c-2.3-0.7-1.3-3.7-0.2-5.2c1.3-1.7,3.5-2.4,5.5-1.5c0,0,0,0,0,0c0.2-0.4,0.3-0.8,0.5-1.2
		C619.7,295.7,622,296.4,621.7,297.1z M618.5,298.5c-0.1,0-0.3,0-0.4-0.1c-0.9-0.3-2.2,1.3-2.6,1.9c-0.3,0.5-0.8,1.6-0.8,2.4
		c0.2-0.1,0.4-0.3,0.5-0.3c0.3-0.2,0.5-0.4,0.8-0.6c0.5-0.4,0.9-0.9,1.3-1.4C617.7,299.8,618.1,299.2,618.5,298.5z"/>
	<path d="M639.4,304.6c-0.6,0-1.2-0.2-1.6-0.7c-0.8-0.9-0.7-2-0.6-3.1c0-0.8,0-1.5,0.1-2.3c0-0.1,0-0.1,0-0.2
		c-1.9,2-4.2,5.7-5.3,5.8c-1.2,0-1.8-0.9-1.8-2.1c-0.1-1.1,0.2-2.1,0.3-3.1c-0.8,1.2-3.1,5.3-4.6,5.2c-3.8-0.3-2.8-5.5-2.1-7.9
		c0.2-0.7,3-0.1,2.8,0.6c-0.4,1.4-0.6,2.7-0.5,4.2c0,0.1,0.1,0.6,0.2,1c0.1-0.1,0.2-0.2,0.4-0.4c1.5-1.6,2.3-3.7,4-5.1
		c0.6-0.5,2-0.1,2.2,0.6c0.3,0.9,0.3,1.8,0.2,2.8c0,0.3-0.1,0.5-0.1,0.8c0.4-0.4,0.8-0.9,1.2-1.3c1-1.1,2-2.2,2.9-3.4
		c0.5-0.6,1.7-0.1,2.1,0.3c1,0.7,0.7,2.1,0.7,3.1c0,1.3-0.4,3.2,0.4,4.4C640.3,304.4,639.8,304.6,639.4,304.6z"/>
</g>
<g>
	<path d="M540.8,91c-0.3,1.8-1,3.5-1.6,5.2c-0.5,1.6-1.1,3.2-1.6,4.8c-0.5,1.5-1,3.1-1.6,4.6c-0.4,1.1-1.1,2.6-2.3,3.1
		c-1.1,0.4-2.4-0.2-2.7-1.3c-0.2-0.7-0.2-1.6-0.3-2.3c-0.1-0.8-0.2-1.7-0.3-2.5c-0.4-3.5-0.7-7.1-0.9-10.6c0-0.6,1.5-0.3,1.5,0.2
		c0.2,2.9,0.5,5.9,0.8,8.8c0.2,1.5,0.4,2.9,0.6,4.4c0.1,0.4,0.1,0.7,0.2,1.1c0,0.2,0.2,0.6,0.2,0.9c0.1-0.2,0.4-0.4,0.5-0.6
		c0.7-1.1,1.1-2.5,1.5-3.8c0.5-1.4,0.9-2.7,1.4-4.1c0.9-2.7,1.7-5.6,3-8.2C539.5,90.1,540.9,90.4,540.8,91z"/>
	<path d="M551.9,106.9c-1.6,1.1-3.3,2-5.3,1.7c-1.9-0.4-3-1.7-3.4-3.5c-0.3-1.2-0.3-2.5-0.2-3.7c-0.4,0.1-0.8,0.1-1.1,0.2
		c-0.5,0.1-1.8-0.6-0.9-0.8c0.7-0.2,1.4-0.3,2.2-0.5c0.1-0.7,0.2-1.3,0.3-2c0.4-2.3,1.1-4.6,1.9-6.8c0,0,0-0.1,0-0.1
		c-0.8,0.2-1.4,0.7-1.8,1.4c-0.3,0.5-1.8,0.2-1.7-0.5c0.3-1.4,2.1-1.8,3.3-2c1.8-0.2,3.6,0,5.4,0.4c0.2,0,0.8,0.2,0.8,0.5
		c0,0.3-0.4,0.3-0.6,0.3c-1.3-0.2-3.2-0.6-4.8-0.3c0.4,0.1,0.9,0.3,0.8,0.6c-0.9,2.6-1.5,5.3-1.8,8.1c0,0,0.1,0,0.1,0
		c1.3-0.1,2.7-0.4,4-0.1c0.3,0.1,1.4,0.6,0.6,0.8c-1.2,0.3-2.5,0.1-3.7,0.2c-0.3,0-0.7,0.1-1,0.1c0,0.4,0,0.8,0,1.2
		c0,1.5,0,4,1.3,5.1c1.2,1.1,3.3-0.4,4.4-1.1C550.9,105.9,552.4,106.6,551.9,106.9z"/>
	<path d="M563.3,99.8c0,1.8-0.1,3.5-0.3,5.3c-0.1,1-0.2,2.2-0.8,3.1c-0.3,0.4-1.6,0.1-1.8-0.4c-1.2-2.5-2.2-5.1-3.2-7.7
		c-0.3-0.7-0.6-1.4-0.8-2c0,0.6,0.1,1.2,0.1,1.8c0.1,2.3,0.2,5.3-0.9,7.3c-0.3,0.5-1.8,0.2-1.7-0.4c0.2-1.2,0.6-2.3,0.7-3.4
		c0.2-1.3,0.2-2.6,0.2-3.9c0-2.3-0.3-4.6-0.8-6.9c0-0.1-0.1-0.2-0.1-0.2c0-0.1,0-0.1,0-0.2c0,0,0,0,0,0c-0.1-0.5,1.3-0.3,1.4,0.2
		c0,0.1,0,0.1,0,0.2c1.4,2.4,2.3,5.1,3.4,7.6c0.7,1.7,1.5,3.5,2.3,5.2c0-0.3,0.1-0.6,0.1-0.8c0.2-1.7,0.3-3.5,0.3-5.2
		c0.1-3.3-0.2-6.6-0.2-9.9c0-0.5,1.5-0.1,1.6,0.3c0.3,1.5,0.3,3,0.4,4.6C563.3,96,563.3,97.9,563.3,99.8z"/>
	<path d="M577,106.9c-1.6,1.1-3.3,2-5.3,1.7c-1.9-0.4-3-1.7-3.4-3.5c-0.3-1.2-0.3-2.5-0.2-3.7c-0.4,0.1-0.8,0.1-1.1,0.2
		c-0.5,0.1-1.8-0.6-0.9-0.8c0.7-0.2,1.4-0.3,2.2-0.5c0.1-0.7,0.2-1.3,0.3-2c0.4-2.3,1.1-4.6,1.9-6.8c0,0,0-0.1,0-0.1
		c-0.8,0.2-1.4,0.7-1.8,1.4c-0.3,0.5-1.8,0.2-1.7-0.5c0.3-1.4,2.1-1.8,3.3-2c1.8-0.2,3.6,0,5.4,0.4c0.2,0,0.8,0.2,0.8,0.5
		c0,0.3-0.4,0.3-0.6,0.3c-1.3-0.2-3.2-0.6-4.8-0.3c0.4,0.1,0.9,0.3,0.8,0.6c-0.9,2.6-1.5,5.3-1.8,8.1c0,0,0.1,0,0.1,0
		c1.3-0.1,2.7-0.4,4-0.1c0.3,0.1,1.4,0.6,0.6,0.8c-1.2,0.3-2.5,0.1-3.7,0.2c-0.3,0-0.7,0.1-1,0.1c0,0.4,0,0.8,0,1.2
		c0,1.5,0,4,1.3,5.1c1.2,1.1,3.3-0.4,4.4-1.1C575.9,105.9,577.4,106.6,577,106.9z"/>
	<path d="M587.6,107.3c-1.1,0.7-2.6,1-3.8,1.2c-1.1,0.2-2.3,0.6-3.4,0.3c-0.9-0.2-1.6-0.8-1.5-1.8c0.2-1.3,0.9-2.5,1.5-3.6
		c1.3-2.4,3-4.6,4.5-6.9c0.4-0.6,0.8-1.2,1.2-1.8c0.3-0.4,0.9-1.3,0.9-1.8c0-0.1,0.1-0.2,0.1-0.2c-0.2,0-0.5-0.1-0.7-0.1
		c-0.3,0-0.7-0.1-1-0.1c-0.7,0-1.5,0-2.2,0c-0.7,0-1.9-0.9-0.7-1c1.3-0.1,2.7,0,4,0.1c0.9,0.1,2.2,0.2,2.4,1.3
		c0.2,1-0.7,2.1-1.2,2.8c-0.8,1.2-1.6,2.3-2.3,3.5c-1.5,2.2-3.1,4.4-4,6.9c-0.1,0.2-0.6,1.4-0.5,1.6c-0.1,0.1-0.1,0.1,0.3,0
		c0.1,0,0.2,0,0.3-0.1c0.3-0.1,0.7-0.1,1-0.2c1.3-0.3,2.6-0.8,3.9-1.1C586.7,106.3,588.3,106.8,587.6,107.3z"/>
	<path d="M602.5,90.9c-0.3,2.8-0.6,5.6-0.7,8.4c-0.1,1.4-0.1,2.8-0.1,4.1c0,1.4,0.1,2.9-0.1,4.3c-0.1,0.6-1.8,0.2-1.9-0.4
		c-0.2-1.4-0.3-2.8-0.2-4.2c-0.8,1.8-1.8,3.5-3.2,4.7c-1.1,0.9-2.5,1.2-3.8,0.4c-1.3-0.8-1.7-2.2-1.8-3.6c-0.1-3.7,0.4-7.5,0.8-11.2
		c0.1-0.5,1.6-0.2,1.6,0.4c-0.3,3.1-0.5,6.3-0.5,9.5c0,0.8,0,1.7,0.1,2.6c0.1,0.4,0.3,1.5,0.8,1.7c0.8,0.3,2.3-2.1,2.7-2.6
		c2.8-4.3,3.4-9.7,4.4-14.6C600.7,89.7,602.6,90.2,602.5,90.9z"/>
	<path d="M616.8,106.9c-1.6,1.1-3.3,2-5.3,1.7c-1.9-0.4-3-1.7-3.4-3.5c-0.3-1.2-0.3-2.5-0.2-3.7c-0.4,0.1-0.8,0.1-1.1,0.2
		c-0.5,0.1-1.8-0.6-0.9-0.8c0.7-0.2,1.4-0.3,2.2-0.5c0.1-0.7,0.2-1.3,0.3-2c0.4-2.3,1.1-4.6,1.9-6.8c0,0,0-0.1,0-0.1
		c-0.8,0.2-1.4,0.7-1.8,1.4c-0.3,0.5-1.8,0.2-1.7-0.5c0.3-1.4,2.1-1.8,3.3-2c1.8-0.2,3.6,0,5.4,0.4c0.2,0,0.8,0.2,0.8,0.5
		c0,0.3-0.4,0.3-0.6,0.3c-1.3-0.2-3.2-0.6-4.8-0.3c0.4,0.1,0.9,0.3,0.8,0.6c-0.9,2.6-1.5,5.3-1.8,8.1c0,0,0.1,0,0.1,0
		c1.3-0.1,2.7-0.4,4-0.1c0.3,0.1,1.4,0.6,0.6,0.8c-1.2,0.3-2.5,0.1-3.7,0.2c-0.3,0-0.7,0.1-1,0.1c0,0.4,0,0.8,0,1.2
		c0,1.5,0,4,1.3,5.1c1.2,1.1,3.3-0.4,4.4-1.1C615.8,105.9,617.3,106.6,616.8,106.9z"/>
	<path d="M631,109.1c-0.1,0.7-1.7,0.1-1.9-0.4c-0.2-0.8-1.8-0.2-2.4-0.1c-0.8,0.2-1.6,0.4-2.3,0.6c-0.8,0.2-1.6,0.5-2.3,0.8
		c0,0.1,0,0.2-0.1,0.3c-0.1,0.3-0.6,0.3-1,0.2c-0.5,0.2-1.1,0.4-1.6,0.6c-0.4,0.1-1.9-0.3-1.2-0.7c0.6-0.4,1.4-0.8,2.1-1.1
		c-0.1-1.2,0.1-2.5,0.1-3.6c0-1.6,0.1-3.1,0.1-4.7c0.1-3.1,0.2-6.1,0.3-9.2c0-0.5,1.4-0.2,1.4,0.4c0,3,0,6,0,9.1c0,1.6,0,3.1,0,4.7
		c0,0.7,0,1.4,0,2.1c0,0.2,0,0.3,0,0.5c1.2-0.4,2.4-0.7,3.6-0.9c1.1-0.3,2.4-0.6,3.6-0.3C630.1,107.6,631,108.2,631,109.1z"/>
	<path d="M643,98c-0.2,0.5-1.4,0.3-1.7-0.2c-0.1,0-0.1,0-0.2,0.1c-0.2,0.1-0.4,0.2-0.6,0.3c-0.2,0.1-0.5,0.2-0.7,0.3
		c-0.1,2.8-0.6,5.6-1.3,8.3c-0.1,0.5-1.6,0.1-1.5-0.4c0.5-2.4,0.8-4.8,1-7.2c-0.4,0.2-0.9,0.3-1.3,0.5c-1.6,0.5-3.2,1-4.9,1.4
		c-0.3,0.1-0.6,0.1-0.9,0.2c-0.5,3.3-0.2,6.6,0,9.9c0,0.7-1.7,0.3-1.8-0.2c-0.7-3-0.6-6.3-0.2-9.3c-0.6,0-1.1-0.1-1.7-0.3
		c-0.8-0.4-1.4-1.4-0.7-2.1c0.3-0.3,1.6,0.1,1.3,0.5c-0.3,0.3-0.2,0.9,0.3,1c0.3,0.1,0.6-0.1,0.9-0.2c0.4-2.8,1.1-5.9,2.5-8.4
		c1.2-2.2,3.7-3.4,6-1.9c2.2,1.4,2.2,4.3,2.2,6.7c0.3-0.1,0.6-0.2,0.9-0.3C641.6,96.4,643.5,96.9,643,98z M638.2,97.6
		c0-0.6,0-1.1,0-1.7c0-1.4,0-3.2-0.8-4.4c-0.5-0.8-1.2-1.3-2.1-0.9c-0.7,0.3-1.2,0.9-1.6,1.5c-0.8,1.3-1.2,2.9-1.7,4.4
		c-0.3,1.1-0.6,2.3-0.8,3.5c0.2,0,0.3-0.1,0.5-0.1c1.6-0.4,3.2-1,4.8-1.5C637,98.1,637.6,97.8,638.2,97.6z"/>
</g>
<g>
	<g>
		<path d="M399.6,345.6c-0.2,4.8-1.2,20.4-9.7,16.8c-1.3-0.6-0.4-1.3,0.6-1.1c3.7,0.9,5.1-6,5.5-8.4c0.6-2.8,0.9-5.6,1-8.5
			c-0.9,2-2.4,4.6-3.5,5.1c-1.6,0.7-2.9-0.4-3.6-1.8c-0.8-1.6-0.7-3.6-0.6-5.3c0-0.7,2.2-0.3,2.2,0.4c0,1.4,0,2.8,0.4,4.2
			c0.1,0.4,0.2,0.8,0.4,1.1c0.2,0.2,0.7-0.3,0.8-0.5c1.9-2.3,2.8-5.5,3.8-8.2c0.3-0.8,2.4-0.3,2.5,0.5
			C399.7,341.7,399.7,343.7,399.6,345.6z"/>
		<path d="M411.1,341c-1.2,2.7-1.5,6.1-0.8,8.9c0.2,1-1.9,0.2-2.2-0.1c-0.9-1.1-0.7-2.9-0.5-4.2c0,0,0-0.1,0-0.1
			c-1.3,1.4-3,3-4.5,2.5c-2.2-0.7-1.2-3.6-0.2-5c1.3-1.6,3.4-2.4,5.4-1.5c0,0,0,0,0,0c0.2-0.4,0.3-0.8,0.5-1.1
			C409.2,339.6,411.4,340.3,411.1,341z M407.9,342.4c-0.1,0-0.2,0-0.4-0.1c-0.9-0.3-2.1,1.3-2.5,1.9c-0.3,0.4-0.8,1.5-0.8,2.3
			c0.2-0.1,0.4-0.2,0.5-0.3c0.3-0.2,0.5-0.4,0.8-0.6c0.5-0.4,0.9-0.9,1.3-1.4C407.2,343.7,407.6,343.1,407.9,342.4z"/>
		<path d="M424.1,346.5c-0.3,2.2-2.9,3.1-4.3,1.6c-0.8-0.8-1.8-3-2.4-5.4c-1.7,3.5-1.4,8.6-3.5,8.2c-0.3-0.1-1.2-0.8-1.3-1.2
			c-0.2-2.4-0.3-4.8-0.3-7.2c0-0.6,2-0.2,2.1,0.4c0,1,0.1,2,0.2,3c0.7-2.4,1.8-6.1,2.9-6.2c1.9-0.3,2.3,1.4,2.7,2.9
			c0.8,3.3,2.1,5.3,2.7,4C423.1,345.9,424.2,345.7,424.1,346.5z"/>
		<path d="M426.4,349.4c-1.6,0-3-1-3.3-2.6c-0.3-1.8,0.4-3.7,1.5-5.1c0.4-0.5,2.3,0.1,1.8,0.8c-0.7,1-1,2.2-1.1,3.4
			c0,0.6,0,1.2,0.3,1.7c0,0.1,0.1,0.2,0.2,0.3c0.1-0.1,0.4-0.3,0.4-0.4c0.8-0.8,1.1-2.2,1.1-3.3c0-1.1-0.5-2-0.7-3
			c-0.1-0.8,1.5-0.3,1.7,0C430.6,343.2,430.3,349.4,426.4,349.4z"/>
		<path d="M448,348.4c-0.6,0-1.2-0.2-1.6-0.6c-0.8-0.9-0.7-1.9-0.6-3c0-0.8,0-1.5,0.1-2.3c0-0.1,0-0.1,0-0.2c-1.9,2-4.1,5.6-5.2,5.6
			c-1.1,0-1.7-0.9-1.8-2c-0.1-1,0.2-2,0.3-3c-0.8,1.2-3,5.2-4.5,5c-3.7-0.3-2.7-5.4-2.1-7.7c0.2-0.7,2.9-0.1,2.7,0.6
			c-0.4,1.3-0.5,2.7-0.5,4.1c0,0.1,0.1,0.6,0.2,1c0.1-0.1,0.2-0.2,0.4-0.4c1.5-1.6,2.2-3.6,3.9-5c0.5-0.5,2-0.1,2.2,0.6
			c0.3,0.9,0.3,1.8,0.2,2.7c0,0.2-0.1,0.5-0.1,0.8c0.4-0.4,0.8-0.9,1.2-1.3c1-1.1,1.9-2.2,2.8-3.3c0.5-0.5,1.6-0.1,2.1,0.3
			c0.9,0.7,0.7,2,0.7,3.1c0,1.3-0.3,3.2,0.4,4.3C448.9,348.2,448.3,348.4,448,348.4z"/>
		<path d="M460.5,341c-1.2,2.7-1.5,6.1-0.8,8.9c0.2,1-1.9,0.2-2.2-0.1c-0.9-1.1-0.7-2.9-0.5-4.2c0,0,0-0.1,0-0.1
			c-1.3,1.4-3,3-4.5,2.5c-2.2-0.7-1.2-3.6-0.2-5c1.3-1.6,3.4-2.4,5.4-1.5c0,0,0,0,0,0c0.2-0.4,0.3-0.8,0.5-1.1
			C458.5,339.6,460.8,340.3,460.5,341z M457.3,342.4c-0.1,0-0.2,0-0.4-0.1c-0.9-0.3-2.1,1.3-2.5,1.9c-0.3,0.4-0.8,1.5-0.8,2.3
			c0.2-0.1,0.4-0.2,0.5-0.3c0.3-0.2,0.5-0.4,0.8-0.6c0.5-0.4,0.9-0.9,1.3-1.4C456.6,343.7,456.9,343.1,457.3,342.4z"/>
		<path d="M477.7,348.4c-0.6,0-1.2-0.2-1.6-0.6c-0.8-0.9-0.7-1.9-0.6-3c0-0.8,0-1.5,0.1-2.3c0-0.1,0-0.1,0-0.2
			c-1.9,2-4.1,5.6-5.2,5.6c-1.1,0-1.7-0.9-1.8-2c-0.1-1,0.2-2,0.3-3c-0.8,1.2-3,5.2-4.5,5c-3.7-0.3-2.7-5.4-2.1-7.7
			c0.2-0.7,2.9-0.1,2.7,0.6c-0.4,1.3-0.5,2.7-0.5,4.1c0,0.1,0.1,0.6,0.2,1c0.1-0.1,0.2-0.2,0.4-0.4c1.5-1.6,2.2-3.6,3.9-5
			c0.5-0.5,2-0.1,2.2,0.6c0.3,0.9,0.3,1.8,0.2,2.7c0,0.2-0.1,0.5-0.1,0.8c0.4-0.4,0.8-0.9,1.2-1.3c1-1.1,1.9-2.2,2.8-3.3
			c0.5-0.5,1.6-0.1,2.1,0.3c0.9,0.7,0.7,2,0.7,3.1c0,1.3-0.3,3.2,0.4,4.3C478.6,348.2,478,348.4,477.7,348.4z"/>
		<path d="M486.6,346.7c-0.5,2.2-2.1,3.5-4,2.3c-2.5-1.5-1.6-5.6-1.3-7.9c0.1-0.6,1.9-0.2,1.8,0.5c-0.2,1.8-0.5,3.8,0.1,5.6
			c0.9,2.4,2,0,2.4-1C485.9,345.7,486.8,346,486.6,346.7z M481.8,339c0-0.2,0-0.3,0-0.5c0-0.1,0.1-0.3,0.1-0.4
			c0-0.2,0.2-0.2,0.4-0.3c0.2-0.1,0.5,0,0.7,0c0.2,0.1,0.5,0.2,0.6,0.3c0.1,0.1,0.2,0.3,0.2,0.4c0,0.1-0.1,0.3-0.1,0.4
			c0,0.2-0.1,0.3-0.2,0.4c-0.1,0.1-0.3,0.1-0.5,0.1c-0.1,0-0.3,0-0.4-0.1C482.3,339.4,481.8,339.3,481.8,339z"/>
	</g>
	<g>
		<path class="st10" d="M429.7,338.7c0,0.1,0,0.2-0.1,0.2c-0.1,0-0.2,0-0.3,0c-0.1,0-0.2,0-0.3-0.1c-0.1,0-0.2-0.1-0.2-0.1
			c-0.3-0.3-0.6-0.6-0.9-1c-0.3-0.4-0.5-0.7-0.7-1.1c-0.1-0.2-0.2-0.3-0.3-0.5c-0.1-0.2-0.2-0.3-0.3-0.5c-0.1,0.1-0.2,0.2-0.3,0.3
			c-0.1,0.1-0.2,0.2-0.4,0.3c-0.3,0.2-0.5,0.4-0.7,0.7c-0.1,0.1-0.2,0.2-0.3,0.4c-0.1,0.2-0.2,0.3-0.2,0.4c0,0.1-0.1,0.2-0.2,0.2
			c-0.1,0-0.2,0-0.4,0c-0.1,0-0.3-0.1-0.4-0.1c-0.1-0.1-0.2-0.1-0.2-0.2l-0.1-0.1c0,0,0-0.1,0-0.2c0.1-0.3,0.3-0.6,0.5-0.8
			c0.2-0.3,0.4-0.5,0.7-0.7c0.3-0.2,0.6-0.4,0.8-0.6c0.3-0.2,0.5-0.5,0.7-0.8c0.1-0.1,0.2-0.2,0.3-0.2c0.1,0,0.2,0,0.4,0
			c0.1,0,0.3,0.1,0.4,0.1c0.1,0.1,0.2,0.1,0.3,0.2c0.2,0.3,0.4,0.7,0.6,1.1c0.2,0.4,0.4,0.7,0.6,1.1c0.2,0.3,0.4,0.6,0.6,1
			C429.4,338,429.6,338.3,429.7,338.7z"/>
	</g>
</g>
<g>
	<g>
		<path d="M398.7,158.7c-0.6-0.1-1.9-1.2-0.7-1.5c1.4-0.3,2-1.4,1.7-2.8c-0.2-1.2-1.1-2.1-1.7-3.1c-0.8-1.6-0.8-3.3,1-4.2
			c0.6-0.3,2.5,0.5,1.7,1c-1.4,0.8-0.3,2.8,0.3,3.6c0.7,1,1.5,2,1.8,3.2C403.3,157.6,401.1,159.3,398.7,158.7z"/>
		<path d="M415.3,145.9c-1.3,3.1-1.7,7-1,10.3c0.3,1.1-2.2,0.3-2.5-0.1c-1-1.2-0.8-3.3-0.6-4.8c0,0,0-0.1,0-0.1
			c-1.5,1.6-3.4,3.4-5.1,2.9c-2.5-0.8-1.4-4.2-0.2-5.8c1.5-1.9,3.9-2.7,6.2-1.7c0,0,0,0,0,0c0.2-0.4,0.4-0.9,0.6-1.3
			C413.1,144.3,415.7,145.1,415.3,145.9z M411.7,147.5c-0.1,0-0.3,0-0.4-0.1c-1-0.4-2.5,1.5-2.9,2.1c-0.3,0.5-0.9,1.7-0.9,2.7
			c0.2-0.1,0.5-0.3,0.5-0.3c0.3-0.2,0.6-0.4,0.9-0.7c0.5-0.5,1-1,1.5-1.6C410.9,149,411.3,148.3,411.7,147.5z"/>
		<path d="M430.3,152.2c-0.4,2.6-3.3,3.6-5,1.9c-0.9-0.9-2-3.5-2.7-6.2c-1.9,4-1.6,9.9-4,9.5c-0.4-0.1-1.4-1-1.5-1.4
			c-0.3-2.7-0.4-5.5-0.4-8.3c0-0.7,2.3-0.3,2.4,0.5c0,1.2,0.1,2.3,0.2,3.5c0.8-2.7,2-7,3.3-7.1c2.1-0.3,2.7,1.6,3.1,3.3
			c0.9,3.8,2.5,6,3.1,4.6C429.2,151.5,430.5,151.2,430.3,152.2z"/>
		<path d="M433,155.5c-1.8,0-3.4-1.2-3.7-3c-0.4-2.1,0.5-4.2,1.7-5.9c0.5-0.6,2.6,0.1,2.1,0.9c-0.7,1.2-1.2,2.5-1.2,3.9
			c0,0.7,0,1.4,0.3,2c0,0.1,0.1,0.2,0.2,0.3c0.1-0.1,0.4-0.4,0.5-0.4c0.9-1,1.3-2.5,1.3-3.8c0-1.3-0.6-2.3-0.8-3.5
			c-0.1-0.9,1.7-0.3,2,0C437.7,148.4,437.4,155.5,433,155.5z"/>
		<path d="M457.7,154.4c-0.7,0-1.4-0.2-1.8-0.7c-0.9-1-0.7-2.2-0.7-3.5c0-0.9,0-1.7,0.1-2.6c0-0.1,0-0.1,0-0.2
			c-2.2,2.3-4.7,6.4-5.9,6.5c-1.3,0-2-1-2.1-2.3c-0.1-1.2,0.2-2.3,0.4-3.4c-0.9,1.3-3.4,5.9-5.2,5.8c-4.3-0.3-3.1-6.2-2.4-8.8
			c0.2-0.8,3.4-0.1,3.2,0.7c-0.4,1.5-0.6,3.1-0.6,4.7c0,0.1,0.1,0.7,0.2,1.2c0.1-0.1,0.3-0.3,0.4-0.4c1.7-1.8,2.6-4.2,4.4-5.8
			c0.6-0.5,2.3-0.1,2.5,0.7c0.3,1,0.3,2.1,0.2,3.1c0,0.3-0.1,0.6-0.1,0.9c0.5-0.5,0.9-1,1.4-1.5c1.1-1.2,2.2-2.5,3.3-3.8
			c0.5-0.6,1.9-0.1,2.4,0.3c1.1,0.8,0.8,2.3,0.8,3.5c0,1.5-0.4,3.6,0.4,4.9C458.8,154.1,458.2,154.4,457.7,154.4z"/>
		<path d="M472.1,145.9c-1.3,3.1-1.7,7-1,10.3c0.3,1.1-2.2,0.3-2.5-0.1c-1-1.2-0.8-3.3-0.6-4.8c0,0,0-0.1,0-0.1
			c-1.5,1.6-3.4,3.4-5.1,2.9c-2.5-0.8-1.4-4.2-0.2-5.8c1.5-1.9,3.9-2.7,6.2-1.7c0,0,0,0,0,0c0.2-0.4,0.4-0.9,0.6-1.3
			C469.9,144.3,472.4,145.1,472.1,145.9z M468.4,147.5c-0.1,0-0.3,0-0.4-0.1c-1-0.4-2.5,1.5-2.9,2.1c-0.3,0.5-0.9,1.7-0.9,2.7
			c0.2-0.1,0.5-0.3,0.5-0.3c0.3-0.2,0.6-0.4,0.9-0.7c0.5-0.5,1-1,1.5-1.6C467.6,149,468,148.3,468.4,147.5z"/>
	</g>
	<g>
		<path d="M429.7,142.5c0-0.7,0.6-1.3,1.3-1.3s1.2,0.5,1.2,1.3c0,0.7-0.5,1.3-1.2,1.3C430.2,143.7,429.7,143.1,429.7,142.5z
			 M434.3,142.5c0-0.7,0.5-1.3,1.2-1.3s1.2,0.5,1.2,1.3c0,0.7-0.5,1.3-1.2,1.3C434.8,143.7,434.3,143.1,434.3,142.5z"/>
	</g>
</g>
</svg>
