<?xml version="1.0" encoding="utf-8"?>
<!-- Generator: Adobe Illustrator 22.0.1, SVG Export Plug-In . SVG Version: 6.00 Build 0)  -->
<svg version="1.1" id="Camada_1" xmlns="http://www.w3.org/2000/svg" xmlns:xlink="http://www.w3.org/1999/xlink" x="0px" y="0px"
	 viewBox="0 0 861.4 621.4" style="enable-background:new 0 0 861.4 621.4;" xml:space="preserve">
<style type="text/css">
	.st0{display:none;}
	.st1{display:inline;}
	.st2{fill:#B42F91;}
	.st3{fill:#C20079;}
	.st4{fill:#AF0089;}
	.st5{fill:#A0005E;}
	.st6{opacity:0.15;}
	.st7{fill:none;stroke:#000000;stroke-width:2.8346;stroke-miterlimit:10;}
	.st8{opacity:0.96;}
	.st9{fill-rule:evenodd;clip-rule:evenodd;fill:#A0005E;}
	.st10{stroke:#000000;stroke-miterlimit:10;}
</style>
<g class="st0">
	<path class="st1" d="M632.9,574.1c1.2-0.2,2.9-0.4,4.5-0.4c2.5,0,4.2,0.5,5.3,1.5c0.9,0.8,1.4,2.1,1.4,3.5c0,2.4-1.5,4-3.5,4.7v0.1
		c1.4,0.5,2.3,1.8,2.7,3.7c0.6,2.6,1,4.3,1.4,5h-2.4c-0.3-0.5-0.7-2.1-1.2-4.4c-0.5-2.5-1.5-3.5-3.7-3.6h-2.2v7.9h-2.4V574.1z
		 M635.2,582.5h2.4c2.5,0,4.1-1.4,4.1-3.5c0-2.4-1.7-3.4-4.2-3.4c-1.1,0-2,0.1-2.3,0.2V582.5z"/>
	<path class="st1" d="M663.3,582.9c0,6.3-3.8,9.7-8.5,9.7c-4.8,0-8.2-3.8-8.2-9.3c0-5.8,3.6-9.6,8.5-9.6
		C660,573.6,663.3,577.4,663.3,582.9z M649,583.2c0,3.9,2.1,7.4,5.8,7.4c3.8,0,5.9-3.5,5.9-7.6c0-3.6-1.9-7.5-5.8-7.5
		C651,575.5,649,579.1,649,583.2z"/>
	<path class="st1" d="M666.3,574.1c1.2-0.2,2.9-0.4,4.5-0.4c2.5,0,4.2,0.5,5.3,1.5c0.9,0.8,1.4,2.1,1.4,3.5c0,2.4-1.5,4-3.5,4.7v0.1
		c1.4,0.5,2.3,1.8,2.7,3.7c0.6,2.6,1,4.3,1.4,5h-2.4c-0.3-0.5-0.7-2.1-1.2-4.4c-0.5-2.5-1.5-3.5-3.7-3.6h-2.2v7.9h-2.4V574.1z
		 M668.7,582.5h2.4c2.5,0,4.1-1.4,4.1-3.5c0-2.4-1.7-3.4-4.2-3.4c-1.1,0-2,0.1-2.3,0.2V582.5z"/>
	<path class="st1" d="M684.1,586.5l-1.9,5.8h-2.4l6.2-18.3h2.9l6.3,18.3h-2.5l-2-5.8H684.1z M690.1,584.6l-1.8-5.3
		c-0.4-1.2-0.7-2.3-1-3.3h-0.1c-0.3,1.1-0.6,2.2-0.9,3.3l-1.8,5.3H690.1z"/>
	<path class="st1" d="M700.1,573.9v18.3h-2.4v-18.3H700.1z"/>
	<path class="st1" d="M719.7,584.2c-0.1-2.6-0.3-5.6-0.3-7.9h-0.1c-0.6,2.1-1.4,4.4-2.3,7l-3.2,8.9H712l-3-8.7
		c-0.9-2.6-1.6-4.9-2.1-7.1h-0.1c-0.1,2.3-0.2,5.4-0.4,8.1l-0.5,7.9h-2.3l1.3-18.3h3l3.1,8.9c0.8,2.3,1.4,4.3,1.8,6.2h0.1
		c0.5-1.8,1.1-3.9,1.9-6.2l3.3-8.9h3l1.1,18.3h-2.3L719.7,584.2z"/>
	<path class="st1" d="M728.8,586.5l-1.9,5.8h-2.4l6.2-18.3h2.9l6.3,18.3h-2.5l-2-5.8H728.8z M734.8,584.6l-1.8-5.3
		c-0.4-1.2-0.7-2.3-1-3.3H732c-0.3,1.1-0.6,2.2-0.9,3.3l-1.8,5.3H734.8z"/>
</g>
<g class="st0">
	<path class="st1" d="M317.3,316.9l-5.3-16.2h2.3l2.5,8c0.7,2.2,1.3,4.2,1.7,6h0c0.5-1.9,1.1-3.9,1.8-6l2.7-8h2.2l-5.8,16.2H317.3z"
		/>
	<path class="st1" d="M335.5,309.3h-6.3v5.8h7v1.8h-9.1v-16.2h8.7v1.8h-6.6v5.1h6.3V309.3z"/>
	<path class="st1" d="M339,316.9v-16.2h2.3l5.2,8.2c1.2,1.9,2.1,3.6,2.9,5.3l0,0c-0.2-2.2-0.2-4.1-0.2-6.6v-6.8h2v16.2H349l-5.1-8.2
		c-1.1-1.8-2.2-3.6-3-5.4l-0.1,0c0.1,2,0.2,4,0.2,6.7v6.9H339z"/>
	<path class="st1" d="M363.1,309.3h-6.3v5.8h7v1.8h-9.1v-16.2h8.7v1.8h-6.6v5.1h6.3V309.3z"/>
	<path class="st1" d="M365.5,315.7l9-13.1v-0.1h-8.2v-1.8h10.9v1.3l-8.9,13.1v0.1h9v1.8h-11.8V315.7z"/>
	<path class="st1" d="M381.9,300.7v9.6c0,3.6,1.6,5.2,3.8,5.2c2.4,0,3.9-1.6,3.9-5.2v-9.6h2.1v9.4c0,5-2.6,7-6.1,7
		c-3.3,0-5.8-1.9-5.8-6.9v-9.5H381.9z"/>
	<path class="st1" d="M403.7,309.3h-6.3v5.8h7v1.8h-9.1v-16.2h8.7v1.8h-6.6v5.1h6.3V309.3z"/>
	<path class="st1" d="M407.2,300.7h2.1v14.4h6.9v1.8h-9V300.7z"/>
	<path class="st1" d="M421.1,311.8l-1.7,5.1h-2.2l5.5-16.2h2.5l5.5,16.2h-2.2l-1.7-5.1H421.1z M426.4,310.2l-1.6-4.7
		c-0.4-1.1-0.6-2-0.8-3h0c-0.2,1-0.5,1.9-0.8,2.9l-1.6,4.7H426.4z"/>
</g>
<g class="st0">
	<path class="st1" d="M510.2,229c0.5,0.3,1.2,0.5,1.9,0.5c1.1,0,1.7-0.6,1.7-1.4c0-0.8-0.4-1.2-1.6-1.7c-1.4-0.5-2.2-1.2-2.2-2.4
		c0-1.3,1.1-2.3,2.7-2.3c0.9,0,1.5,0.2,1.8,0.4l-0.3,0.9c-0.3-0.1-0.8-0.4-1.6-0.4c-1.1,0-1.6,0.7-1.6,1.2c0,0.8,0.5,1.2,1.7,1.6
		c1.4,0.5,2.1,1.2,2.1,2.4c0,1.3-1,2.4-2.9,2.4c-0.8,0-1.7-0.2-2.1-0.5L510.2,229z"/>
	<path class="st1" d="M517.8,227.7l-0.9,2.6h-1.1l2.8-8.3h1.3l2.8,8.3h-1.1l-0.9-2.6H517.8z M520.5,226.9l-0.8-2.4
		c-0.2-0.5-0.3-1-0.4-1.5h0c-0.1,0.5-0.3,1-0.4,1.5l-0.8,2.4H520.5z"/>
	<path class="st1" d="M524,230.3V222h1.2l2.7,4.2c0.6,1,1.1,1.9,1.5,2.7l0,0c-0.1-1.1-0.1-2.1-0.1-3.4V222h1v8.3h-1.1l-2.6-4.2
		c-0.6-0.9-1.1-1.9-1.6-2.8l0,0c0.1,1.1,0.1,2.1,0.1,3.4v3.6H524z"/>
	<path class="st1" d="M539.3,226.1c0,2.9-1.7,4.4-3.9,4.4c-2.2,0-3.7-1.7-3.7-4.2c0-2.6,1.6-4.4,3.9-4.4
		C537.8,221.9,539.3,223.6,539.3,226.1z M532.8,226.2c0,1.8,1,3.4,2.7,3.4c1.7,0,2.7-1.6,2.7-3.5c0-1.7-0.9-3.4-2.7-3.4
		C533.7,222.7,532.8,224.4,532.8,226.2z M533.7,220.8c0-0.3,0.3-0.6,0.6-0.6s0.6,0.3,0.6,0.6s-0.2,0.6-0.6,0.6
		C534,221.4,533.7,221.1,533.7,220.8z M536,220.8c0-0.3,0.3-0.6,0.6-0.6c0.3,0,0.6,0.3,0.6,0.6s-0.2,0.6-0.6,0.6
		C536.3,221.4,536,221.1,536,220.8z"/>
	<path class="st1" d="M547.7,226.7c-0.1-1.2-0.1-2.6-0.1-3.6h0c-0.3,1-0.6,2-1.1,3.2l-1.5,4h-0.8l-1.3-4c-0.4-1.2-0.7-2.2-1-3.2h0
		c0,1-0.1,2.4-0.2,3.7l-0.2,3.6h-1l0.6-8.3h1.4l1.4,4c0.3,1,0.6,1.9,0.8,2.8h0c0.2-0.8,0.5-1.8,0.9-2.8l1.5-4h1.4l0.5,8.3h-1.1
		L547.7,226.7z"/>
	<path class="st1" d="M551.8,227.7l-0.9,2.6h-1.1l2.8-8.3h1.3l2.8,8.3h-1.1l-0.9-2.6H551.8z M554.6,226.9l-0.8-2.4
		c-0.2-0.5-0.3-1-0.4-1.5h0c-0.1,0.5-0.3,1-0.4,1.5l-0.8,2.4H554.6z"/>
</g>
<g class="st0">
	<path class="st1" d="M509.6,463.2v-3.5l-2.6-4.8h1.2l1.2,2.3c0.3,0.6,0.6,1.1,0.8,1.7h0c0.2-0.5,0.5-1.1,0.8-1.7l1.2-2.3h1.2
		l-2.8,4.8v3.5H509.6z"/>
	<path class="st1" d="M514.8,460.5l-0.9,2.6h-1.1l2.8-8.3h1.3l2.8,8.3h-1.1l-0.9-2.6H514.8z M517.5,459.7l-0.8-2.4
		c-0.2-0.5-0.3-1-0.4-1.5h0c-0.1,0.5-0.3,1-0.4,1.5l-0.8,2.4H517.5z"/>
	<path class="st1" d="M521,463.2v-8.3h1.2l2.7,4.2c0.6,1,1.1,1.9,1.5,2.7l0,0c-0.1-1.1-0.1-2.1-0.1-3.4v-3.5h1v8.3h-1.1l-2.6-4.2
		c-0.6-0.9-1.1-1.9-1.6-2.8l0,0c0.1,1.1,0.1,2.1,0.1,3.4v3.6H521z"/>
	<path class="st1" d="M536.3,458.9c0,2.9-1.7,4.4-3.9,4.4c-2.2,0-3.7-1.7-3.7-4.2c0-2.6,1.6-4.4,3.9-4.4
		C534.8,454.7,536.3,456.4,536.3,458.9z M529.8,459.1c0,1.8,1,3.4,2.7,3.4c1.7,0,2.7-1.6,2.7-3.5c0-1.7-0.9-3.4-2.7-3.4
		C530.7,455.6,529.8,457.2,529.8,459.1z M532.9,452.9l1.3,1.4h-0.9l-0.8-0.9h0l-0.8,0.9h-0.9l1.3-1.4H532.9z"/>
	<path class="st1" d="M544.7,459.5c-0.1-1.2-0.1-2.6-0.1-3.6h0c-0.3,1-0.6,2-1.1,3.2l-1.5,4h-0.8l-1.3-4c-0.4-1.2-0.7-2.2-1-3.2h0
		c0,1-0.1,2.4-0.2,3.7l-0.2,3.6h-1l0.6-8.3h1.4l1.4,4c0.3,1,0.6,1.9,0.8,2.8h0c0.2-0.8,0.5-1.8,0.9-2.8l1.5-4h1.4l0.5,8.3h-1.1
		L544.7,459.5z"/>
	<path class="st1" d="M548.8,460.5l-0.9,2.6h-1.1l2.8-8.3h1.3l2.8,8.3h-1.1l-0.9-2.6H548.8z M551.5,459.7l-0.8-2.4
		c-0.2-0.5-0.3-1-0.4-1.5h0c-0.1,0.5-0.3,1-0.4,1.5l-0.8,2.4H551.5z"/>
	<path class="st1" d="M562,459.5c-0.1-1.2-0.1-2.6-0.1-3.6h0c-0.3,1-0.6,2-1.1,3.2l-1.5,4h-0.8l-1.3-4c-0.4-1.2-0.7-2.2-1-3.2h0
		c0,1-0.1,2.4-0.2,3.7l-0.2,3.6h-1l0.6-8.3h1.4l1.4,4c0.3,1,0.6,1.9,0.8,2.8h0c0.2-0.8,0.5-1.8,0.9-2.8l1.5-4h1.4l0.5,8.3h-1.1
		L562,459.5z"/>
	<path class="st1" d="M566,454.8v8.3h-1.1v-8.3H566z"/>
</g>
<g class="st0">
	<path class="st1" d="M697,346.3V338h1.2l2.7,4.2c0.6,1,1.1,1.9,1.5,2.7l0,0c-0.1-1.1-0.1-2.1-0.1-3.4V338h1v8.3h-1.1l-2.6-4.2
		c-0.6-0.9-1.1-1.9-1.6-2.8l0,0c0.1,1.1,0.1,2.1,0.1,3.4v3.6H697z"/>
	<path class="st1" d="M706.2,338v8.3h-1.1V338H706.2z"/>
	<path class="st1" d="M708.1,346.3V338h1.2l2.7,4.2c0.6,1,1.1,1.9,1.5,2.7l0,0c-0.1-1.1-0.1-2.1-0.1-3.4V338h1v8.3h-1.1l-2.6-4.2
		c-0.6-0.9-1.1-1.9-1.6-2.8l0,0c0.1,1.1,0.1,2.1,0.1,3.4v3.6H708.1z"/>
	<path class="st1" d="M717.6,343.7l-0.9,2.6h-1.1l2.8-8.3h1.3l2.8,8.3h-1.1l-0.9-2.6H717.6z M720.3,342.8l-0.8-2.4
		c-0.2-0.5-0.3-1-0.4-1.5h0c-0.1,0.5-0.3,1-0.4,1.5l-0.8,2.4H720.3z"/>
	<path class="st1" d="M730.8,342.6c-0.1-1.2-0.1-2.6-0.1-3.6h0c-0.3,1-0.6,2-1.1,3.2l-1.5,4h-0.8l-1.3-4c-0.4-1.2-0.7-2.2-1-3.2h0
		c0,1-0.1,2.4-0.2,3.7l-0.2,3.6h-1l0.6-8.3h1.4l1.4,4c0.3,1,0.6,1.9,0.8,2.8h0c0.2-0.8,0.5-1.8,0.9-2.8l1.5-4h1.4l0.5,8.3H731
		L730.8,342.6z"/>
</g>
<g class="st0">
	<path class="st1" d="M623.9,390.8v-3.5l-2.6-4.8h1.2l1.2,2.3c0.3,0.6,0.6,1.1,0.8,1.7h0c0.2-0.5,0.5-1.1,0.8-1.7l1.2-2.3h1.2
		l-2.8,4.8v3.5H623.9z"/>
	<path class="st1" d="M629,388.2l-0.9,2.6h-1.1l2.8-8.3h1.3l2.8,8.3h-1.1l-0.9-2.6H629z M631.8,387.3l-0.8-2.4
		c-0.2-0.5-0.3-1-0.4-1.5h0c-0.1,0.5-0.3,1-0.4,1.5l-0.8,2.4H631.8z"/>
	<path class="st1" d="M635.3,390.8v-8.3h1.2l2.7,4.2c0.6,1,1.1,1.9,1.5,2.7l0,0c-0.1-1.1-0.1-2.1-0.1-3.4v-3.5h1v8.3h-1.1l-2.6-4.2
		c-0.6-0.9-1.1-1.9-1.6-2.8l0,0c0.1,1.1,0.1,2.1,0.1,3.4v3.6H635.3z"/>
	<path class="st1" d="M650.5,386.5c0,2.9-1.7,4.4-3.9,4.4c-2.2,0-3.7-1.7-3.7-4.2c0-2.6,1.6-4.4,3.9-4.4
		C649,382.3,650.5,384.1,650.5,386.5z M644,386.7c0,1.8,1,3.4,2.7,3.4c1.7,0,2.7-1.6,2.7-3.5c0-1.7-0.9-3.4-2.7-3.4
		C644.9,383.2,644,384.8,644,386.7z"/>
	<path class="st1" d="M658.9,387.1c-0.1-1.2-0.1-2.6-0.1-3.6h0c-0.3,1-0.6,2-1.1,3.2l-1.5,4h-0.8l-1.3-4c-0.4-1.2-0.7-2.2-1-3.2h0
		c0,1-0.1,2.4-0.2,3.7l-0.2,3.6h-1l0.6-8.3h1.4l1.4,4c0.3,1,0.6,1.9,0.8,2.8h0c0.2-0.8,0.5-1.8,0.9-2.8l1.5-4h1.4l0.5,8.3h-1.1
		L658.9,387.1z"/>
	<path class="st1" d="M663.1,388.2l-0.9,2.6h-1.1l2.8-8.3h1.3l2.8,8.3h-1.1l-0.9-2.6H663.1z M665.8,387.3l-0.8-2.4
		c-0.2-0.5-0.3-1-0.4-1.5h0c-0.1,0.5-0.3,1-0.4,1.5l-0.8,2.4H665.8z"/>
	<path class="st1" d="M673.6,386.9h-3.2v3h3.6v0.9h-4.7v-8.3h4.5v0.9h-3.4v2.6h3.2V386.9z"/>
</g>
<path class="st2" d="M448.1,199.9l-7.5-0.3l-31.7-9.6l-59.3-42.3c0,0-1.3-11.7-0.3-15.4c2.5-9.3,13.9-25.4,20.2-32.7
	c3.8-4.4,11.1-13.9,16.3-16.3c9-4.1,29.5-4.5,39.4-3.8c5.8,0.4,17.4,1.8,23.1,2.9c2.3,0.4,6.9,1.6,9.2,2c4.4,0.9,13.8,0.6,17.7,2.8
	c11,6.3,26,28.1,31.7,39.4c4.4,8.8,12.6,26.9,14.4,36.5c1,5.3,1,23.9,1,23.9l-3-5l-2-1l-1,5l-1.2,2.6l-8.8-1.6l-5-1l-5,4l-4,5
	l-7-12.2l-4-2.9l-4.9-6.9h-3l-7-3l-4,1l-5-2h-5l-3.6,1.3l-14.4,2.7l-5-5l-0.7-4.4l-2.9-1v-3.8l-5.4-1.8l-2,3l1,4l0.6,3.4l2.4,5.6
	l5,1l6,7l2,4.4l3.8,1.3l-1.9,1l8.1,3.4l1.5,4.3L448.1,199.9z"/>
<path class="st3" d="M605.1,437.1c0,0-11.2-5.9-14.4-8.7c-2.6-2.2-8.7-10.6-8.7-10.6l-19.2-21.2l-19.2-18.3l-26.9-23.1l-10.6-11.5
	c0,0-23.9-19.2-28.8-27.9c-1.9-3.4-2.7-11.5-2.9-15.4c-0.1-3.1,0.9-9.5,0-12.5c-0.8-2.5-4.3-6.5-5.8-8.7c-2.2-3.4-6.7-10.5-7.7-14.4
	c-0.7-2.8-0.1-8.7,0-11.5c0.2-6.2,0-25,0-25v-6.7c0,0,0.5-4.4,0-5.8c-1.2-3-8.7-9.6-8.7-9.6l-2.9-2.9l-2.9-8.7L433,183.3l-5.8-7.7
	l-4.8-2.6l-4.8-6.1v-10.6h3.8l4.8,2.9l2.9,4.8l4.8,7.7l12.5-2.9l5.8-1l9.6,1.9l2.9-1l8.7,3.8l2.9-1l9.6,11.5l4.8,7.7l1,1.9l3.8-4.8
	l5.8-2.9l10.6,1.9l3.8-1l-1-5.8h4.8l2.9,6.7l5.8,5.8l2.9,1.9l1-3.8l3.8,1l1.9-4.8v-3.8h5.8l5.8,3.8l6.7,1l1,7.7l2.9,1.9l4.8,1
	l3.8,3.8l2.9,6.7l3.8,3.8c0,0-2.7,6.4-2.9,8.7c-0.5,5.3,2.9,21.2,2.9,21.2l14.4,46.2c0,0,12.4,26.1,18.3,33.7
	c4,5.3,19.2,18.3,19.2,18.3l11.5,14.4l12.5,16.3l13.5,13.5l3.8,3.8l0,0v3.8l-11.5,7.7l-6.7,7.7l-3.8-2.9l-5.8,1l1,5.8l3.8,8.7v13.5
	l-3.8,2.9l-11.5-3.8l-7.7-11.5L605.1,437.1z"/>
<path class="st4" d="M668.1,389.5l2.9-4.8l2.9-4.8h8.7l15.4-9.6v5.8h9.6l1.9-5.8h1.9l1.9-7.7l1.9-3.8l-1.9-1.9l4.8-2.4L717,345
	l-0.8-4.5l-12.5-5.8l2.9,6.7l-1.9,6.2l1,8.2h-4.8l-7.7-2.9l-2.9-1.9l-2.9,1.9h-4.8h-2.4l-3.1-0.4l-4.1,3.3l-6-3.8l-3.3-2.5l-6.1-9
	l1.9-8.7l-1.9-4.8l1.9-5.8h5.8h6l0.7-4.8l3.8-3.8h4.8l1-2.6l-1.1-1.9l-2.7-3.1l1.9-2.9v-1.9l-4.8-9.6l-1.9-3.8v-2.9l-4.8-4.8l1-3.4
	l-1-2.4v-2.9l-1.5-3.4l-8.4-12.7l-2.6-6l-3.6-1.9h-3.1l-1.9-9.6v-4.8v-1.9l-6.7-4.8v-2.9v-1.9v-3.8h1.9l2.9-1.9l1.6-3.9l4.4-6
	l3.6-3.5l1.9-3.8h1v-4.8l-2.5-2.2l-1.3-4.5l1-1.9l-2-2.7l0.1-3.1h4.8l1.9-1.9l-1.9-6.7l-2.9-1.9l-5.8,1.9c0,0-21.9-12.6-28.8-17.3
	c-2-1.3-5.9-4.2-7.7-5.8c-3.1-2.8-8.5-9.3-11.4-12.4c-1.2-1.3-3.6-3.9-4.9-4.9c-4.1-3.2-13.4-8-18.3-9.6c-3.5-1.1-10.8-1.8-14.4-2.1
	c-2.3-0.2-6.8-0.3-9.1-0.3c-2,0-6.6-0.8-8.2,0.5c-2.1,1.7-3.1,7.8-2.9,10.6c0.2,2,1.5,5.7,1.9,7.7c0.5,2.7,1,8.2,1.5,10.9
	c0.3,1.4,0.7,4.3,1.4,5.5c0.7,1.2,3.1,2.7,3.8,3.8c2.1,3.1,4.3,10.3,5.7,13.7c2.2,5.4,6.7,16.2,8.7,21.6c0.8,2.2,2.5,6.6,2.8,8.9
	c0.3,1.7,0,6.7,0,6.7l5.8,5.8l-2.9,8.7c0,0-0.3,10.2,0.5,13.8c1.9,8.9,9,27,11.6,35.7c1.3,4.5,3.5,13.5,5.2,17.8
	c2.6,6.5,13.1,25,13.1,25s2.5,7.5,4.1,9.4c3.7,4.6,13.9,11.3,18,15.6c4.7,4.8,17.1,20.5,17.1,20.5l9.2,12.2L668.1,389.5z"/>
<path class="st5" d="M349.4,144c-1.9-3,34,25,61,45c6.6,4.9,38,10.5,38,10.5s11.1,11.7,12.5,16.5c3.5,12.7-3,40.3,1.9,52.9
	c2.1,5.3,9.9,13.8,11.5,19.2c1.9,6.2-0.8,20,1.9,26c1.6,3.6,8.2,7.9,13.2,12c11.5,9.3,25,18,25,18l49,51l23,24l6,7l12.7,11.1v3.8
	l2.9,5.8v4.8l1.9,2.9v1.9l-7.7,1.9l-5.8-8.7l-3.8,4.8l-7.7-11.5l2.9-2.9l-1.9-2.9l-5.8-1.9h-4.8l-4.8-4.8l-4.8-14.4l-5.3-0.7
	l-7.4-0.3l-3.4,1.9l-3.8,1.5l-3.2-0.5l-10.6,4.8v11.5l-2.9,1l-10.6-1.9l-4.8,1l-2.9,3.8l-1.2,6.2l-4.5,5.4l-1.6,0.5l-2.2,2.4h-2.9
	l-3.8-4.8l-29.8,12.5l-1.9,1.9h-16.3l-10.6,5.8h-6.7l-8.7,4.8l-9.3,7.6l-2.2,3.9L407,490l-2.4,3.8l-2.4,1.9l-0.1,12.2l-1,21.3
	l-2.7,21.3l3.8,2.9l2,3.8h-2.9l-1,1h-12.5l-1-5.8l-7.7-6.7l-0.2-8.3l-1.8-6.1l-1-3.8l1-2.9l1-5.8l-0.3-10.9l-0.6-5.4l-6.8,3.4
	l-7.7,1.9l-6.7-0.5l-2.9,1h-2.9l-3.8,1.9h-9.6l-1.9,1.9l-6.5,0.2l-3.2-1.2c0,0-11.5-1.9-13.5,0s-1.9,1-1.9,1l-1.7,4.2l-3.1,9.2
	l-1.9,1.9l-3.4-3l-3.3-3.8h-2.9l-7.7-2.9L284,515l-0.6,0.5l-5.1-4.3v-2.9h-4.8l0.5-6.7l-2.4-4.8l1-7.7l4.3-4.3l5.8,1l6.7-6.7
	l3.4-9.1l-5.8-2.9c0,0,6.5-6.7,9.1-8.2c4.2-2.4,15-2.2,18.3-5.8c11.1-12,28.7-33.7,36.5-46.2c1.7-2.7,4.5-8.6,5.8-11.5
	c5.6-12.9,16-39.2,19.2-52.9c2.4-10.1,4.9-43.7,4.9-43.7s0.7-6.1,0.9-8.2c0.2-2.4,0.5-7.3,0-9.6c-2.3-10.4-14.1-28.7-18.3-38.5
	c-1.7-3.9-3.4-12.3-4.8-16.3c-2.5-7.2-11-20.4-12.5-27.9C343.6,185.8,349.4,144,349.4,144z"/>
<g class="st6">
	<defs>
		<path id="SVGID_1_" class="st6" d="M522.4,187c0,0,0-18.6-1-23.9c-1.8-9.7-10-27.8-14.4-36.5c-5.7-11.3-20.7-33.1-31.7-39.4
			c-3.9-2.2-13.3-1.9-17.7-2.8c-2.3-0.4-6.9-1.6-9.2-2c-5.7-1-17.3-2.5-23.1-2.9c-9.9-0.7-30.4-0.3-39.4,3.8
			c-5.3,2.4-12.6,12-16.3,16.3c-6.3,7.2-17.7,23.4-20.2,32.7c-1,3.7,0.3,15.4,0.3,15.4l-0.2-3.7c0,0-5.8,41.8-3.4,54.2
			c1.5,7.5,10,20.7,12.5,27.9c1.4,4,3.1,12.4,4.8,16.3c4.2,9.8,15.9,28.1,18.3,38.5c0.5,2.3,0.2,7.2,0,9.6c-0.2,2.1-0.9,8.2-0.9,8.2
			s-2.5,33.6-4.9,43.7c-3.2,13.6-13.7,40-19.2,52.9c-1.3,3-4.1,8.8-5.8,11.5c-7.8,12.5-25.5,34.1-36.5,46.2
			c-3.2,3.5-14.1,3.4-18.3,5.8c-2.7,1.5-9.1,8.2-9.1,8.2l5.8,2.9l-3.4,9.1l-6.7,6.7l-5.8-1l-4.3,4.3l-1,7.7l2.4,4.8l-0.5,6.7h4.8
			v2.9l5.1,4.3l0.6-0.5l1.9,2.9l7.7,2.9h2.9l3.3,3.8l3.4,3l1.9-1.9l3.1-9.2l1.7-4.2c0,0,0,1,1.9-1s13.5,0,13.5,0l3.2,1.2l6.5-0.2
			l1.9-1.9h9.6l3.8-1.9h2.9l2.9-1l6.7,0.5l7.7-1.9l6.8-3.4l0.6,5.4l0.3,10.9l-1,5.8l-1,2.9l1,3.8l1.8,6.1l0.2,8.3l7.7,6.7l1,5.8
			h12.5l1-1h2.9l-2-3.8l-3.8-2.9l2.7-21.3l1-21.3l0.1-12.2l2.4-1.9l2.4-3.8l1.9-5.8l2.2-3.9l9.3-7.6l8.7-4.8h6.7l10.6-5.8h16.3
			l1.9-1.9l29.8-12.5l3.8,4.8h2.9l2.2-2.4l1.6-0.5l4.5-5.4l1.2-6.2l2.9-3.8l4.8-1l10.6,1.9l2.9-1v-11.5l10.6-4.8l3.2,0.5l3.8-1.5
			l3.4-1.9l7.4,0.3l5.3,0.7l4.8,14.4l4.8,4.8h4.8l5.8,1.9l1.9,2.9l-2.9,2.9l7.7,11.5l3.8-4.8l5.8,8.7l7.7-1.9v-1.9l-1.9-2.9v-4.8
			l-2.9-5.8v-3.8l17.3-15.4l7.7,11.5l11.5,3.8l3.8-2.9v-13.5l-3.8-8.7l-1-5.8l5.8-1l3.8,2.9l6.7-7.7l11.5-7.7V389l0,0l-0.5,0.5
			l2.9-4.8l2.9-4.8h8.7l15.4-9.6v5.8h9.6l1.9-5.8h1.9l1.9-7.7l1.9-3.8l-1.9-1.9l4.8-2.4L717,345l-0.8-4.5l-12.5-5.8l2.9,6.7
			l-1.9,6.2l1,8.2h-4.8l-7.7-2.9l-2.9-1.9l-2.9,1.9h-4.8h-2.4l-3.1-0.4l-4.1,3.3l-6-3.8l-3.3-2.5l-6.1-9l1.9-8.7l-1.9-4.8l1.9-5.8
			h5.8h6l0.7-4.8l3.8-3.8h4.8l1-2.6l-1.1-1.9l-2.7-3.1l1.9-2.9v-1.9l-4.8-9.6l-1.9-3.8v-2.9l-4.8-4.8l1-3.4l-1-2.4v-2.9l-1.5-3.4
			l-8.4-12.7l-2.6-6l-3.6-1.9h-3.1l-1.9-9.6v-4.8v-1.9l-6.7-4.8v-2.9v-1.9v-3.8h1.9l2.9-1.9l1.6-3.9l4.4-6l3.6-3.5l1.9-3.8h1v-4.8
			l-2.5-2.2l-1.3-4.5l1-1.9l-2-2.7l0.1-3.1h4.8l1.9-1.9l-1.9-6.7l-2.9-1.9l-5.8,1.9c0,0-21.9-12.6-28.8-17.3c-2-1.3-5.9-4.2-7.7-5.8
			c-3.1-2.8-8.5-9.3-11.4-12.4c-1.2-1.3-3.6-3.9-4.9-4.9c-4.1-3.2-13.4-8-18.3-9.6c-3.5-1.1-10.8-1.8-14.4-2.1
			c-2.3-0.2-6.8-0.3-9.1-0.3c-2,0-6.6-0.8-8.2,0.5c-2.1,1.7-3.1,7.8-2.9,10.6c0.2,2,1.5,5.7,1.9,7.7c0.5,2.7,1,8.2,1.5,10.9
			c0.3,1.4,0.7,4.3,1.4,5.5c0.7,1.2,3.1,2.7,3.8,3.8c2.1,3.1,4.3,10.3,5.7,13.7c2.2,5.4,6.7,16.2,8.7,21.6c0.8,2.2,2.5,6.6,2.8,8.9
			c0.3,1.7,0,6.7,0,6.7l2.4,2.4l-2.9-6.7l-3.8-3.8l-4.8-1l-2.9-1.9l-1-7.7l-6.7-1l-5.8-3.8h-5.8v3.8l-1.9,4.8l-3.8-1l-1,3.8
			l-2.9-1.9l-5.8-5.8"/>
	</defs>
	<clipPath id="SVGID_2_">
		<use xlink:href="#SVGID_1_"  style="overflow:visible;"/>
	</clipPath>
	<g style="clip-path:url(#SVGID_2_);">
		<image style="overflow:visible;" width="480" height="481" xlink:href="padrão.png"  transform="matrix(1 0 0 1 238.4074 78)">
		</image>
	</g>
</g>
<path class="st7" d="M11.9,378.5c25-12,89,12,111.9,0.5c0.1-0.5,0.6-0.6,0.6-1c-0.1-3.1-3.8-5.9-7-8c-1.1-0.8-3.4,1.4-4.1,0.3
	c-3.7-5.5,1-18.9,7.7-18.3c3.9,0.4,2.8,5,5.3,7.4c2.2,2,3.1,1.9,7.1,5.7c2.6,2.4,3.5,4.5,3.9,5.3c2.8,5.4,10.6-0.5,9.1-5.3
	c2-1,4-1,5-2c1.9-3.8,3.8-6.7,5.7-9.6c1.1-0.2,1.8-0.4,2.9-0.6c5.2,3.2,9.3,4.3,13.3-0.8c2-4,0-9,4-11h5c4-1,5-9,11-5
	c2,1,2.8,4.1,0.5,6.5c1,1-1.5,11.5,2.5,16.5c2,2,6,2,9,3c2,2,3.5,4.5,5,7l-1,1c4.5,4.5,3,10,4,15c2,8,9,15,7,24c-1,4-4,5-8.1,3.6
	c1.2,5.4,5.6,9.7,5.8,15.4c6.5-2,12.7-2,17.8-5.3c1.2,0.1,2.3,0.2,3.5,0.3c13,12,24,24,38,36c8,7,18,8,28,5c1,0,2-4,4-5c3,0,7,2,9-2
	s4-7,8-9c5-2,9-1,14-4c4-3,10-1,13,3c5,6,2,14-5,17c0,4-1,8,4,9c10,1,14-10,15-19c1-5,7-7,12-3c9,0,7-12,9-18c0-1,1-2,2-2
	c3,0,5,0,7,3c6-2,9-9,12-13.7l2.9,1.9c1.1-2.8,4.6-4.7,6.6-6.7c0,2,1,8,5.5,6.5c5.1-1.7,11-5,13-10c4-7,10-12,17-14c1,0,3,0,2,3
	c0,2-2,3-3,4c-1,2-1,3,2,5h2c9-9,21-15,24-28c1-8-2-16,4-22c6-4,14,0,20-3c3-2,6-7,11.7-3.1c0-0.2,0-0.5,0.1-0.7
	c0,0.2,0,0.5-0.1,0.7c0.2-8,10.4-7.3,16-8.7c9.6-2.4,11.1-11.1,9.7-19.8c-0.3-1.7-0.4-6-1.7-7.2c-1.7-1.5-3.6-1.1-4.6,1.8
	c-4-1-7-2-11-4c-2-1-5,0-8,0c-10-2-19-1-29-1c-2,0-5-2-6-4c0-6,6-9,7-15c0-2,0-5-1-8c-3-11-10-19-18-28c-1-1-2-3-1-5c4-7,10-15,9-23
	c-1-3-4.5-8.6-6-9c1.3-7.9-6.5-12.8-12.2-16.6c-8.3-5.5-16-11.7-22.9-18.8l1.9-1c-9.8-5.6-20.8-13.6-22.8-25.6c-1-4,5-6,9-2
	c3,4,3,11,10,12c9,0,25-2,26-2l1-1c6,3,14,1,17,7c4,6,9.5,14.5,11.7,17.4c2.3-4.6,6.9-5.8,11.7-5.8c2.2,0,11.2,1.8,12.3-0.3
	c1-1.9-2.5-4.9,0.4-6.9c1.5-1,2.5,0,3.6,1.2c2.3,2.6,3.2,6.2,5.3,9c2.2,2.9,7.8,7.3,8.6,0.9c4,2,5.2-3.6,3.5-6.5
	c6.6-2.1,12.7,2.9,19,4c0,10,12,12,16,20c1,3,3,7,7,6c4-2,5-7,9-9c3-1,7.2,3.3,10,4c0-6.2-2.2-11.9-3.8-17.7c-0.9-3,2.3-5.8,3.4-6.5
	c-4-6.2,3.8-8.6,8.7-7.6c1.5,0.3,2.9,1.4,4.3,1.6c2,0.3,1.8-1.3,3.5-1.7c0.7-0.2,2.1,0.4,2.7,0.7c-0.2-0.2-1.7-1.7-2.7-3.7
	c0-5,5-8,10-9c9-1,16,5,24,8c4-2,7-5,12-4.6c-0.1-0.3-0.2-0.6-0.3-0.9c0.1,0.3,0.2,0.6,0.3,0.9c-0.6-2.2,1.8-2.7,3.4-2
	c1.8,0.8,2.6,3.2,3.3,4.9c2.6-1.9,5.5-3.6,7.8-5.9c6.5-7.4,16.5-4.4,24.5-8.4c4-2,3-9,6-13c7,0,14,3,17.5-3.5
	c-1.6-1.7-2.8-3.7-3.8-5.8c1.3,0.3,3.3-0.7,4.3-0.7c9,2,19,6,26,0c1.5-1.5,0,0,0,0c2-3,1-7,4-10c10-8,23-12,26-25
	c3-9-11.1-21.5-12.4-23.6c3,0.2,6-1,9-0.5c2.4,0.5,4.4,1.9,6.9,2.2c3.3,0.3,9,2.4,10.2,2.8c5.3-2.9,11.3-7.9,18.3-6.9c2,1,3,3,5,4
	c1,0,3,0,4,1c2,2,4,4,7,5c5,3,7,9,6,15c-1,8-5,15-5,23c0,2-2.7,1.9-4,4c0,1,1,2,1,2c-3,3-8,5-8,9c5,4,11,2,17,2
	c1,0,33.1,1.9,34.5,1.5"/>
<polyline class="st7" points="286.2,465.5 287.3,467.4 289.2,468.4 291.2,469.3 293.1,470.3 292.1,473.2 291.2,476 289.2,478.9 
	286.4,482.8 282.5,485.7 279.6,486.6 276.7,484.7 274.8,487.6 272.9,489.5 272.9,492.4 271.9,497.2 273.9,500.1 273.9,503.9 
	273.9,508.7 278.7,508.7 278.7,511.6 280.6,515.5 284.4,515.5 286.4,518.4 290.2,519.3 294,521.2 296.9,521.2 298.9,523.2 
	300.8,526 303.7,528 305.6,526 306.5,522.2 308.5,515.5 310.4,512.6 312.3,511.6 321.9,511.6 325.8,511.6 329.6,512.6 335.4,512.6 
	337.3,510.7 340.2,510.7 344,510.7 346.9,510.7 350.8,508.7 353.7,508.7 356.5,507.8 361.4,507.8 364.2,507.8 368.1,506.8 
	377.7,503 377.7,525.1 376.7,526 376.7,528 376.7,530.9 377.7,531.8 378.7,532.8 378.7,535.7 378.7,536.6 378.7,539.5 379.6,541.4 
	379.6,543.4 379.6,546.2 381.5,547.2 387.3,553 388.3,558.7 394,558.7 400.8,558.7 401.7,556.8 404.6,557.8 402.7,553.9 398.9,551 
	399.8,544.3 400.8,535.7 401.7,516.4 402.7,496.2 406.5,491.4 407.5,488.5 409.4,484.7 410.4,480.9 421,473.2 426.7,470.3 
	429.6,468.4 436.4,468.4 446.9,462.6 463.3,462.6 465.2,460.7 495,448.2 496,450.1 498.8,453 501.7,453 502.7,450.1 505.6,450.1 
	508.5,447.2 510.4,442.4 511.3,438.5 514.2,434.7 519,433.7 525.8,434.7 529.6,435.7 532.5,434.7 532.5,430.9 532.5,427 
	532.5,423.2 537.3,421.2 543.1,418.4 546.9,418.4 553.7,414.5 557.5,414.5 561.3,415.5 565.2,417.4 565.2,419.3 568.1,425.1 
	571,430.9 575.8,435.7 578.7,435.7 580.6,435.7 583.5,437.6 586.3,437.6 588.3,441.4 585.4,443.4 588.3,446.2 593.1,454.9 
	596.9,450.1 602.7,458.7 606.5,457.8 610.4,456.8 610.4,454.9 608.5,453 607.5,452 608.5,450.1 608.5,447.2 604.6,441.4 
	605.6,437.6 608.5,432.8 618.1,425.1 622.9,421.2 628.7,428 628.7,433.7 630.6,432.8 632.5,433.7 636.3,436.6 642.1,436.6 
	645,436.6 646,436.6 646,434.7 646.9,434.7 646.9,424.1 646,424.1 646,421.2 642.1,418.4 642.1,416.4 644,415.5 644,414.5 
	642.1,412.6 642.1,408.7 641.2,406.8 643.1,406.8 643.1,405.9 646.9,405.9 647.9,406.8 649.8,407.8 650.8,408.7 665.2,395.3 
	668.1,393.4 669,389.5 670,387.6 671,384.7 671.9,383.7 673.8,379.9 678.6,379.9 682.5,379.9 691.1,375.1 697.9,370.3 698.8,374.1 
	698.8,376 707.5,376 709.4,375.1 709.4,370.3 711.3,370.3 712.3,364.5 713.3,362.6 714.2,361.6 715.2,358.7 713.3,356.8 
	717.1,355.9 718.1,352 718.1,347.2 716.1,343.4 716.1,340.5 713.3,338.6 703.6,334.7 704.6,337.6 706.5,341.4 704.6,346.2 
	704.6,349.1 705.6,353 705.6,354.9 700.8,355.9 697.9,353.9 692.1,353 690.2,351.1 687.3,353 685.4,352 682.5,352 681.5,353 
	678.6,352 675.8,353 672.9,354.9 670,353.9 668.1,352 664.2,352 663.3,348.2 661.3,345.3 657.5,340.5 658.5,335.7 659.4,331.8 
	659.4,328.9 658.5,327 658.5,324.1 659.4,321.2 662.3,321.2 665.2,322.2 670,321.2 671.9,319.3 671.9,316.4 675.8,312.6 
	680.6,312.6 681.5,312.6 681.5,308.7 678.6,306.8 677.7,304.9 679.6,302 679.6,300.1 677.7,297.2 674.8,292.4 674.8,290.5 
	672.9,286.6 672.9,283.7 669,278.9 669,274.1 668.1,273.2 669,271.2 669,270.3 658.5,255.9 657.5,251.1 655.6,248.2 653.7,246.2 
	648.8,246.2 646.9,239.5 646.9,236.6 646,233.7 646.9,231.8 647.9,229.9 645,228 640.2,225.1 639.2,222.2 640.2,220.3 639.2,216.4 
	642.1,216.4 645,214.5 645,212.6 648.8,207.8 652.7,202 654.6,201.1 656.5,197.2 657.5,196.2 657.5,192.4 655.6,191.4 653.7,187.6 
	653.7,185.7 654.6,183.7 651.7,179.9 652.7,178 657.5,178 659.4,176.1 658.5,172.2 657.5,169.3 655.9,167.4 "/>
<g>
	<g class="st8">
		<path class="st9" d="M724.7,502.4c0.1,0.5,0.1,0.9,0.3,1.2c0.2,0.3,0.4,1,0.5,1.1c0.1,0.1,0.2,0.3,0.3,0.6c0.1,0.3,0,0.5,0.5,0.5
			c0.5,0,0.5,0.2,0.9-0.1c0.4-0.3,0.3-0.6,0.9-0.6c0.5-0.1,1.3-0.2,1.7-0.2c0.4,0,1.3-0.1,1.6-0.1c0.3,0,1,0,1.2,0
			c0.1,0,0.4,0,0.3-0.3c-0.1-0.2-0.6-0.3-0.3-0.7c0.3-0.4,0.3-0.6,0.7-0.5c0.4,0.1,0.8,0,1.2,0c0.4,0.1,1,0.3,1.2,0.5
			c0.2,0.1,0.5,0.5,0.6,0.6c0.1,0.1,0.4,0.4,0.5,0.4c0.1,0,0.3-0.1,0.4-0.2c0.1-0.1,0.1-0.3,0.4-0.3c0.3,0,0.4,0.1,0.6,0.1
			c0.2,0.1,0.2,0,0.4-0.1c0.1-0.1,0.6-0.5,0.8-0.5c0.2-0.1,0.2,0,0.4-0.3c0.2-0.2,0.2-0.5,0.2-0.6c0.1-0.2,0.1-0.5,0.3-0.7
			c0.2-0.2,0.4-0.5,0.5-0.6c0.1-0.1,0.2-0.3,0.3-0.4c0.1-0.1,0-0.6,0.1-0.7c0.1-0.1,0.2-0.3,0.2-0.4c0.1-0.1,0.1-0.3,0.3-0.2
			c0.1,0.1,0.3,0.2,0.4,0.3c0.1,0.1,0.4,0.4,0.5,0.5c0.1,0.1,0.2,0.3,0.2,0.4c0,0.1,0,0.6,0,0.7c0,0.2,0,0.6,0,0.7
			c0,0.1,0.3,1,0.4,1.2c0.1,0.1,0.4,0.7,0.5,0.8c0.1,0.1,0.7,0.6,0.8,0.7c0.1,0.1,0.3,0.5,0.3,0.6c0,0.1-0.1,0.4-0.2,0.5
			c-0.1,0.1-0.5,0.3-0.5,0.5c0,0.2-0.2,0.5-0.2,0.6c0,0.1-0.3,0.8-0.3,0.8s-0.5,0.3-0.6,0.4c-0.1,0.1-0.7,0.5-0.7,0.7
			c0,0.2-0.2,0.5-0.1,0.7c0.1,0.2-0.2,0.6,0.1,0.6c0.3,0,0.3-0.4,0.6-0.1c0.2,0.3,0.2,0.6,0.2,0.7c0,0.1,0.2,0.5,0.4,0.7
			c0.2,0.2,0.2,0.5,0.5,0.4c0.2-0.1,0.2-0.3,0.5-0.2c0.3,0.1,0.4,0.2,0.8,0.1c0.3,0,0.6,0,0.8-0.2c0.2-0.2,0.3-0.5,0.6-0.5
			c0.3,0,0.3,0.1,0.5,0c0.3-0.2,0.5-0.4,0.6-0.3c0.1,0,0.1,0,0.2-0.5c0.1-0.5,0.2-0.8,0.6-0.9c0.4-0.1,0.7-0.1,0.9-0.1
			c0.2,0,0.4-0.2,0.5-0.2s0.4-0.1,0.5,0c0.2,0.1,0.5,0.3,0.7,0.3c0.2,0.1,0.5,0.2,0.7,0.2c0.1,0,0.7,0,0.9,0.1
			c0.2,0.1,0.6,0.3,0.6,0.4c0,0.1,0.4,0.4,0.5,0.4c0.1,0.1,0.4,0.3,0.5,0.3c0.1,0,0.3-0.1,0.5-0.1c0.2,0.1,0.4,0.3,0.4,0.4
			c0.1,0.1,0.4,0.5,0.4,0.6c0.1,0.1,0.2,0.4,0.2,0.5c0,0.1,0,0.6,0,0.7c0,0.1,0,0.3,0.1,0.3c0.1,0,0.1,0.1,0.2,0
			c0.1-0.1,0.2-0.2,0.4-0.2c0.2,0.1,0.3,0.1,0.4,0.2c0.1,0,0.3-0.1,0.4-0.2c0.1-0.1,0.3-0.2,0.4-0.2c0.1,0,0.1,0.2,0.3-0.1
			c0.2-0.2,0.3-0.3,0.5-0.2c0.2,0.1,0.7,0.2,0.8,0.3c0.2,0.1,0.6,0.3,0.8,0.3c0.2,0.1,0.6,0.3,0.7,0.3c0.1,0,1,0.2,1.1,0.2
			s0.6,0.1,0.8,0c0.2,0,0.9-0.3,1.1-0.3c0.2,0,0.9,0.2,1.2,0.3c0.2,0.2,0.7,0.4,1,0.5c0.3,0.1,1,0.6,1,0.6s1.4,1.3,1.5,1.4
			c0.1,0.1,0.7,0.6,0.8,0.6c0.1,0.1,1,0.8,1.1,0.9c0.1,0.1,0.3,0.3,0.4,0.3c0.1,0,0.5,0.2,0.5,0.2c0.1,0,1.1,0.2,1.1,0.2
			s0.3,0.1,0.5,0.2c0.1,0,0.4,0,0.5,0c0.2,0,0.6,0,0.7,0.1c0.1,0.1,0.4,0.2,0.6,0.4c0.1,0.2,0.2,0.5,0.3,0.6
			c0.1,0.2,0.1,0.6,0.1,0.9s-0.1,0.8,0,1.1c0.1,0.2,0.3,0.8,0.4,1.1c0.1,0.3,0,0.7,0,0.9c0,0.2-0.3,0.8-0.4,1.1
			c-0.1,0.3-0.5,1.1-0.5,1.3c0,0.2-0.2,0.9-0.2,1c0,0.1-0.4,0.6-0.5,0.7c-0.1,0.1-0.7,0.7-0.9,0.8c-0.2,0.1-1.1,1-1.2,1.2
			c-0.1,0.1-0.9,0.7-0.9,0.8c-0.1,0.1-0.4,0.6-0.5,0.7c-0.1,0.1-0.5,0.6-0.5,0.7c0,0.1-0.1,0.6-0.3,0.9c-0.2,0.3-0.7,0.9-0.8,1
			c-0.1,0.1-0.6,0.7-0.6,0.7s-0.2,0.3-0.4,0.1c-0.2-0.2-0.5-0.4-0.6-0.4c-0.1,0-0.3-0.1-0.3,0.1c-0.1,0.2-0.1,0.5-0.2,0.6
			c0,0.2-0.2,0.2-0.3,0.4c-0.1,0.2-0.3,0.8-0.2,0.9c0,0.1,0,1.3,0,1.4c0,0.1-0.2,0.9-0.1,1.1c0,0.2,0.1,1.3,0.1,1.3s0.2,1.1,0.2,1.2
			c0,0.1-0.3,0.4-0.3,0.6c-0.1,0.2-0.4,0.9-0.4,1c0,0.1-0.2,1.2-0.2,1.2l-0.4,0.6l-0.4,0.3c0,0,0,0.4-0.2,0.5
			c-0.1,0.1-0.4,0.1-0.4,0.4c0,0.3,0.2,0.6,0.1,0.9c-0.1,0.3-0.4,1-0.5,1.2c-0.1,0.2-0.7,1.1-0.7,1.2c0,0.1-0.6,1-0.6,1.1
			c0,0.1-0.5,0.9-0.5,1c0,0.1-0.4,0.4-0.5,0.5c0,0.1-0.3,0.8-0.3,0.9c0,0.1-0.4,0.6-0.4,0.6c0,0.1-0.5,0.2-0.6,0.2
			c-0.1,0-0.6,0-0.6,0.1c0,0.1-0.3,0.8-0.3,0.8s0,0.2-0.2,0.2c-0.2,0-0.6,0.2-0.8,0.1c-0.2-0.1-0.4,0-0.6-0.2
			c-0.2-0.2-0.2-0.4-0.4-0.4c-0.2-0.1-0.4,0.3-0.4,0.3s0,0.3-0.1,0.3s-0.4-0.1-0.5-0.2c-0.1,0-0.5,0-0.5,0s-0.2,0.3-0.3,0.3
			c-0.1,0-0.4,0-0.4-0.1c0-0.1-0.2-0.4-0.3-0.4c-0.1,0-0.4,0-0.4,0l-0.2,0.4c0,0-0.2,0-0.4,0c-0.2,0-0.4-0.1-0.4,0
			c0,0.1-0.3,0.3-0.3,0.4c0,0.1-0.2,0.2-0.3,0.2c-0.1,0.1-0.8,0.1-0.8,0.1s-0.6,0.2-0.7,0.2c-0.1,0.1-0.4,0.4-0.5,0.5
			c-0.1,0.1-0.7,0.6-0.8,0.7c-0.1,0-1.4,0.9-1.4,0.9s-0.6,0.7-0.7,0.8c-0.1,0.1-0.3,0.2-0.3,0.3c-0.1,0.1-0.7,0.6-0.7,0.7
			c0,0.1-0.2,0.7-0.1,0.7c0,0.1,0,0.3,0,0.4c0,0.1-0.3,0.6-0.2,0.8c0.1,0.1-0.3,0.5,0,0.7c0.2,0.2,0.3,0.4,0.4,0.5
			c0.1,0.1,0,0.7,0,0.7c0,0-0.3,0.2-0.4,0.3c0,0.1-0.1,0.2-0.1,0.3s-0.1,1-0.1,1s-0.1,0.3-0.3,0.4c-0.1,0.1-0.6,0.3-0.6,0.3
			s-0.2,0.2-0.4,0.3c-0.2,0.1-0.6,0.3-0.6,0.5c0,0.1-0.6,0.8-0.6,0.9c0,0.1-0.6,0.8-0.6,0.9c0,0.1-0.7,1.1-0.7,1.1l-1,1.3l-0.5,0.5
			l-0.3,0.1c0,0-0.2-0.1-0.1-0.2c0-0.2,0.1-0.3,0.3-0.5c0.2-0.1,0.5-0.4,0.6-0.5c0.1-0.1,0.3-0.5,0.5-0.7c0.2-0.2,0.4-0.6,0.5-0.8
			c0.1-0.2,0.2-0.5,0.2-0.5s-0.2,0.1-0.3,0.1c-0.1,0-0.3,0.2-0.3,0.1c0-0.1-0.2-0.3-0.3-0.2c-0.1,0.1-0.3,0.3-0.3,0.5
			c0,0.1-0.2,0.5-0.2,0.7c-0.1,0.2,0,0.3-0.3,0.5c-0.3,0.2-0.4,0.1-0.5,0.4c-0.1,0.3-0.3,0.5-0.3,0.6c0,0.1-0.1,0.5,0,0.5
			c0,0,0.2,0.2,0.2,0.3c0,0-0.1,0.3-0.1,0.4c-0.1,0.1-0.9,1.3-0.9,1.3s-0.4,0.5-0.5,0.7c-0.1,0.1-0.5,0.7-0.6,0.8
			c0,0.1-0.2,0.2-0.3,0.2c-0.1,0-0.3-0.1-0.2-0.3c0.1-0.2,0.1-0.4,0.2-0.6c0.1-0.2,0.2-0.5,0.3-0.6c0.1-0.1,0.2-0.3,0.3-0.3
			c0.1,0,0.2-0.1,0.3-0.1c0.1,0,0.2-0.2,0.2-0.3c0-0.1,0-0.4,0-0.4c-0.1,0-0.4,0.1-0.5,0.2c-0.1,0.1-0.5,0.3-0.6,0.2
			c-0.2-0.1-0.6-0.3-0.6-0.4c0-0.1-0.2-0.5-0.3-0.6c-0.1-0.1-0.6-0.5-0.6-0.6c-0.1,0-0.8-0.3-0.9-0.4c-0.1-0.1-0.6-0.4-0.6-0.4
			s-0.2-0.4-0.2-0.5c0-0.1-0.2-0.2-0.2-0.2s-0.2,0-0.3,0c0,0-0.2,0.2-0.2,0.2c0,0,0,0.1-0.2,0.1c-0.1-0.1-0.2-0.1-0.2-0.1
			c0,0-0.2-0.5-0.2-0.6c0,0-0.3-0.5-0.3-0.6c0-0.1-0.5-0.4-0.5-0.4s-0.4-0.1-0.4-0.1c0,0-0.6,0.1-0.7,0.1c-0.1,0-0.3,0-0.3,0
			c0,0-0.1-0.1-0.1-0.2c0-0.1,0.1-0.7,0.2-0.8c0.1-0.1,0.5-0.4,0.6-0.5c0.1-0.1,0.5-0.3,0.5-0.3s0.3-0.2,0.4-0.3
			c0-0.1,0.1-0.5,0.2-0.6c0.1-0.1,0.3-0.4,0.4-0.5c0.1-0.1,0.7-0.8,0.8-0.9c0.1-0.2,0.5-0.8,0.8-0.9c0.3-0.2,1.1-0.8,1.3-0.9
			c0.2-0.1,1-0.6,1.1-0.8c0.1-0.2,0.4-0.8,0.4-0.9c0-0.1-0.1-1-0.1-1l-0.3-0.6l-0.5-0.2c0,0-0.3,0-0.4,0c-0.1,0-0.3,0-0.3-0.3
			c0-0.2,0-0.7,0-0.8c0-0.1,0-0.6,0-0.6s-0.2-0.2-0.2-0.3c0-0.1,0.1-0.2,0.2-0.3c0.1-0.1,0.2-0.3,0.3-0.4c0.1-0.1,0-0.3,0-0.3
			l-0.2-0.2l-0.4,0c0,0,0,0.1-0.2,0.1c-0.1,0-0.2-0.1-0.3-0.1c-0.1,0-0.3,0-0.3,0s-0.2,0.2-0.2,0.2c-0.1,0-0.1,0.1-0.3,0
			c-0.2-0.1-0.2-0.1-0.3-0.2c0-0.1-0.3-0.2-0.3-0.6c0-0.4,0-1.3,0-1.4c0-0.1,0-0.7,0-0.7l-0.3-0.6l-0.5-0.1c0,0-0.3-0.1-0.4-0.1
			c0-0.1-0.4-0.3-0.4-0.3s-0.2,0.2-0.2,0.3c0,0.1-0.1,0.3-0.4,0.3c-0.2,0.1-0.7,0-0.7,0c-0.1-0.1-0.6-0.3-0.6-0.3l-0.7,0.2
			c0,0-0.3,0-0.3-0.1c-0.1-0.2-0.2-0.4-0.1-0.7c0-0.3-0.2-1.6-0.3-1.8c0-0.2-0.1-1.3-0.1-1.3s-0.1-0.4,0-0.6
			c0.1-0.1,0.3-0.3,0.3-0.3c0.1-0.1,0.1-0.3,0.1-0.3c0,0-0.2-0.3-0.2-0.3s-0.1-0.3-0.1-0.3c0-0.1,0.1-0.2,0.2-0.3
			c0.1-0.1,0.3-0.4,0.3-0.5c0-0.1-0.1-1-0.1-1l0.3-0.6l0-0.7l-0.3-0.8c0,0-0.6-0.3-0.7-0.4c-0.1-0.1-0.3-0.6-0.3-0.7
			c0-0.1-0.1-0.7-0.1-0.7l-0.5-0.3c0,0-1.6,0-1.8,0c-0.1,0-1.1-0.4-1.1-0.5c0-0.1-0.1-0.6-0.2-0.8c-0.1-0.2-0.6-0.7-0.6-0.8
			c0-0.1,0-0.8,0.1-1c0.1-0.2,0.3-0.9,0.3-0.9s-0.8-0.9-0.9-1c-0.1-0.1-1.1-0.3-1.2-0.3c-0.1,0-0.9,0-1-0.1
			c-0.1-0.1-0.8-0.6-0.8-0.6s-0.9-0.1-1-0.2c-0.1,0-0.8-0.5-0.9-0.6c-0.1-0.1-0.7,0-0.8-0.1c-0.1-0.1-0.5-0.6-0.7-0.6
			c-0.1,0-0.5,0.2-0.8,0.1c-0.3-0.1-0.8-0.4-0.9-0.5c-0.1-0.1-0.4-0.5-0.5-0.6c-0.1-0.1-0.3-0.3-0.4-0.4c-0.1-0.1-0.6-0.5-0.6-0.5
			l-0.2-1c0,0-0.2-0.3-0.2-0.4c0-0.1-0.1-0.3,0-0.5c0.1-0.2,0.2-0.5,0.2-0.6c0-0.1-0.3-0.6-0.3-0.7c0-0.1-0.5-0.3-0.6-0.3
			s-0.8,0.3-0.8,0.3l-0.6,0l-0.5,0.2l-0.4,0.4l-0.4,0.2l-0.7,0.1c0,0-0.4,0.4-0.4,0.5c0,0.1,0,0.3-0.3,0.4c-0.2,0.1-0.7,0.3-0.7,0.4
			c-0.1,0.1-0.5,0.3-0.6,0.3c-0.1,0-1.2-0.3-1.2-0.3l-1.1,0.1l-0.8,0.3c0,0-0.8,0-0.8-0.3c0-0.3-0.1-0.9-0.1-1.1
			c0-0.2-0.3-0.6-0.2-0.9c0.1-0.2,0.3-0.5,0.3-0.6c0-0.1,0-0.6,0-0.6s-0.3,0-0.4,0.1c-0.1,0.1-0.4,0.4-0.5,0.6
			c-0.1,0.2-0.7,0.5-0.8,0.7c-0.1,0.1-0.6,0.3-0.8,0.2c-0.3-0.1-0.6,0.1-0.8-0.3c-0.2-0.4-0.5-0.8-0.5-0.8c-0.1,0-0.3-0.1-0.5,0
			c-0.1,0.1-0.4,0.3-0.5,0.3c-0.1,0-0.5,0-0.5-0.2c0-0.2,0-0.3,0-0.5c0.1-0.2,0.2-0.7,0.2-0.8s-0.2-0.6-0.4-0.8
			c-0.1-0.2-0.8-1-0.9-1c-0.1-0.1-0.4-0.4-0.4-0.5c0-0.1-0.2-0.7-0.2-0.7c0-0.1,0.2-0.2,0.3-0.3c0.1-0.1,0.3-0.4,0.3-0.4
			s-0.2-0.4-0.2-0.4c0-0.1,0.2-0.5,0.2-0.5s0.2-0.2,0.5-0.3c0.2,0,0.5-0.1,0.6-0.1c0-0.1,0.1-0.3,0.1-0.4c0-0.1-0.3-0.4-0.3-0.5
			c0-0.1,0.2-0.8,0.2-0.8l0.3-0.5l0.1-0.5c0,0,0-0.3,0.1-0.4c0.1-0.1,0.6-0.3,0.7-0.3c0.1,0,0.4-0.3,0.4-0.4
			c0.1-0.1,0.3-0.3,0.4-0.3c0.1,0,0.4-0.1,0.4-0.1s0.5-0.2,0.6-0.2c0.1,0,0.6,0.1,0.6,0.1c0.1,0,0.4-0.1,0.5-0.2
			c0.1-0.1,0.3-0.4,0.4-0.5c0.1-0.1,0.4-0.2,0.7-0.1c0.3,0.1,1,0.2,1,0.2s0.3-0.2,0.3-0.5c0-0.3,0.1-0.8,0.2-1
			c0.1-0.3,0.2-1.2,0.3-1.3c0.1-0.2,0.5-1.8,0.5-1.8l0-1.2l0.1-1c0,0-0.2-0.5-0.4-0.6c-0.1-0.2-0.8-1.3-0.8-1.3c0-0.1,0-0.5,0.1-0.7
			c0.1-0.2,0.3-0.4,0.4-0.5c0.1,0,0.6,0,0.6,0c0,0,0.2,0.1,0.2-0.1c0.1-0.2,0.2-0.3,0.1-0.5c-0.1-0.2-0.2-0.3-0.3-0.4
			c-0.1-0.1-0.4-0.1-0.5-0.2c-0.1-0.1-0.3-0.2-0.3-0.3c0-0.1-0.1-0.2-0.1-0.3c0,0,0.1-0.4,0.2-0.5c0.1-0.1,0.4-0.3,0.5-0.3
			c0.1,0,0.7,0.1,0.8,0.1c0.1,0,0.8,0.1,0.8,0.2c0.1,0,0.5,0,0.6-0.1c0-0.1,0.2-0.3,0.2-0.3c0.1-0.1,0.2-0.3,0.3-0.3
			c0.1,0,0.2,0.1,0.3,0.2c0.1,0.1,0.3,0.4,0.4,0.3c0.1,0,0.2-0.1,0.2-0.2c0.1-0.1,0.2-0.4,0.2-0.4l0.4,0c0,0,0.1,0.2,0.2,0.3
			c0.1,0.1,0.2,0.2,0.3,0.2c0.1,0,0.3,0.1,0.3,0.1c0,0.1,0.1,0.2,0.1,0.3c0,0.1-0.2,0.4-0.2,0.4l-0.1,0.3c0,0,0.2,0.1,0.3,0.2
			c0.1,0,0.6,0.1,0.7,0.2c0.1,0.1,0.7,0.5,0.8,0.6c0.1,0.1,0.4,0.3,0.6,0.2c0.1-0.1,0.9-0.4,1-0.5s0.5-0.4,0.6-0.4
			c0.1,0,0.6-0.1,0.6-0.1s0.3-0.4,0.5-0.4c0.2,0,0.7,0,0.9,0c0.1-0.1,0.4-0.2,0.4-0.5c0-0.3,0.3-0.9,0.3-0.9l0.8-0.2l0.2-0.1
			l-0.2-0.4c0,0-0.5-0.1-0.6-0.1c-0.1,0-0.6,0.1-0.7,0.1c-0.1,0-0.6-0.2-0.6-0.2l-0.3-0.9c0,0,0.2-0.4,0.2-0.5
			c0-0.1,0.2-0.4,0.2-0.4c0-0.1-0.5-0.6-0.5-0.6l-0.6-0.3l-0.5-0.4c0,0,0-0.2,0-0.3c0-0.1,0.2-0.3,0.3-0.3c0.2,0,0.4,0.2,0.5,0.3
			c0.1,0.1,0.3,0.1,0.4,0.2c0.1,0,0.6,0.1,0.6,0.1c0.1,0,0.6,0.3,0.7,0.3c0.1,0,0.3,0.1,0.5,0.1c0.2,0,0.9,0,1,0
			c0.1,0,1.1-0.3,1.1-0.3s0.7,0,0.8,0c0.1,0,0.8,0,0.9-0.1c0.1-0.1,0.9-0.4,1-0.4c0.1,0,0.5-0.1,0.6-0.2c0.1,0,0.4-0.3,0.4-0.4
			c0-0.1,0.3-0.5,0.3-0.6c0.1-0.1,0.5-0.5,0.5-0.5s0.4,0,0.5,0c0.1,0,0.3,0.3,0.3,0.4c0,0.1,0,0.4,0,0.5c0.1,0.1,0.2,0.3,0.3,0.3
			c0.1,0,0.4,0.3,0.4,0.3c0,0.1,0.1,0.2,0.1,0.3c0,0.1,0.2,0.4,0.2,0.4l0.2,0.3l0,0.3c0,0-0.3,0.4-0.3,0.4c-0.1,0.1-0.5,0.3-0.5,0.4
			c0,0.1-0.3,0.5-0.3,0.5L724.7,502.4z"/>
		<path class="st9" d="M744.5,508.7c0.2,0.1,0.5,0.1,0.6,0.1s0.3,0,0.5-0.1c0.2-0.1,0.3-0.3,0.4-0.2c0.2,0.1,0.2,0.2,0.4,0.2
			c0.1,0,0.4,0,0.6,0c0.2,0,0.4,0,0.5,0.1c0.1,0.1,0.2,0.2,0.2,0.2c0,0.1-0.3,0.3-0.3,0.4c0,0.1,0.1,0.3,0.1,0.4
			c0,0.1-0.1,0.4-0.2,0.5c0,0.1-0.2,0.4-0.2,0.4c0,0.1-0.7,0.5-0.8,0.5c-0.1,0-0.6,0.4-0.7,0.4c-0.1,0-0.7,0.1-0.8,0.1
			c-0.1,0-0.3-0.2-0.5-0.2c-0.1,0-0.4,0-0.5,0c-0.1,0-0.3,0.2-0.4,0c-0.1-0.2-0.2-0.3-0.2-0.5c0-0.2-0.1-0.5-0.1-0.7
			c0-0.2,0-0.5,0-0.6c0-0.1,0.1-0.4,0.2-0.5c0.1-0.1,0.3-0.3,0.4-0.3c0.1-0.1,0.2-0.2,0.2-0.3c0.1,0,0.3-0.1,0.3-0.1L744.5,508.7z"
			/>
	</g>
	<g>
		<path d="M721.9,510l-16.5,0.3l-0.3,0l0-0.4l-0.2-16.4l0-0.6l0.6,0l16.4-0.1l0.7,0l0,0.7C722.4,499.2,722.1,504.6,721.9,510z
			 M721.8,509.9c-0.2-5.6-0.4-11.1-0.7-16.4l0.7,0.7l-16.4-0.1l0.6-0.6l-0.2,16.4l-0.4-0.4L721.8,509.9z"/>
	</g>
</g>
<g>
	<path d="M220.9,565c-1,0.9-2.4,1.5-3.6,2.1c-1.5,0.7-3,1.3-4.5,1.8c-1,0.3-1.9,0.6-2.9,0.9c0,0,0,0,0,0c0.1,0.1,0.2,0.3,0.1,0.4
		c0,0,0,0,0,0.1c-0.3,0.7-1.5,0.2-1.9-0.1c-1.4,0.3-2.8,0.5-4.2,0.7c-0.3,0-1.8-0.4-1.3-0.9c0.5-0.5,1-0.8,1.7-0.9
		c0.4-0.1,0.9,0,1.1,0.3c0,0,0.1,0.1,0.1,0.1c0.7-0.1,1.4-0.2,2.1-0.4c0-0.7,0.1-1.4,0.1-1.9c0.1-1.2,0.1-2.4,0.2-3.6
		c0.2-2.5,0.5-5,0.8-7.5c0.1-0.5,1.6-0.2,1.6,0.4c-0.1,1-0.2,1.9-0.2,2.9c1.8-0.9,3.5-1.9,5.2-3c0.9-0.6,1.9-1.5,2.4-2.5
		c0.2-0.4,0.4-1,0.3-1.5c-0.2-0.6-1-0.4-1.5-0.4c-4.5,0.3-8.7,2.6-11.7,6c-0.3,0.4-1.6-0.1-1.3-0.5c1.7-2.1,3.9-3.8,6.3-4.9
		c2.2-1,5.2-1.9,7.7-1.5c1,0.2,2.2,0.8,2.2,1.9c0,1.3-1,2.4-1.9,3.2c-1,0.9-2.2,1.6-3.4,2.2c-1.1,0.6-2.2,1.2-3.3,1.8
		c2.1,0.1,4.1,0,6.1,0.4C219.1,561,223.2,562.7,220.9,565z M219.3,562.5c-0.8-0.7-2-0.9-3.1-1.1c-2-0.2-4.1-0.1-6.2-0.3
		c0,0.7,0,1.4-0.1,2.1c0,1.2,0,2.3,0,3.5c0,0.6,0,1.2,0,1.7c2.8-0.8,5.5-1.9,8.1-3.3C218.9,564.6,220.5,563.5,219.3,562.5z"/>
	<path d="M235,569c-1.6-3-4.6-4.5-7.8-5c0,0.3,0,0.6,0,0.9c0,1.4,0.1,3.1,1.4,4c0.8,0.6-0.3,0.8-0.8,0.6c-2.3-1-2.5-3.4-2.3-5.6
		c0,0,0,0,0,0c-0.3,0-1-0.1-1.1-0.5c-0.1-0.3,0.1-0.5,0.3-0.5c0.3-0.2,0.7-0.4,1-0.6c0,0,0,0,0,0c0.3-2.8,0.7-5.6,1.3-8.4
		c0.1-0.5,1.5-0.1,1.4,0.4c-0.4,2.3-0.7,4.6-0.9,6.9c1.1-0.8,2.2-1.6,3.2-2.6c1.4-1.4,2.7-3,3-5c0.2-1.4-0.4-2.9-2-2.8
		c-1.3,0.1-2.5,0.7-3.6,1.3c-1.1,0.7-2.2,1.5-3,2.5c-0.5,0.5-0.9,1.1-1.2,1.7c-0.2,0.5-0.5,1.5,0.2,1.8c0.2,0.1,0.5,0.3,0.4,0.5
		c-0.2,0.3-0.7,0.1-0.9,0c-3.3-1.2,0-4.9,1.4-6.1c1.8-1.5,4.3-2.8,6.8-2.7c2.5,0.2,4.2,2.2,3.7,4.7c-0.4,2-1.7,3.6-3.1,5
		c-1.4,1.4-3.1,2.7-4.9,3.6c0,0,0,0,0,0.1c3.8,0.6,8,2.3,9.5,6C236.9,569.7,235.2,569.4,235,569z"/>
	<path d="M249.4,559.4c-0.2,0.5-1.3,0.2-1.5-0.2c0,0-0.1,0-0.2,0c-0.2,0.1-0.4,0.2-0.6,0.3c-0.2,0.1-0.4,0.2-0.6,0.3
		c-0.1,2.6-0.5,5.1-1.2,7.6c-0.1,0.5-1.4,0.1-1.3-0.4c0.4-2.2,0.8-4.4,0.9-6.6c-0.4,0.1-0.8,0.3-1.2,0.4c-1.5,0.5-2.9,0.9-4.4,1.3
		c-0.3,0.1-0.5,0.1-0.8,0.2c-0.4,3.1-0.2,6,0,9.1c0,0.7-1.5,0.3-1.6-0.2c-0.6-2.7-0.5-5.8-0.2-8.6c-0.5,0-1,0-1.5-0.3
		c-0.7-0.4-1.3-1.3-0.6-1.9c0.3-0.3,1.5,0.1,1.2,0.5c-0.2,0.3-0.2,0.8,0.3,0.9c0.2,0,0.6-0.1,0.8-0.1c0.4-2.6,1-5.4,2.3-7.7
		c1.1-2,3.4-3.1,5.5-1.7c2,1.3,2,4,2,6.2c0.3-0.1,0.6-0.2,0.8-0.3C248,558,249.8,558.4,249.4,559.4z M244.9,559.1c0-0.5,0-1,0-1.5
		c0-1.3,0-2.9-0.7-4.1c-0.4-0.7-1.1-1.2-1.9-0.8c-0.6,0.3-1.1,0.8-1.5,1.4c-0.7,1.2-1.1,2.7-1.5,4c-0.3,1.1-0.5,2.1-0.7,3.2
		c0.1,0,0.3-0.1,0.4-0.1c1.5-0.4,2.9-0.9,4.4-1.4C243.9,559.5,244.4,559.3,244.9,559.1z"/>
	<path d="M254,556.8c0.2-0.9,0.2-1.8,0.2-2.7c0-0.7-0.1-1.7-0.5-2.3c-0.9-1.4-2.7,1.3-3,2c-1.3,2.5-1.5,6,0.9,8
		c1,0.8,2.4,0.7,3.3,1.5c1.1,1,0.1,2.2-0.6,3.1c-0.8,1-1.8,2.1-3,2.7c-0.6,0.3-2.6,0.2-2.3-0.9c0.1-0.3,0.6-0.4,1-0.2
		c0.1,0,0.1-0.1,0.2-0.2c0.1-0.1,0.2-0.2,0.3-0.3c0.3-0.2,0.5-0.4,0.7-0.6c0.5-0.4,0.9-0.9,1.3-1.4c0.3-0.4,1.1-1.2,0.9-1.8
		c-0.2-0.5-1.2-0.5-1.6-0.7c-1.8-0.7-3.2-2.3-3.7-4.2c-0.6-2.3,0.2-4.7,1.5-6.6c1.1-1.6,3.2-2.4,5-1.2c1.8,1.2,1.3,4.4,0.9,6.1
		C255.2,557.6,253.9,557.3,254,556.8z"/>
	<path d="M266.8,568.8c-1.5,0-3-0.1-4.5,0.2c-1.5,0.2-2.8,0.8-4.2,1.4c-0.3,0.2-1.9-0.3-1.4-0.7c1.3-1.1,3-1.6,4.8-1.7
		c-0.1-0.1-0.2-0.2-0.2-0.4c0-4.5,0.4-9,0.6-13.4c-1.3,0.2-2.5,0.5-3.8,0.8c-0.3,0.1-1.5-0.5-0.9-0.7c1.4-0.5,2.9-0.9,4.3-1.1
		c1.4-0.2,3-0.5,4.4-0.3c0.3,0.1,1.4,0.7,0.6,0.8c-0.7,0.1-1.4,0.1-2,0.1c-0.5,0-0.9,0.1-1.4,0.1c0.1,0.1,0.2,0.2,0.2,0.3
		c0,4.5,0,9.1-0.2,13.6c1.1,0,2.1,0,3,0.1c0.3,0,0.9,0.1,1,0.4C267.3,568.7,267.1,568.8,266.8,568.8z"/>
	<path d="M278.4,569.6c0,0.6-1.6,0.1-1.7-0.3c-0.2-0.7-1.6-0.2-2.2-0.1c-0.7,0.1-1.4,0.3-2.1,0.5c-0.7,0.2-1.4,0.5-2.1,0.7
		c0,0.1,0,0.2-0.1,0.2c-0.1,0.3-0.5,0.3-0.9,0.1c-0.5,0.2-1,0.4-1.5,0.6c-0.3,0.1-1.7-0.3-1.1-0.7c0.6-0.4,1.2-0.7,1.9-1
		c-0.1-1.1,0.1-2.3,0.1-3.3c0-1.4,0.1-2.9,0.1-4.3c0.1-2.8,0.2-5.6,0.3-8.4c0-0.4,1.3-0.1,1.3,0.3c0,2.8,0,5.5,0,8.3
		c0,1.4,0,2.9,0,4.3c0,0.6,0,1.3,0,1.9c0,0.1,0,0.3,0,0.5c1.1-0.3,2.2-0.6,3.3-0.9c1-0.2,2.2-0.6,3.3-0.2
		C277.7,568.2,278.5,568.7,278.4,569.6z"/>
</g>
<g>
	<path d="M492,247.1c-0.2,5-1.3,21.4-10.1,17.6c-1.4-0.6-0.4-1.4,0.6-1.1c3.9,0.9,5.3-6.3,5.8-8.8c0.6-2.9,0.9-5.9,1.1-9
		c-1,2.1-2.5,4.9-3.7,5.4c-1.7,0.8-3-0.4-3.7-1.9c-0.8-1.7-0.7-3.8-0.7-5.6c0-0.7,2.3-0.3,2.3,0.5c0,1.5,0,3,0.4,4.4
		c0.1,0.4,0.2,0.8,0.4,1.1c0.2,0.3,0.7-0.3,0.9-0.5c2-2.4,3-5.7,4-8.7c0.3-0.8,2.5-0.3,2.6,0.5C492.1,243,492.1,245.1,492,247.1z"/>
	<path d="M504,242.3c-1.2,2.9-1.6,6.4-0.9,9.4c0.2,1-2,0.2-2.3-0.1c-0.9-1.1-0.7-3.1-0.6-4.4c0,0,0-0.1,0-0.1
		c-1.3,1.5-3.1,3.1-4.7,2.6c-2.3-0.7-1.3-3.8-0.2-5.3c1.3-1.7,3.6-2.5,5.6-1.5c0,0,0,0,0,0c0.2-0.4,0.4-0.8,0.5-1.2
		C501.9,240.8,504.3,241.5,504,242.3z M500.6,243.7c-0.1,0-0.3,0-0.4-0.1c-0.9-0.3-2.2,1.3-2.6,2c-0.3,0.5-0.8,1.6-0.8,2.4
		c0.2-0.1,0.4-0.3,0.5-0.3c0.3-0.2,0.5-0.4,0.8-0.6c0.5-0.4,1-0.9,1.3-1.4C499.9,245.1,500.3,244.4,500.6,243.7z"/>
	<path d="M517.6,248c-0.3,2.4-3,3.3-4.5,1.7c-0.8-0.9-1.8-3.2-2.5-5.7c-1.8,3.6-1.4,9.1-3.7,8.7c-0.3-0.1-1.3-0.9-1.3-1.3
		c-0.3-2.5-0.4-5-0.3-7.6c0-0.7,2.1-0.3,2.1,0.4c0,1.1,0.1,2.1,0.2,3.2c0.7-2.5,1.8-6.4,3-6.5c1.9-0.3,2.4,1.5,2.8,3
		c0.8,3.5,2.2,5.5,2.9,4.2C516.6,247.4,517.7,247.1,517.6,248z"/>
	<path d="M520,251.1c-1.7,0-3.1-1.1-3.4-2.7c-0.4-1.9,0.4-3.9,1.5-5.4c0.4-0.6,2.4,0.1,1.9,0.8c-0.7,1.1-1.1,2.3-1.1,3.6
		c0,0.6,0,1.3,0.3,1.8c0,0.1,0.1,0.2,0.2,0.3c0.1-0.1,0.4-0.4,0.4-0.4c0.8-0.9,1.2-2.3,1.2-3.5c0-1.2-0.5-2.1-0.7-3.2
		c-0.1-0.8,1.5-0.3,1.8,0C524.3,244.6,524,251,520,251.1z"/>
	<path d="M542.5,250c-0.6,0-1.2-0.2-1.6-0.7c-0.8-0.9-0.7-2-0.7-3.2c0-0.8,0-1.6,0.1-2.4c0-0.1,0-0.1,0-0.2c-2,2.1-4.3,5.9-5.4,5.9
		c-1.2,0-1.8-0.9-1.9-2.1c-0.1-1.1,0.2-2.1,0.3-3.2c-0.8,1.2-3.1,5.4-4.7,5.3c-3.9-0.3-2.8-5.7-2.2-8.1c0.2-0.7,3.1-0.1,2.9,0.6
		c-0.4,1.4-0.6,2.8-0.5,4.3c0,0.1,0.1,0.7,0.2,1.1c0.1-0.1,0.3-0.2,0.4-0.4c1.5-1.6,2.3-3.8,4-5.3c0.6-0.5,2.1-0.1,2.3,0.6
		c0.3,1,0.3,1.9,0.2,2.9c0,0.3-0.1,0.5-0.1,0.8c0.4-0.5,0.8-0.9,1.2-1.4c1-1.1,2-2.3,3-3.4c0.5-0.6,1.7-0.1,2.1,0.3
		c1,0.8,0.7,2.1,0.7,3.2c0,1.3-0.4,3.3,0.4,4.5C543.4,249.8,542.9,250,542.5,250z"/>
	<path d="M555.5,242.3c-1.2,2.9-1.6,6.4-0.9,9.4c0.2,1-2,0.2-2.3-0.1c-0.9-1.1-0.7-3.1-0.6-4.4c0,0,0-0.1,0-0.1
		c-1.3,1.5-3.1,3.1-4.7,2.6c-2.3-0.7-1.3-3.8-0.2-5.3c1.3-1.7,3.6-2.5,5.6-1.5c0,0,0,0,0,0c0.2-0.4,0.4-0.8,0.5-1.2
		C553.5,240.8,555.8,241.5,555.5,242.3z M552.2,243.7c-0.1,0-0.3,0-0.4-0.1c-0.9-0.3-2.2,1.3-2.6,2c-0.3,0.5-0.8,1.6-0.8,2.4
		c0.2-0.1,0.4-0.3,0.5-0.3c0.3-0.2,0.5-0.4,0.8-0.6c0.5-0.4,1-0.9,1.3-1.4C551.5,245.1,551.8,244.4,552.2,243.7z"/>
	<path d="M568.3,246c-2.2,2.7-4.9,4.1-7.6,4.1c-1.5,0-3.2-0.4-4.2-1.5c-1-1.1-0.7-2.7,0-3.8c1.2-2,5-4.8,7.1-2.5
		c1,1.1,0.3,2.6-0.7,3.4c-1.2,1-2.6,1.4-4.2,1.4c-0.1,0-0.2,0-0.3,0c-0.1,0.9,0.3,1.7,1.4,1.5c3.1-0.5,5.6-2,7-3.3
		C567.3,245,568.8,245.4,568.3,246z M560,244.4c-0.4,0.4-0.7,0.8-1,1.3c0.6-0.2,1.2-0.5,1.7-0.9c0.3-0.3,0.7-0.7,0.8-1.1
		c0.1-0.2,0.1-0.3,0.1-0.5C561,243.6,560,244.3,560,244.4z M562.2,242.9C562.2,242.9,562.2,242.9,562.2,242.9
		C562.2,242.9,562.2,242.9,562.2,242.9z"/>
</g>
<g>
	<path d="M613.7,293.1c-0.4,2.5-3.3,3.5-4.9,1.9c-0.9-0.9-2-3.4-2.7-6.2c-1.9,3.9-1.6,9.8-4,9.4c-0.4-0.1-1.4-1-1.4-1.4
		c-0.3-2.7-0.4-5.4-0.4-8.2c0-0.7,2.3-0.3,2.3,0.5c0,1.1,0.1,2.3,0.2,3.4c0.8-2.7,2-6.9,3.2-7.1c2.1-0.3,2.6,1.6,3,3.3
		c0.9,3.8,2.4,6,3.1,4.6C612.6,292.5,613.9,292.2,613.7,293.1z"/>
	<path d="M619.2,293.4c-0.6,2.5-2.3,3.9-4.5,2.6c-2.8-1.7-1.8-6.4-1.4-9c0.1-0.7,2.1-0.2,2,0.5c-0.2,2.1-0.6,4.3,0.2,6.3
		c1,2.8,2.3,0,2.7-1.1C618.4,292.2,619.4,292.6,619.2,293.4z M613.8,284.6c0-0.2,0-0.4,0-0.5c0-0.1,0.1-0.3,0.1-0.4
		c0-0.2,0.3-0.3,0.4-0.3c0.3-0.1,0.5,0,0.8,0c0.2,0.1,0.5,0.2,0.7,0.4c0.1,0.1,0.3,0.3,0.2,0.5c0,0.1-0.1,0.3-0.1,0.4
		c-0.1,0.2-0.2,0.3-0.3,0.5c-0.1,0.1-0.4,0.2-0.5,0.2c-0.2,0-0.3,0-0.5-0.1C614.3,285.1,613.8,284.9,613.8,284.6z"/>
	<path d="M631.7,293.1c-0.4,2.5-3.3,3.5-4.9,1.9c-0.9-0.9-2-3.4-2.7-6.2c-1.9,3.9-1.6,9.8-4,9.4c-0.4-0.1-1.4-1-1.4-1.4
		c-0.3-2.7-0.4-5.4-0.4-8.2c0-0.7,2.3-0.3,2.3,0.5c0,1.1,0.1,2.3,0.2,3.4c0.8-2.7,2-6.9,3.2-7.1c2.1-0.3,2.6,1.6,3,3.3
		c0.9,3.8,2.4,6,3.1,4.6C630.6,292.5,631.8,292.2,631.7,293.1z"/>
	<path d="M641.2,286.9c-1.3,3.1-1.7,6.9-0.9,10.2c0.3,1.1-2.2,0.3-2.5-0.1c-1-1.2-0.7-3.3-0.6-4.7c0,0,0-0.1,0-0.1
		c-1.4,1.6-3.3,3.4-5.1,2.8c-2.5-0.8-1.4-4.1-0.2-5.7c1.4-1.9,3.9-2.7,6.1-1.7c0,0,0,0,0,0c0.2-0.4,0.4-0.9,0.6-1.3
		C639,285.4,641.5,286.1,641.2,286.9z M637.6,288.5c-0.1,0-0.3,0-0.4-0.1c-1-0.4-2.4,1.4-2.8,2.1c-0.3,0.5-0.9,1.7-0.9,2.6
		c0.2-0.1,0.4-0.3,0.5-0.3c0.3-0.2,0.6-0.4,0.9-0.7c0.5-0.5,1-1,1.5-1.6C636.8,290,637.2,289.2,637.6,288.5z"/>
	<path d="M660.6,295.3c-0.6,0-1.3-0.2-1.8-0.7c-0.9-1-0.7-2.2-0.7-3.4c0-0.9,0-1.7,0.1-2.6c0-0.1,0-0.1,0-0.2
		c-2.1,2.3-4.7,6.4-5.8,6.4c-1.3,0-1.9-1-2-2.3c-0.1-1.2,0.2-2.3,0.4-3.4c-0.9,1.3-3.4,5.9-5.1,5.7c-4.2-0.3-3-6.1-2.4-8.7
		c0.2-0.8,3.3-0.1,3.1,0.7c-0.4,1.5-0.6,3-0.6,4.6c0,0.1,0.1,0.7,0.2,1.2c0.1-0.1,0.3-0.3,0.4-0.4c1.6-1.8,2.5-4.1,4.4-5.7
		c0.6-0.5,2.2-0.1,2.5,0.7c0.3,1,0.3,2,0.2,3.1c0,0.3-0.1,0.6-0.1,0.9c0.5-0.5,0.9-1,1.3-1.5c1.1-1.2,2.2-2.5,3.2-3.7
		c0.5-0.6,1.8-0.1,2.3,0.3c1.1,0.8,0.8,2.3,0.8,3.5c0,1.4-0.4,3.6,0.4,4.9C661.6,295.1,661,295.3,660.6,295.3z"/>
</g>
<g>
	<path d="M565.9,65.3c-0.3,1.8-1,3.5-1.6,5.2c-0.5,1.6-1.1,3.2-1.6,4.8c-0.5,1.6-1,3.1-1.6,4.7c-0.4,1.1-1.1,2.7-2.3,3.1
		c-1.1,0.4-2.4-0.2-2.7-1.3c-0.2-0.7-0.2-1.6-0.3-2.3c-0.1-0.9-0.2-1.7-0.3-2.6c-0.4-3.6-0.7-7.1-0.9-10.7c0-0.6,1.5-0.3,1.5,0.2
		c0.2,3,0.5,5.9,0.8,8.9c0.2,1.5,0.4,3,0.6,4.4c0.1,0.4,0.1,0.7,0.2,1.1c0,0.2,0.2,0.6,0.2,0.9c0.1-0.2,0.4-0.4,0.5-0.6
		c0.7-1.1,1.1-2.5,1.5-3.8c0.5-1.4,0.9-2.8,1.4-4.2c0.9-2.7,1.7-5.7,3-8.2C564.6,64.4,566,64.7,565.9,65.3z"/>
	<path d="M577.1,81.4c-1.6,1.1-3.3,2.1-5.3,1.7c-1.9-0.4-3.1-1.7-3.5-3.6c-0.3-1.2-0.3-2.5-0.2-3.8c-0.4,0.1-0.8,0.1-1.2,0.2
		c-0.5,0.1-1.8-0.6-0.9-0.8c0.7-0.2,1.4-0.4,2.2-0.5c0.1-0.7,0.2-1.3,0.3-2c0.4-2.4,1.1-4.6,1.9-6.9c0,0,0-0.1,0-0.1
		c-0.8,0.2-1.4,0.7-1.8,1.4c-0.3,0.5-1.8,0.2-1.7-0.5c0.3-1.4,2.1-1.9,3.3-2c1.8-0.2,3.6,0,5.4,0.4c0.2,0,0.8,0.2,0.8,0.5
		c0,0.3-0.4,0.4-0.6,0.3c-1.3-0.2-3.2-0.6-4.8-0.3c0.4,0.1,0.9,0.3,0.8,0.6c-0.9,2.6-1.5,5.4-1.8,8.2c0,0,0.1,0,0.1,0
		c1.3-0.1,2.7-0.4,4-0.1c0.3,0.1,1.4,0.6,0.6,0.8c-1.2,0.3-2.5,0.1-3.7,0.2c-0.3,0-0.7,0.1-1,0.1c0,0.4,0,0.8,0,1.2
		c0,1.5,0,4,1.3,5.1c1.2,1.1,3.3-0.4,4.4-1.1C576,80.4,577.6,81,577.1,81.4z"/>
	<path d="M588.5,74.2c0,1.8-0.1,3.5-0.3,5.3c-0.1,1-0.2,2.3-0.8,3.1c-0.3,0.4-1.6,0.1-1.8-0.4c-1.2-2.5-2.2-5.2-3.2-7.8
		c-0.3-0.7-0.6-1.4-0.8-2.1c0,0.6,0.1,1.2,0.1,1.8c0.1,2.3,0.2,5.3-0.9,7.4c-0.3,0.5-1.8,0.2-1.7-0.4c0.2-1.2,0.6-2.3,0.7-3.5
		c0.2-1.3,0.2-2.6,0.2-4c0-2.3-0.3-4.7-0.8-6.9c0-0.1-0.1-0.2-0.1-0.2c0-0.1,0-0.1,0-0.2c0,0,0,0,0,0c-0.1-0.5,1.3-0.3,1.4,0.2
		c0,0.1,0,0.1,0,0.2c1.4,2.4,2.3,5.2,3.4,7.7c0.7,1.8,1.5,3.5,2.3,5.3c0-0.3,0.1-0.6,0.1-0.8c0.2-1.7,0.3-3.5,0.3-5.2
		c0.1-3.3-0.2-6.7-0.2-10c0-0.5,1.5-0.1,1.6,0.3c0.3,1.5,0.3,3.1,0.4,4.6C588.5,70.4,588.5,72.3,588.5,74.2z"/>
	<path d="M602.2,81.4c-1.6,1.1-3.3,2.1-5.3,1.7c-1.9-0.4-3.1-1.7-3.5-3.6c-0.3-1.2-0.3-2.5-0.2-3.8c-0.4,0.1-0.8,0.1-1.2,0.2
		c-0.5,0.1-1.8-0.6-0.9-0.8c0.7-0.2,1.4-0.4,2.2-0.5c0.1-0.7,0.2-1.3,0.3-2c0.4-2.4,1.1-4.6,1.9-6.9c0,0,0-0.1,0-0.1
		c-0.8,0.2-1.4,0.7-1.8,1.4c-0.3,0.5-1.8,0.2-1.7-0.5c0.3-1.4,2.1-1.9,3.3-2c1.8-0.2,3.6,0,5.4,0.4c0.2,0,0.8,0.2,0.8,0.5
		c0,0.3-0.4,0.4-0.6,0.3c-1.3-0.2-3.2-0.6-4.8-0.3c0.4,0.1,0.9,0.3,0.8,0.6c-0.9,2.6-1.5,5.4-1.8,8.2c0,0,0.1,0,0.1,0
		c1.3-0.1,2.7-0.4,4-0.1c0.3,0.1,1.4,0.6,0.6,0.8c-1.2,0.3-2.5,0.1-3.7,0.2c-0.3,0-0.7,0.1-1,0.1c0,0.4,0,0.8,0,1.2
		c0,1.5,0,4,1.3,5.1c1.2,1.1,3.3-0.4,4.4-1.1C601.1,80.4,602.6,81,602.2,81.4z"/>
	<path d="M612.8,81.8c-1.1,0.7-2.6,1-3.8,1.2c-1.1,0.2-2.3,0.6-3.4,0.3c-0.9-0.2-1.6-0.8-1.5-1.8c0.2-1.3,0.9-2.5,1.5-3.6
		c1.3-2.4,3-4.7,4.5-6.9c0.4-0.6,0.8-1.2,1.2-1.8c0.3-0.4,0.9-1.3,0.9-1.8c0-0.1,0.1-0.2,0.1-0.2c-0.2,0-0.5-0.1-0.7-0.1
		c-0.3,0-0.7-0.1-1-0.1c-0.7,0-1.5,0-2.2,0c-0.7,0-1.9-0.9-0.7-1c1.3-0.1,2.7,0,4,0.1c0.9,0.1,2.2,0.2,2.4,1.3
		c0.2,1-0.7,2.1-1.2,2.9c-0.8,1.2-1.6,2.3-2.3,3.5c-1.5,2.2-3.1,4.5-4,7c-0.1,0.2-0.6,1.4-0.5,1.6c-0.1,0.1-0.1,0.1,0.3,0
		c0.1,0,0.2,0,0.3-0.1c0.3-0.1,0.7-0.1,1-0.2c1.3-0.3,2.6-0.8,3.9-1.1C611.9,80.8,613.6,81.3,612.8,81.8z"/>
	<path d="M627.7,65.2c-0.3,2.8-0.6,5.7-0.7,8.5c-0.1,1.4-0.1,2.8-0.1,4.2c0,1.4,0.1,2.9-0.1,4.3c-0.1,0.6-1.8,0.2-1.9-0.4
		c-0.2-1.4-0.3-2.8-0.2-4.2c-0.8,1.8-1.8,3.5-3.2,4.8c-1.1,0.9-2.5,1.2-3.8,0.4c-1.3-0.8-1.7-2.2-1.8-3.7c-0.1-3.7,0.4-7.6,0.8-11.3
		c0.1-0.5,1.6-0.2,1.6,0.4c-0.3,3.2-0.5,6.4-0.5,9.6c0,0.9,0,1.7,0.1,2.6c0.1,0.4,0.3,1.5,0.8,1.7c0.8,0.3,2.3-2.1,2.7-2.6
		c2.8-4.3,3.4-9.8,4.4-14.7C626,64,627.8,64.5,627.7,65.2z"/>
	<path d="M642.1,81.4c-1.6,1.1-3.3,2.1-5.3,1.7c-1.9-0.4-3.1-1.7-3.5-3.6c-0.3-1.2-0.3-2.5-0.2-3.8c-0.4,0.1-0.8,0.1-1.2,0.2
		c-0.5,0.1-1.8-0.6-0.9-0.8c0.7-0.2,1.4-0.4,2.2-0.5c0.1-0.7,0.2-1.3,0.3-2c0.4-2.4,1.1-4.6,1.9-6.9c0,0,0-0.1,0-0.1
		c-0.8,0.2-1.4,0.7-1.8,1.4c-0.3,0.5-1.8,0.2-1.7-0.5c0.3-1.4,2.1-1.9,3.3-2c1.8-0.2,3.6,0,5.4,0.4c0.2,0,0.8,0.2,0.8,0.5
		c0,0.3-0.4,0.4-0.6,0.3c-1.3-0.2-3.2-0.6-4.8-0.3c0.4,0.1,0.9,0.3,0.8,0.6c-0.9,2.6-1.5,5.4-1.8,8.2c0,0,0.1,0,0.1,0
		c1.3-0.1,2.7-0.4,4-0.1c0.3,0.1,1.4,0.6,0.6,0.8c-1.2,0.3-2.5,0.1-3.7,0.2c-0.3,0-0.7,0.1-1,0.1c0,0.4,0,0.8,0,1.2
		c0,1.5,0,4,1.3,5.1c1.2,1.1,3.3-0.4,4.4-1.1C641,80.4,642.6,81,642.1,81.4z"/>
	<path d="M656.2,83.6c-0.1,0.7-1.7,0.1-1.9-0.4c-0.2-0.8-1.8-0.2-2.4-0.1c-0.8,0.2-1.6,0.4-2.3,0.6c-0.8,0.2-1.6,0.5-2.3,0.8
		c0,0.1,0,0.2-0.1,0.3c-0.1,0.3-0.6,0.3-1,0.2c-0.5,0.2-1.1,0.4-1.6,0.6c-0.4,0.1-1.9-0.3-1.2-0.7c0.6-0.4,1.4-0.8,2.1-1.1
		c-0.1-1.2,0.1-2.5,0.1-3.7c0-1.6,0.1-3.1,0.1-4.7c0.1-3.1,0.2-6.2,0.3-9.2c0-0.5,1.4-0.2,1.4,0.4c0,3.1,0,6.1,0,9.2
		c0,1.6,0,3.2,0,4.8c0,0.7,0,1.4,0,2.1c0,0.2,0,0.3,0,0.5c1.2-0.4,2.4-0.7,3.6-0.9c1.1-0.3,2.4-0.6,3.6-0.3
		C655.4,82.1,656.3,82.7,656.2,83.6z"/>
	<path d="M668.3,72.4c-0.2,0.5-1.4,0.3-1.7-0.2c-0.1,0-0.1,0-0.2,0.1c-0.2,0.1-0.4,0.2-0.6,0.3c-0.2,0.1-0.5,0.2-0.7,0.3
		c-0.1,2.8-0.6,5.6-1.3,8.4c-0.1,0.5-1.6,0.1-1.5-0.4c0.5-2.4,0.9-4.8,1-7.3c-0.4,0.2-0.9,0.3-1.3,0.5c-1.6,0.5-3.2,1-4.9,1.4
		c-0.3,0.1-0.6,0.1-0.9,0.2c-0.5,3.4-0.2,6.6,0,10c0,0.8-1.7,0.3-1.8-0.2c-0.7-3-0.6-6.3-0.2-9.4c-0.6,0-1.1-0.1-1.7-0.3
		c-0.8-0.4-1.4-1.4-0.7-2.1c0.3-0.3,1.6,0.1,1.3,0.5c-0.3,0.3-0.2,0.9,0.3,1c0.3,0.1,0.6-0.1,0.9-0.2c0.4-2.9,1.2-5.9,2.5-8.5
		c1.2-2.2,3.7-3.4,6-1.9c2.2,1.5,2.2,4.4,2.2,6.8c0.3-0.1,0.6-0.2,0.9-0.3C666.9,70.8,668.8,71.3,668.3,72.4z M663.5,72
		c0-0.6,0-1.1,0-1.7c0-1.5,0-3.2-0.8-4.5c-0.5-0.8-1.2-1.4-2.1-0.9c-0.7,0.3-1.2,0.9-1.6,1.5c-0.8,1.3-1.2,2.9-1.7,4.4
		c-0.3,1.2-0.6,2.3-0.8,3.5c0.2,0,0.3-0.1,0.5-0.1c1.6-0.4,3.2-1,4.8-1.6C662.3,72.5,662.9,72.2,663.5,72z"/>
</g>
<g>
	<g>
		<path d="M396.6,340.8c-0.2,5.3-1.3,22.6-10.7,18.6c-1.5-0.6-0.5-1.4,0.7-1.2c4.1,1,5.6-6.6,6.1-9.3c0.6-3.1,1-6.3,1.1-9.4
			c-1,2.2-2.7,5.1-3.9,5.7c-1.8,0.8-3.2-0.4-3.9-2c-0.8-1.8-0.7-4-0.7-5.9c0-0.7,2.5-0.3,2.5,0.5c0,1.5,0,3.1,0.5,4.6
			c0.1,0.4,0.2,0.8,0.5,1.2c0.2,0.3,0.7-0.3,0.9-0.5c2.1-2.6,3.1-6.1,4.2-9.1c0.3-0.9,2.7-0.3,2.7,0.5
			C396.7,336.5,396.7,338.7,396.6,340.8z"/>
		<path d="M409.2,335.7c-1.3,3-1.7,6.7-0.9,9.9c0.3,1.1-2.1,0.3-2.4-0.1c-1-1.2-0.7-3.2-0.6-4.6c0,0,0-0.1,0-0.1
			c-1.4,1.5-3.3,3.3-4.9,2.8c-2.4-0.8-1.4-4-0.2-5.6c1.4-1.8,3.8-2.6,5.9-1.6c0,0,0,0,0,0c0.2-0.4,0.4-0.8,0.6-1.3
			C407.1,334.2,409.5,334.9,409.2,335.7z M405.7,337.2c-0.1,0-0.3,0-0.4-0.1c-1-0.4-2.4,1.4-2.8,2.1c-0.3,0.5-0.8,1.7-0.8,2.6
			c0.2-0.1,0.4-0.3,0.5-0.3c0.3-0.2,0.6-0.4,0.8-0.7c0.5-0.5,1-1,1.4-1.5C404.9,338.6,405.3,337.9,405.7,337.2z"/>
		<path d="M423.6,341.7c-0.4,2.5-3.2,3.5-4.8,1.8c-0.9-0.9-1.9-3.4-2.6-6c-1.9,3.8-1.5,9.6-3.9,9.2c-0.3-0.1-1.4-0.9-1.4-1.4
			c-0.3-2.7-0.4-5.3-0.3-8c0-0.7,2.2-0.3,2.3,0.4c0,1.1,0.1,2.2,0.2,3.3c0.8-2.6,1.9-6.7,3.2-6.9c2-0.3,2.6,1.6,2.9,3.2
			c0.8,3.7,2.4,5.8,3,4.4C422.5,341.1,423.7,340.8,423.6,341.7z"/>
		<path d="M426.1,345c-1.8,0-3.3-1.1-3.6-2.9c-0.4-2,0.4-4.1,1.6-5.7c0.4-0.6,2.5,0.1,2,0.8c-0.7,1.1-1.1,2.4-1.2,3.8
			c0,0.7,0,1.3,0.3,1.9c0,0.1,0.1,0.2,0.2,0.3c0.1-0.1,0.4-0.4,0.5-0.4c0.9-0.9,1.2-2.4,1.2-3.7c0-1.2-0.6-2.2-0.7-3.4
			c-0.1-0.9,1.6-0.3,1.9,0C430.7,338.1,430.4,344.9,426.1,345z"/>
		<path d="M449.8,343.9c-0.6,0-1.3-0.2-1.7-0.7c-0.8-1-0.7-2.2-0.7-3.3c0-0.8,0-1.7,0.1-2.5c0-0.1,0-0.1,0-0.2
			c-2.1,2.2-4.5,6.2-5.7,6.2c-1.2,0-1.9-1-2-2.3c-0.1-1.1,0.2-2.2,0.4-3.3c-0.9,1.3-3.3,5.7-5,5.6c-4.1-0.3-3-6-2.3-8.5
			c0.2-0.8,3.2-0.1,3,0.7c-0.4,1.5-0.6,3-0.6,4.5c0,0.1,0.1,0.7,0.2,1.1c0.1-0.1,0.3-0.3,0.4-0.4c1.6-1.7,2.4-4,4.3-5.6
			c0.6-0.5,2.2-0.1,2.4,0.6c0.3,1,0.3,2,0.2,3c0,0.3-0.1,0.6-0.1,0.9c0.4-0.5,0.9-1,1.3-1.5c1.1-1.2,2.1-2.4,3.1-3.6
			c0.5-0.6,1.8-0.1,2.3,0.3c1,0.8,0.7,2.2,0.7,3.4c0,1.4-0.4,3.5,0.4,4.8C450.8,343.6,450.2,343.8,449.8,343.9z"/>
		<path d="M463.6,335.7c-1.3,3-1.7,6.7-0.9,9.9c0.3,1.1-2.1,0.3-2.4-0.1c-1-1.2-0.7-3.2-0.6-4.6c0,0,0-0.1,0-0.1
			c-1.4,1.5-3.3,3.3-4.9,2.8c-2.4-0.8-1.4-4-0.2-5.6c1.4-1.8,3.8-2.6,5.9-1.6c0,0,0,0,0,0c0.2-0.4,0.4-0.8,0.6-1.3
			C461.4,334.2,463.9,334.9,463.6,335.7z M460.1,337.2c-0.1,0-0.3,0-0.4-0.1c-1-0.4-2.4,1.4-2.8,2.1c-0.3,0.5-0.8,1.7-0.8,2.6
			c0.2-0.1,0.4-0.3,0.5-0.3c0.3-0.2,0.6-0.4,0.8-0.7c0.5-0.5,1-1,1.4-1.5C459.3,338.6,459.7,337.9,460.1,337.2z"/>
		<path d="M482.5,343.9c-0.6,0-1.3-0.2-1.7-0.7c-0.8-1-0.7-2.2-0.7-3.3c0-0.8,0-1.7,0.1-2.5c0-0.1,0-0.1,0-0.2
			c-2.1,2.2-4.5,6.2-5.7,6.2c-1.2,0-1.9-1-2-2.3c-0.1-1.1,0.2-2.2,0.4-3.3c-0.9,1.3-3.3,5.7-5,5.6c-4.1-0.3-3-6-2.3-8.5
			c0.2-0.8,3.2-0.1,3,0.7c-0.4,1.5-0.6,3-0.6,4.5c0,0.1,0.1,0.7,0.2,1.1c0.1-0.1,0.3-0.3,0.4-0.4c1.6-1.7,2.4-4,4.3-5.6
			c0.6-0.5,2.2-0.1,2.4,0.6c0.3,1,0.3,2,0.2,3c0,0.3-0.1,0.6-0.1,0.9c0.4-0.5,0.9-1,1.3-1.5c1.1-1.2,2.1-2.4,3.1-3.6
			c0.5-0.6,1.8-0.1,2.3,0.3c1,0.8,0.7,2.2,0.7,3.4c0,1.4-0.4,3.5,0.4,4.8C483.5,343.6,482.9,343.8,482.5,343.9z"/>
		<path d="M492.4,342c-0.6,2.5-2.3,3.8-4.4,2.6c-2.7-1.6-1.8-6.2-1.4-8.7c0.1-0.7,2.1-0.2,2,0.5c-0.2,2-0.6,4.2,0.2,6.2
			c1,2.7,2.3,0,2.6-1.1C491.6,340.8,492.6,341.3,492.4,342z M487,333.4c0-0.2,0-0.3,0-0.5c0-0.1,0.1-0.3,0.1-0.4
			c0-0.2,0.2-0.2,0.4-0.3c0.3-0.1,0.5,0,0.8,0c0.2,0.1,0.5,0.2,0.7,0.3c0.1,0.1,0.3,0.3,0.2,0.5c0,0.1-0.1,0.3-0.1,0.4
			c0,0.2-0.1,0.3-0.3,0.5c-0.1,0.1-0.4,0.2-0.5,0.2c-0.2,0-0.3,0-0.5-0.1C487.6,333.9,487.1,333.7,487,333.4z"/>
	</g>
	<g>
		<path class="st10" d="M429.7,333.1c0,0.1,0,0.2-0.1,0.2c-0.1,0-0.2,0-0.3,0c-0.1,0-0.2,0-0.4-0.1c-0.1,0-0.2-0.1-0.2-0.1
			c-0.4-0.3-0.7-0.7-1-1.1c-0.3-0.4-0.6-0.8-0.8-1.2c-0.1-0.2-0.2-0.4-0.3-0.5c-0.1-0.2-0.2-0.4-0.4-0.6c-0.1,0.1-0.2,0.2-0.4,0.3
			c-0.1,0.1-0.3,0.2-0.4,0.3c-0.3,0.2-0.6,0.5-0.8,0.8c-0.1,0.1-0.2,0.3-0.3,0.5c-0.1,0.2-0.2,0.4-0.2,0.5c0,0.1-0.1,0.2-0.2,0.2
			c-0.1,0-0.3,0-0.4,0c-0.1,0-0.3-0.1-0.4-0.2c-0.1-0.1-0.2-0.1-0.3-0.2l-0.1-0.1c0-0.1-0.1-0.1-0.1-0.2c0.2-0.3,0.3-0.6,0.6-0.9
			c0.2-0.3,0.5-0.6,0.8-0.8c0.3-0.3,0.6-0.5,0.9-0.7c0.3-0.2,0.5-0.5,0.7-0.9c0.1-0.1,0.2-0.2,0.3-0.2c0.1,0,0.3,0,0.4,0
			c0.1,0,0.3,0.1,0.4,0.2c0.1,0.1,0.2,0.1,0.3,0.2c0.3,0.4,0.5,0.8,0.7,1.2c0.2,0.4,0.4,0.8,0.6,1.2c0.2,0.4,0.4,0.7,0.7,1.1
			C429.4,332.3,429.5,332.7,429.7,333.1z"/>
	</g>
</g>
<g>
	<g>
		<path d="M395.6,133.3c-0.7-0.2-2.1-1.3-0.7-1.6c1.5-0.4,2.2-1.5,1.9-3.1c-0.3-1.3-1.2-2.3-1.8-3.5c-0.9-1.7-0.8-3.7,1.1-4.6
			c0.6-0.3,2.8,0.6,1.8,1.1c-1.5,0.8-0.3,3.1,0.4,4.1c0.8,1.1,1.7,2.2,2,3.6C400.7,132.2,398.2,134,395.6,133.3z"/>
		<path d="M413.9,119.2c-1.5,3.5-1.9,7.7-1.1,11.4c0.3,1.2-2.4,0.3-2.8-0.2c-1.1-1.3-0.8-3.7-0.7-5.3c0-0.1,0-0.1,0-0.2
			c-1.6,1.8-3.7,3.8-5.7,3.2c-2.8-0.9-1.6-4.6-0.2-6.4c1.6-2.1,4.3-3,6.8-1.9c0,0,0,0,0,0c0.2-0.5,0.4-1,0.6-1.4
			C411.5,117.4,414.3,118.3,413.9,119.2z M409.9,120.9c-0.2,0-0.3-0.1-0.5-0.1c-1.1-0.4-2.7,1.6-3.2,2.4c-0.3,0.6-1,1.9-1,3
			c0.3-0.2,0.5-0.3,0.6-0.4c0.3-0.2,0.7-0.5,1-0.8c0.6-0.5,1.2-1.1,1.6-1.8C409,122.5,409.5,121.7,409.9,120.9z"/>
		<path d="M430.4,126.1c-0.4,2.9-3.7,4-5.5,2.1c-1-1-2.2-3.9-3-6.9c-2.1,4.4-1.8,11-4.4,10.5c-0.4-0.1-1.6-1.1-1.6-1.6
			c-0.3-3-0.4-6.1-0.4-9.2c0-0.8,2.6-0.3,2.6,0.5c0,1.3,0.1,2.6,0.2,3.8c0.9-3,2.2-7.7,3.6-7.9c2.3-0.3,2.9,1.8,3.4,3.7
			c1,4.3,2.7,6.7,3.5,5.1C429.2,125.3,430.5,125.1,430.4,126.1z"/>
		<path d="M433.3,129.8c-2,0-3.7-1.3-4.1-3.3c-0.4-2.3,0.5-4.7,1.9-6.5c0.5-0.7,2.9,0.1,2.3,1c-0.8,1.3-1.3,2.8-1.3,4.4
			c0,0.7,0,1.5,0.3,2.2c0,0.1,0.1,0.3,0.2,0.4c0.1-0.2,0.5-0.4,0.5-0.5c1-1.1,1.4-2.8,1.4-4.2c0-1.4-0.6-2.5-0.9-3.9
			c-0.2-1,1.9-0.4,2.2,0C438.6,122,438.2,129.8,433.3,129.8z"/>
		<path d="M460.6,128.6c-0.7,0-1.5-0.3-2-0.8c-1-1.1-0.8-2.5-0.8-3.8c0-1,0-1.9,0.1-2.9c0-0.1,0-0.2,0-0.3c-2.4,2.5-5.2,7.1-6.5,7.2
			c-1.4,0-2.2-1.1-2.3-2.6c-0.1-1.3,0.3-2.6,0.4-3.8c-1,1.5-3.8,6.6-5.7,6.4c-4.7-0.4-3.4-6.9-2.6-9.8c0.2-0.9,3.7-0.1,3.5,0.8
			c-0.5,1.7-0.7,3.4-0.7,5.2c0,0.1,0.1,0.8,0.2,1.3c0.2-0.1,0.3-0.3,0.4-0.5c1.8-2,2.8-4.6,4.9-6.4c0.7-0.6,2.5-0.2,2.8,0.7
			c0.3,1.2,0.4,2.3,0.2,3.5c0,0.3-0.1,0.7-0.2,1c0.5-0.6,1-1.1,1.5-1.7c1.2-1.4,2.4-2.8,3.6-4.2c0.6-0.7,2.1-0.1,2.6,0.3
			c1.2,0.9,0.8,2.6,0.9,3.9c0,1.6-0.4,4,0.5,5.5C461.8,128.3,461.1,128.5,460.6,128.6z"/>
		<path d="M476.4,119.2c-1.5,3.5-1.9,7.7-1.1,11.4c0.3,1.2-2.4,0.3-2.8-0.2c-1.1-1.3-0.8-3.7-0.7-5.3c0-0.1,0-0.1,0-0.2
			c-1.6,1.8-3.7,3.8-5.7,3.2c-2.8-0.9-1.6-4.6-0.2-6.4c1.6-2.1,4.3-3,6.8-1.9c0,0,0,0,0,0c0.2-0.5,0.4-1,0.6-1.4
			C473.9,117.4,476.8,118.3,476.4,119.2z M472.3,120.9c-0.2,0-0.3-0.1-0.5-0.1c-1.1-0.4-2.7,1.6-3.2,2.4c-0.3,0.6-1,1.9-1,3
			c0.3-0.2,0.5-0.3,0.6-0.4c0.3-0.2,0.7-0.5,1-0.8c0.6-0.5,1.2-1.1,1.6-1.8C471.5,122.5,471.9,121.7,472.3,120.9z"/>
	</g>
	<g>
		<path d="M429.7,115.3c0-0.8,0.6-1.4,1.4-1.4c0.8,0,1.3,0.6,1.3,1.4c0,0.7-0.5,1.4-1.3,1.4C430.3,116.7,429.7,116.1,429.7,115.3z
			 M434.8,115.3c0-0.8,0.6-1.4,1.4-1.4c0.8,0,1.3,0.6,1.3,1.4c0,0.7-0.5,1.4-1.3,1.4C435.3,116.7,434.8,116.1,434.8,115.3z"/>
	</g>
</g>
</svg>
